<svg width="50" height="50" viewBox="0 0 50 50" fill="none" xmlns="http://www.w3.org/2000/svg">
<path fill-rule="evenodd" clip-rule="evenodd" d="M21.4501 32.4467C21.4373 32.4781 21.425 32.5251 21.425 32.5879V43.3187L23.6503 41.2893C24.3487 40.6451 25.3763 40.645 26.0747 41.2892L28.3001 43.3186V32.5879C28.3001 32.5251 28.2877 32.4781 28.2749 32.4467H21.4501ZM19.425 32.5879C19.425 31.6243 20.0837 30.4467 21.3349 30.4467H28.3902C29.6413 30.4467 30.3001 31.6243 30.3001 32.5879V43.3367C30.3001 44.1034 29.9497 44.8129 29.3364 45.2019C28.6845 45.6153 27.825 45.5911 27.1773 45.0015L24.8625 42.8905L22.5484 45.0009C21.8971 45.5938 21.0352 45.6112 20.3866 45.1977C19.7771 44.8091 19.425 44.102 19.425 43.3367V32.5879Z" fill="#1A1A1A"/>
<path fill-rule="evenodd" clip-rule="evenodd" d="M14.4183 6.5C12.5274 6.5 11 8.03282 11 9.91827V27.8612C11 29.7521 12.5328 31.2795 14.4183 31.2795H15.9758C16.5281 31.2795 16.9758 31.7272 16.9758 32.2795C16.9758 32.8318 16.5281 33.2795 15.9758 33.2795H14.4183C11.4305 33.2795 9 30.8589 9 27.8612V9.91827C9 6.93053 11.4205 4.5 14.4183 4.5H35.3067C38.2945 4.5 40.725 6.92054 40.725 9.91827V27.3831C40.725 30.3709 38.3044 32.8014 35.3067 32.8014H33.0321C32.4798 32.8014 32.0321 32.3537 32.0321 31.8014C32.0321 31.2491 32.4798 30.8014 33.0321 30.8014H35.3067C37.1976 30.8014 38.725 29.2686 38.725 27.3831V9.91827C38.725 8.02738 37.1922 6.5 35.3067 6.5H14.4183Z" fill="#1A1A1A"/>
<path fill-rule="evenodd" clip-rule="evenodd" d="M24.8779 12.161L26.4046 15.2463C26.6496 15.7509 27.1269 16.0755 27.6532 16.1513C27.6538 16.1514 27.6544 16.1514 27.655 16.1515L31.0939 16.652L28.6022 19.0795L28.5929 19.0886C28.2171 19.4644 28.0324 20.0061 28.1303 20.5487L28.7204 23.9738L25.648 22.3575L25.6438 22.3552C25.1618 22.1046 24.5939 22.1046 24.1119 22.3552L21.0353 23.9738L21.6259 20.5462C21.7198 20.0136 21.5507 19.4603 21.1501 19.0761L18.6618 16.652L22.1008 16.1515C22.1013 16.1514 22.1019 16.1514 22.1025 16.1513C22.6288 16.0755 23.1061 15.7509 23.3511 15.2463L24.8779 12.161ZM17.97 16.7526C17.9692 16.7528 17.9685 16.7529 17.9678 16.753L17.97 16.7526ZM28.8391 24.6629C28.839 24.6624 28.8389 24.6619 28.8388 24.6614L28.8391 24.6629ZM23.3962 10.6458C23.9906 9.30667 25.769 9.46444 26.3467 10.6199L26.3486 10.6236L28.1172 14.1977L32.0708 14.7731C32.0713 14.7731 32.0718 14.7732 32.0724 14.7733C33.4512 14.9715 33.9543 16.6519 32.9917 17.5953L32.9896 17.5974L30.1311 20.3822L30.8095 24.3203C30.8096 24.3208 30.8097 24.3213 30.8098 24.3218C31.0441 25.676 29.6213 26.6957 28.4172 26.0742L28.4103 26.0706L24.8779 24.2122L21.3497 26.0683C21.3488 26.0688 21.3479 26.0693 21.347 26.0698C20.1236 26.7182 18.7153 25.6669 18.9458 24.3226L19.6247 20.3822L16.7662 17.5974L16.764 17.5953C15.8014 16.6519 16.3045 14.9716 17.6833 14.7733C17.6838 14.7732 17.6844 14.7731 17.685 14.7731L21.6385 14.1977L23.3962 10.6458Z" fill="#1A1A1A"/>
</svg>
