<svg width="500" height="500" viewBox="0 0 500 500" fill="none" xmlns="http://www.w3.org/2000/svg">
<path d="M53.3408 298.034C57.2207 329.554 70.7745 360.053 97.1925 377.739C122.818 394.89 157.438 398.248 191.03 397.486C244.236 396.28 302.979 383.652 342.632 345.416C367.959 320.994 382.295 289.207 394.841 258.223C407.17 227.785 418.459 197.099 428.71 166.239C436.871 141.672 444.394 115.437 437.179 92.5493C425.612 55.8691 379.939 40.7789 337.322 42.0768C294.695 43.3746 251.574 56.6623 208.906 58.4649C183.445 59.5361 157.191 56.7344 132.852 67.0349C57.4265 98.9665 46.0854 239.033 53.3408 298.034Z" fill="white"/>
<path d="M464.812 199.438C454.253 169.226 426.281 147.678 393.523 144.546C344.443 139.849 282.901 151.149 224.682 175.54C203.132 184.574 183.033 194.998 164.982 206.349C165.404 206.576 165.816 206.833 166.207 207.101C184.042 195.925 203.873 185.666 225.135 176.756C283.189 152.426 344.536 141.168 393.441 145.844C425.725 148.934 453.296 170.143 463.69 199.891C470.945 220.667 467.714 241.268 455.035 254.988C444.054 266.875 426.384 273.447 403.959 273.982C377.541 274.611 344.927 267.143 307.034 251.785L306.633 253C344.67 268.42 377.427 275.919 404 275.28C426.744 274.734 444.682 268.039 455.889 255.915C468.908 241.804 472.242 220.698 464.812 199.438Z" fill="#E1251B"/>
<path d="M86.9011 304.307C82.3008 296.345 84.9148 285.189 94.6711 271.16C109.532 249.797 132.564 228.876 161.143 210.294C161.102 209.635 161.802 209.244 162.286 209.563C162.625 209.347 162.975 209.12 163.325 208.904C162.955 208.698 162.594 208.481 162.224 208.286C162.172 208.255 162.131 208.214 162.09 208.172C132.657 227.084 108.925 248.489 93.714 270.367C83.6387 284.86 81.0041 296.499 85.8925 304.966C93.0862 317.42 116.067 322.838 154.197 321.045C164.838 320.551 175.243 319.531 184.083 318.45C198.717 316.657 209.091 314.7 209.256 314.669L209.029 313.392C207.959 313.608 103.532 333.118 86.9011 304.307Z" fill="#E1251B"/>
<path d="M167.442 210.14C167.041 210.387 166.639 210.634 166.238 210.882C166.3 210.964 166.361 211.046 166.433 211.129C166.454 211.149 166.464 211.17 166.475 211.18C166.505 211.221 166.547 211.252 166.577 211.294C166.66 211.376 166.732 211.448 166.814 211.52C166.927 211.623 167.041 211.726 167.164 211.819C167.679 211.5 168.203 211.18 168.728 210.861C168.296 210.624 167.874 210.377 167.442 210.14Z" fill="#E1251B"/>
<path d="M472.088 202.816C461.416 172.615 433.001 151.118 399.688 148.059C349.764 143.465 287.141 154.898 227.873 179.413C207.094 188.004 187.654 197.851 170.045 208.543C170.334 208.78 170.622 209.007 170.9 209.264C170.961 209.316 170.992 209.378 171.033 209.439C188.488 198.871 207.753 189.137 228.326 180.619C287.429 156.165 349.857 144.763 399.595 149.346C432.425 152.364 460.428 173.532 470.935 203.259C478.273 224.025 474.939 244.636 462.013 258.387C450.816 270.305 432.836 276.908 410.02 277.495C383.139 278.185 349.991 270.779 311.48 255.493L311.069 256.708C349.723 272.046 383.036 279.483 410.072 278.793C433.207 278.206 451.474 271.469 462.887 259.314C476.163 245.192 479.601 224.076 472.088 202.816Z" fill="#E1251B"/>
<path d="M87.4569 308.52C82.7948 300.568 85.4809 289.402 95.4327 275.352C110.088 254.659 132.533 234.367 160.32 216.186C160.371 215.64 160.423 215.084 160.505 214.538C132.204 232.935 109.347 253.536 94.455 274.559C84.1739 289.083 81.4673 300.733 86.4277 309.189C93.714 321.633 117.086 326.999 155.874 325.135C166.701 324.609 177.28 323.569 186.275 322.467C201.167 320.644 211.715 318.666 211.89 318.635L211.664 317.358C210.583 317.564 104.314 337.289 87.4569 308.52Z" fill="#E1251B"/>
<path d="M160.855 388.771L72.6678 393.468C66.884 393.777 61.8618 389.595 61.2546 383.951L43.2344 217.35C43.0697 215.455 43.893 212.365 45.8381 212.2L141.239 203.991C143.195 203.826 155.544 204.712 155.699 206.617L160.855 388.771Z" fill="#AFB1B2"/>
<path d="M171.692 388.771L83.5048 393.468C77.7211 393.777 72.6989 389.595 72.0917 383.951L54.0714 217.35C53.9068 215.455 55.3475 213.786 57.2926 213.611L152.694 205.402C154.649 205.237 156.368 206.658 156.533 208.564L171.692 388.771Z" fill="white"/>
<path d="M222.799 357.067L69.7041 364.298C66.5652 364.442 63.8894 362.073 63.7351 358.993L63.7145 358.653C63.5601 355.573 65.9889 352.967 69.1278 352.812L222.223 345.581C225.362 345.437 228.037 347.806 228.192 350.886L228.212 351.226C228.367 354.306 225.938 356.922 222.799 357.067Z" fill="#AFB1B2"/>
<path d="M201.012 153.868H200.796L203.812 127.345L211.788 121.01L226.494 127.272C230.343 126.397 233.698 124.955 236.569 123.163C237.588 128.478 242.394 156.268 231.722 162.016C219.908 168.382 207.496 157.504 207.373 157.381L206.076 158.844C206.189 158.947 214.258 166.023 223.931 165.971L227.852 183.585C225.321 185.522 213.074 193.917 201.826 183.524L201.146 158.988L201.012 153.868Z" fill="white"/>
<path d="M236.322 178.322L298.492 406.282L223.849 413.967L195.125 185.46L236.322 178.322Z" fill="#AFB1B2"/>
<path d="M255.969 388.287C294.963 384.579 316.451 372.249 316.77 372.064L314.918 368.644C314.455 368.922 267.258 395.869 185.195 380.881L184.577 384.744C212.457 389.843 236.415 390.141 255.969 388.287Z" fill="white"/>
<path d="M251.615 365.843C290.609 362.134 312.098 349.805 312.417 349.619L310.564 346.199C310.101 346.478 262.905 373.424 180.841 358.436L180.224 362.299C208.103 367.398 232.061 367.707 251.615 365.843Z" fill="white"/>
<path d="M247.272 343.408C286.267 339.7 307.755 327.37 308.074 327.185L306.222 323.765C305.758 324.033 258.562 350.999 176.498 336.002L175.881 339.865C203.76 344.963 227.719 345.272 247.272 343.408Z" fill="white"/>
<path d="M242.929 320.973C281.923 317.265 303.412 304.936 303.731 304.75L301.878 301.33C301.415 301.598 254.219 328.555 172.155 313.567L171.538 317.43C199.417 322.518 223.375 322.828 242.929 320.973Z" fill="white"/>
<path d="M238.576 298.529C277.57 294.82 299.059 282.491 299.378 282.305L297.525 278.885C297.062 279.164 249.866 306.11 167.802 291.123L167.185 294.985C195.064 300.084 219.033 300.393 238.576 298.529Z" fill="white"/>
<path d="M234.233 276.094C273.227 272.386 294.715 260.056 295.034 259.871L293.182 256.451C292.719 256.719 245.522 283.686 163.459 268.688L162.841 272.551C190.721 277.65 214.679 277.948 234.233 276.094Z" fill="white"/>
<path d="M229.89 253.649C268.884 249.941 290.373 237.612 290.692 237.426L288.839 234.006C288.376 234.274 241.18 261.231 159.116 246.243L158.499 250.106C186.378 255.205 210.336 255.514 229.89 253.649Z" fill="white"/>
<path d="M225.536 231.215C264.531 227.507 286.019 215.177 286.338 214.992L284.486 211.572C284.023 211.85 236.826 238.796 154.763 223.809L154.145 227.671C182.024 232.77 205.983 233.079 225.536 231.215Z" fill="white"/>
<path d="M221.194 208.78C260.188 205.072 281.676 192.742 281.995 192.557L280.143 189.137C279.68 189.405 232.483 216.372 150.42 201.374L149.802 205.237C177.682 210.325 201.64 210.634 221.194 208.78Z" fill="white"/>
<path d="M221.091 175.17C217.006 174.799 213.62 171.719 211.479 168.217C209.925 165.683 208.865 162.892 207.723 160.131C210.573 162.191 216.81 166.002 223.921 165.961L225.722 174.068C224.333 174.881 222.686 175.314 221.091 175.17Z" fill="black"/>
<path d="M199.16 157.741L199.88 184.368L200.179 184.657C205.458 189.704 211.026 190.888 215.863 190.435C223.592 189.704 229.479 184.791 229.571 184.698L230.024 184.317L225.907 165.858C228.13 165.611 230.384 164.962 232.648 163.736C240.212 159.668 241.005 146.71 240.295 136.275C244.627 129.446 245.029 121.875 244.432 116.189C253.159 105.724 254.641 92.1477 254.641 92.1477C203.174 81.7648 189.136 111.358 189.136 111.358L175.058 117.075L199.16 157.741ZM201.815 183.513L201.136 158.977L201.002 153.868H200.786L203.802 127.345L211.777 121.01L226.484 127.272C230.333 126.397 233.688 124.955 236.559 123.163C237.578 128.478 242.384 156.268 231.712 162.016C219.897 168.382 207.486 157.504 207.362 157.381L206.066 158.844C206.179 158.947 214.247 166.023 223.921 165.971L227.842 183.585C225.311 185.512 213.064 193.906 201.815 183.513Z" fill="black"/>
<path d="M236.322 178.322L277.9 181.834C287.049 181.803 295.807 185.501 302.156 192.094L320.341 228.145L321.247 269.687L296.506 262.24L336.756 408.116L291.814 417.973L255.464 273.797L236.322 178.322Z" fill="#E1251B"/>
<path d="M156.914 269.316L165.805 314.175L184.567 415.893L239.06 423L212.518 278.02L195.126 185.45L158.035 188.983C150.595 189.694 143.597 192.856 138.142 197.975L125.792 278.165L151.449 285.014L156.914 269.316Z" fill="#E1251B"/>
<path d="M236.322 178.322L255.464 273.807L267.063 215.548L253.941 209.058L259.581 181.896L236.322 178.322Z" fill="#E1251B"/>
<path d="M195.126 185.46L212.518 278.02L180.821 227.805L190.752 217.031L175.757 193.711L195.126 185.46Z" fill="#E1251B"/>
<path d="M257.306 277.433L268.153 214.992L255.053 208.513L260.548 182.102L258.624 181.7L252.83 209.605L265.972 216.104L255.372 277.104L257.306 277.433Z" fill="black"/>
<path d="M211.695 278.546L213.352 277.495L181.994 227.816L190.505 214.806L172.793 189.673L171.198 190.806L188.138 214.847L179.658 227.795L211.695 278.546Z" fill="black"/>
<path d="M189.663 110.549L188.611 112.21L201.373 120.303L202.425 118.641L189.663 110.549Z" fill="white"/>
<path d="M228.274 150.861C228.285 150.861 228.295 150.861 228.295 150.85C228.429 150.809 231.465 149.8 232.947 148.224C234.48 146.596 230.477 141.446 226.844 137.418C226.576 137.12 226.144 137.099 225.866 137.377C225.598 137.655 225.588 138.119 225.856 138.407C229.314 142.249 232.154 146.37 231.928 147.214C230.713 148.491 227.883 149.439 227.852 149.449C227.492 149.573 227.297 149.975 227.42 150.366C227.544 150.747 227.924 150.964 228.274 150.861Z" fill="black"/>
<path d="M233.624 139.699C234.043 138.163 233.766 136.748 233.004 136.54C232.242 136.331 231.284 137.408 230.864 138.944C230.444 140.481 230.722 141.895 231.484 142.104C232.246 142.312 233.204 141.236 233.624 139.699Z" fill="black"/>
<path d="M218.812 138.634C219.232 137.098 218.954 135.683 218.192 135.475C217.43 135.266 216.472 136.343 216.052 137.879C215.633 139.416 215.91 140.83 216.672 141.039C217.434 141.247 218.392 140.171 218.812 138.634Z" fill="black"/>
<path d="M214.422 134.905C214.741 134.812 214.947 134.493 214.906 134.122C214.782 133.092 214.823 132.072 215.019 131.063C215.153 130.363 215.348 129.868 215.616 129.508C216.378 128.508 217.911 128.529 218.971 129.065C220.257 129.714 221.225 131.001 222.038 132.165C222.264 132.495 222.696 132.567 223.005 132.33C223.304 132.093 223.365 131.64 223.139 131.31C222.223 130.002 221.112 128.539 219.537 127.746C217.973 126.953 215.75 126.984 214.546 128.57C214.01 129.271 213.794 130.136 213.681 130.723C213.455 131.877 213.414 133.072 213.547 134.256C213.599 134.658 213.938 134.957 214.319 134.915C214.35 134.926 214.381 134.915 214.422 134.905Z" fill="black"/>
<path d="M228.593 132.876C228.851 132.876 229.077 132.629 229.129 132.268C229.273 131.248 229.53 130.27 229.9 129.363C230.158 128.725 230.415 128.302 230.693 128.045C231.485 127.303 232.607 127.767 233.276 128.581C234.079 129.569 234.511 131.084 234.851 132.433C234.943 132.814 235.252 133.01 235.53 132.866C235.808 132.721 235.952 132.299 235.859 131.918C235.478 130.404 234.984 128.684 233.996 127.468C233.019 126.263 231.372 125.655 230.116 126.829C229.561 127.355 229.211 128.117 228.995 128.653C228.562 129.703 228.264 130.826 228.099 132C228.048 132.402 228.233 132.783 228.521 132.855C228.532 132.866 228.562 132.876 228.593 132.876Z" fill="black"/>
<path d="M152.778 231.048L151.104 231.267L156.087 269.427L157.761 269.208L152.778 231.048Z" fill="black"/>
<path d="M230.744 151.932C230.744 151.932 226.864 152.807 223.108 151.17C219.352 149.542 222.933 172.008 230.744 151.932Z" fill="black"/>
<path d="M221.657 154.826C224.23 155.578 226.206 156.928 227.245 158.679C223.972 162.737 221.976 158.421 221.657 154.826Z" fill="#E1251B"/>
<path d="M340.893 232.111L335.274 314.051L343.785 331.459L340.893 232.111Z" fill="black"/>
<path d="M205.078 353.142L212.662 389.379H228.007L216.131 350.773L205.078 353.142Z" fill="#A0A0A0"/>
<path d="M373.476 355.501C372.22 354.43 369.04 352.627 366.437 351.226C369.719 354.769 372.961 358.406 373.167 359.24C373.188 359.312 374.515 364.967 373.898 368.387H373.949C373.929 369.108 374.258 369.303 374.515 369.406C375.318 369.685 376.553 369.252 376.862 368.953C377.078 365.111 375.544 357.272 373.476 355.501Z" fill="white"/>
<path d="M365.624 349.032C368.402 350.495 372.848 352.926 374.484 354.326C377.16 356.603 378.632 365.379 378.405 369.128C378.405 370.127 379.393 370.478 379.692 370.56C380.433 370.766 381.112 370.581 381.277 370.292C381.812 369.097 379.929 359.312 378.323 356.17C377.541 354.605 371.376 351.535 365.624 349.032Z" fill="white"/>
<path d="M380.639 357.849C381.616 360.919 382.676 365.595 382.862 368.562C384.055 369.231 384.714 369.272 384.92 369.108C385.002 369.036 385.692 368.335 384.426 364.205C383.417 360.939 381.874 358.972 380.639 357.849Z" fill="white"/>
<path d="M358.008 344.17C358.152 344.242 372.23 358.838 372.23 358.838L373.259 368.273L372.374 370.024L370.079 369.406L368.618 367.46L368.34 364.761L368.052 362.629L363.791 359.909L361.712 358.426C361.712 358.426 358.1 358.941 357.843 358.931C357.586 358.92 351.349 358.581 351.133 358.581C350.917 358.57 348.57 357.468 348.57 357.468L358.008 344.17Z" fill="white"/>
<path d="M379.548 355.192C378.817 354.254 375.441 351.092 360.879 345.375C356.69 341.801 346.718 339.442 345.648 339.195L328.585 327.391L322.667 348.455L341.192 351.37C342.406 353.348 348.807 362.495 361.538 359.106L367.291 362.629C367.332 364.359 367.682 369.808 370.625 370.838C370.831 370.91 371.037 370.962 371.263 370.982C371.983 371.065 372.611 370.828 373.085 370.303C373.332 370.55 373.63 370.746 373.99 370.869C374.268 370.962 374.577 371.024 374.906 371.044C375.606 371.075 376.501 370.9 377.211 370.539C377.572 371.178 378.189 371.683 378.992 371.961C379.084 371.992 379.177 372.023 379.27 372.043C380.669 372.424 382.048 372.023 382.614 371.065C382.717 370.89 382.779 370.612 382.82 370.282C383.006 370.364 383.191 370.447 383.366 370.509C384.436 370.879 385.259 370.818 385.877 370.313C386.988 369.417 386.999 367.326 385.897 363.731C384.076 357.767 380.474 355.645 379.548 355.192ZM371.932 369.273C371.829 369.396 371.706 369.468 371.459 369.437C369.287 369.18 368.834 363.988 368.855 362.196V361.753L361.785 357.427L361.455 357.52C348.293 361.218 342.601 350.732 342.365 350.278L342.169 349.908L324.664 347.106L329.593 329.554L345.082 340.647L345.154 340.678L345.236 340.699C345.339 340.72 356.001 343.15 359.922 346.591C365.325 352.215 371.284 358.704 371.664 359.611C372.23 361.897 373.115 367.923 371.932 369.273ZM374.515 369.406C374.258 369.303 373.928 369.108 373.949 368.387H373.898C374.525 364.977 373.188 359.312 373.167 359.24C372.961 358.416 369.73 354.769 366.436 351.226C369.04 352.627 372.22 354.429 373.476 355.501C375.544 357.262 377.067 365.101 376.851 368.953C376.553 369.252 375.318 369.685 374.515 369.406ZM379.692 370.55C379.393 370.467 378.405 370.117 378.405 369.118C378.642 365.358 377.16 356.593 374.484 354.316C372.848 352.915 368.402 350.484 365.623 349.022C371.376 351.525 377.541 354.605 378.333 356.15C379.939 359.302 381.812 369.077 381.287 370.272C381.112 370.581 380.433 370.756 379.692 370.55ZM384.92 369.118C384.714 369.283 384.055 369.231 382.861 368.572C382.676 365.606 381.626 360.929 380.638 357.86C381.873 358.982 383.417 360.939 384.426 364.215C385.692 368.345 385.002 369.056 384.92 369.118Z" fill="black"/>
<path d="M222.799 357.066L175.17 353.667L154.145 349.084L222.243 345.592C225.382 345.447 228.058 347.817 228.212 350.896L228.233 351.236C228.367 354.306 225.938 356.922 222.799 357.066Z" fill="#999999"/>
<path d="M238.926 228.753H374.844L364.255 332.139H228.336C236.579 332.139 234.686 330.275 234.686 327.988V232.914C234.686 230.617 236.59 228.753 238.926 228.753Z" fill="white"/>
<path d="M304.77 332.695H239.327C236.456 332.695 234.12 330.409 234.12 327.597V233.296C234.12 230.484 236.456 228.197 239.327 228.197V229.309C237.084 229.309 235.252 231.102 235.252 233.296V327.597C235.252 329.791 237.084 331.583 239.327 331.583H304.77V332.695Z" fill="black"/>
<path d="M257.821 372.898H246.479V380.335H257.821V372.898Z" fill="black"/>
<path d="M274.451 372.898H263.11V380.335H274.451V372.898Z" fill="black"/>
<path d="M291.093 372.898H279.751V380.335H291.093V372.898Z" fill="black"/>
<path d="M307.723 372.898H296.382V380.335H307.723V372.898Z" fill="black"/>
<path d="M324.365 372.898H313.024V380.335H324.365V372.898Z" fill="black"/>
<path d="M341.006 372.898H329.665V380.335H341.006V372.898Z" fill="black"/>
<path d="M357.637 372.898H346.296V380.335H357.637V372.898Z" fill="black"/>
<path d="M374.278 372.898H362.937V380.335H374.278V372.898Z" fill="black"/>
<path d="M390.909 372.898H379.568V380.335H390.909V372.898Z" fill="black"/>
<path d="M397.506 376.545H235.087V388.504H397.506V376.545Z" fill="black"/>
<path d="M360.138 256.956H290.054V308.654H360.138V256.956Z" fill="#AFB1B2"/>
<path d="M369.761 256.956H299.676V308.654H369.761V256.956Z" fill="black"/>
<path d="M360.128 265.485H315.721V389.75H360.128V265.485Z" fill="#AFB1B2"/>
<path d="M367.074 265.485H322.667V389.75H367.074V265.485Z" fill="#E1251B"/>
<path d="M316.646 228.197H382.09C384.961 228.197 387.297 230.484 387.297 233.296V327.597C387.297 330.409 384.961 332.695 382.09 332.695V331.583C384.333 331.583 386.165 329.791 386.165 327.597V233.296C386.165 231.102 384.333 229.309 382.09 229.309H316.646V228.197Z" fill="black"/>
<path d="M422.02 388.514H24V396.342H422.02V388.514Z" fill="black"/>
<path d="M222.994 373.259L219.012 360.311L207.104 362.866L209.317 373.465C213.876 373.341 218.435 373.269 222.994 373.259Z" fill="#6B6B6B"/>
<path d="M228.696 355.604C223.221 353.739 211.283 355.769 211.16 355.789L211.077 355.8H210.985L180.512 354.78L182.879 374.856L211.921 366.522L212.271 366.811C212.703 367.171 222.964 375.504 234.891 366.141L235.19 365.904L244.267 367.346L244.452 367.8C245.193 369.643 247.859 374.773 250.185 374.114C250.452 374.042 250.545 373.908 250.606 373.733C251.255 371.848 247.797 366.059 246.243 363.958C245.451 363.206 236.6 359.085 228.696 355.604Z" fill="white"/>
<path d="M160.001 202.94L144.306 204.928L140.107 219.967L127.12 276.764C127.12 276.764 119.37 383.57 127.675 388.648C137.041 394.375 187.963 374.268 187.963 374.268L183.671 354.059L152.426 348.795L170.117 265.845L160.001 202.94Z" fill="#FBFBFB"/>
<path d="M131.216 389.256C129.765 389.369 128.54 389.379 127.583 389.256C125.957 389.06 121.007 388.452 123.672 318.759C124.166 305.832 126.369 276.661 126.369 276.661L127.542 276.774C127.542 276.774 125.329 307.799 124.907 318.8C122.479 382.406 126.461 387.855 127.737 388.019C137.772 389.256 181.85 375.525 187.232 373.836L183.157 354.666C178.083 354.584 153.867 349.846 152.416 348.785L153.404 347.775C153.353 348.579 173.709 353.317 183.671 353.43L184.165 353.441L188.673 374.68L188.138 374.855C186.296 375.443 146.437 388.081 131.216 389.256Z" fill="black" stroke="black" stroke-width="0.5" stroke-miterlimit="10"/>
<path d="M246.366 358.993C244.627 358.426 240.603 357.932 237.341 357.592C242.209 359.827 247.056 362.186 247.622 362.948C247.673 363.01 251.43 368.253 252.232 372.013L252.294 371.992C252.582 372.744 252.994 372.806 253.313 372.795C254.25 372.734 255.34 371.776 255.526 371.343C254.106 367.305 249.227 359.93 246.366 358.993Z" fill="white"/>
<path d="M235.581 355.686C239.039 356.006 244.627 356.613 246.902 357.355C250.606 358.56 255.824 366.914 257.172 370.859C257.594 371.879 258.757 371.827 259.097 371.776C259.941 371.673 260.558 371.199 260.61 370.828C260.651 369.376 254.589 360.157 251.615 357.602C250.143 356.356 242.538 355.82 235.581 355.686Z" fill="white"/>
<path d="M254.692 358.365C256.997 361.094 260.054 365.441 261.495 368.407C262.997 368.583 263.697 368.356 263.841 368.098C263.892 367.995 264.304 366.976 261.258 363.278C258.839 360.352 256.421 358.993 254.692 358.365Z" fill="white"/>
<path d="M252.438 356.098C251.296 355.449 246.5 353.636 229.159 353.945C223.355 352.06 212.147 353.863 210.943 354.069L178.546 352.988L181.386 377.07L211.52 368.418C213.609 369.932 224.024 376.596 235.632 367.728L243.011 368.902C243.783 370.653 246.438 376.102 249.907 375.906C250.143 375.896 250.38 375.855 250.627 375.783C251.399 375.566 251.944 375.051 252.201 374.32C252.562 374.464 252.953 374.536 253.375 374.516C253.694 374.495 254.044 374.423 254.394 374.299C255.124 374.042 255.968 373.475 256.544 372.806C257.183 373.31 258.026 373.558 258.973 373.506C259.076 373.496 259.189 373.486 259.292 373.475C260.887 373.269 262.122 372.28 262.297 371.055C262.328 370.828 262.277 370.519 262.184 370.169C262.411 370.179 262.637 370.179 262.843 370.169C264.088 370.097 264.911 369.685 265.333 368.912C266.095 367.522 265.22 365.379 262.575 362.165C258.171 356.819 253.591 356.181 252.438 356.098ZM250.596 373.753C250.534 373.929 250.442 374.052 250.174 374.135C247.848 374.794 245.183 369.664 244.442 367.82L244.257 367.367L235.18 365.925L234.881 366.162C222.953 375.525 212.693 367.192 212.261 366.831L211.911 366.543L182.868 374.876L180.501 354.8L210.974 355.82H211.067L211.149 355.81C211.273 355.789 223.211 353.77 228.686 355.624C236.6 359.096 245.44 363.226 246.222 363.999C247.786 366.08 251.244 371.868 250.596 373.753ZM253.303 372.795C252.994 372.795 252.572 372.734 252.284 371.992L252.222 372.013C251.419 368.253 247.663 363.01 247.612 362.948C247.056 362.186 242.198 359.827 237.33 357.592C240.593 357.921 244.617 358.426 246.356 358.993C249.217 359.92 254.095 367.305 255.505 371.343C255.32 371.776 254.239 372.744 253.303 372.795ZM259.097 371.776C258.757 371.827 257.594 371.879 257.172 370.859C255.824 366.914 250.596 358.55 246.901 357.355C244.627 356.613 239.049 356.006 235.581 355.686C242.538 355.82 250.143 356.356 251.615 357.612C254.589 360.157 260.651 369.376 260.61 370.838C260.558 371.199 259.93 371.673 259.097 371.776ZM263.841 368.098C263.707 368.356 263.007 368.583 261.495 368.407C260.044 365.441 256.997 361.094 254.692 358.364C256.431 358.993 258.85 360.342 261.258 363.278C264.304 366.976 263.893 367.995 263.841 368.098Z" fill="black"/>
<path d="M145.501 357.169L144.41 356.109L152.807 347.487L168.347 268.173L169.84 268.482L154.207 348.239L145.501 357.169Z" fill="black" stroke="black" stroke-width="0.5" stroke-miterlimit="10"/>
<path d="M179.647 375.896C179.688 375.896 192.542 372.085 192.542 372.085L188.663 355.058L175.14 354.316L179.647 375.896Z" fill="#FBFBFB"/>
<path d="M163.798 297.354L125.309 299.579L126.76 285.272L165.219 289.433L163.798 297.354Z" fill="black"/>
<path d="M132.276 204.711C134.736 200.838 137.947 197.553 141.682 194.998C142.506 196.193 143.226 197.542 143.844 198.82C145.367 201.941 149.236 198.109 150.399 201.374C152.53 207.338 157.891 196.955 159.991 202.94C162.8 210.954 167.215 226.013 169.84 234.109C171.342 238.744 174.327 256.863 175.057 261.694C175.459 264.393 174.502 275.373 175.068 278.03L165.95 293.77L124.043 289.567L132.276 204.711Z" fill="#E1251B"/>
<path d="M164.673 294.738L170.241 269.945L168.728 269.419L163.161 294.223L164.673 294.738Z" fill="black"/>
<path d="M387.308 131.248H280.853C276.376 131.248 272.754 127.623 272.754 123.142C272.754 118.661 276.376 115.035 280.853 115.035H387.308C391.784 115.035 395.407 118.661 395.407 123.142C395.407 127.623 391.774 131.248 387.308 131.248Z" fill="#E2E2E2"/>
<path d="M350.084 131.248H272.013C267.536 131.248 263.914 127.623 263.914 123.142C263.914 118.661 267.536 115.035 272.013 115.035H350.084C354.56 115.035 358.183 118.661 358.183 123.142C358.183 127.623 354.56 131.248 350.084 131.248Z" fill="#E1251B"/>
<path d="M314.361 103.973L318.223 94.1853V94.1353H314.777C314.71 94.1353 314.677 94.1686 314.677 94.2352V95.6501C314.677 95.761 314.622 95.8165 314.511 95.8165H313.512C313.401 95.8165 313.346 95.761 313.346 95.6501V93.0035C313.346 92.8925 313.401 92.837 313.512 92.837H319.554C319.665 92.837 319.721 92.8925 319.721 93.0035V94.0355C319.721 94.0799 319.71 94.1354 319.687 94.2019L315.792 104.006C315.748 104.106 315.676 104.156 315.576 104.156H314.461C314.339 104.156 314.305 104.095 314.361 103.973ZM322.051 101.942C322.04 101.842 322.084 101.775 322.184 101.742L323.199 101.493C323.299 101.459 323.366 101.498 323.399 101.609C323.71 102.563 324.381 103.041 325.413 103.041C326.012 103.041 326.484 102.857 326.828 102.491C327.183 102.114 327.361 101.631 327.361 101.043C327.361 100.411 327.172 99.9057 326.795 99.5284C326.417 99.14 325.913 98.9458 325.28 98.9458H324.781C324.67 98.9458 324.614 98.8903 324.614 98.7794V97.8139C324.614 97.703 324.67 97.6475 324.781 97.6475H325.263C325.829 97.6475 326.284 97.4755 326.628 97.1315C326.972 96.7875 327.144 96.327 327.144 95.7499C327.144 95.2173 326.978 94.7845 326.645 94.4516C326.323 94.1187 325.885 93.9523 325.33 93.9523C324.376 93.9523 323.776 94.4128 323.532 95.3338C323.499 95.4337 323.432 95.4781 323.333 95.467L322.334 95.2173C322.223 95.1951 322.178 95.1285 322.201 95.0175C322.323 94.3517 322.667 93.7913 323.233 93.3364C323.799 92.8814 324.514 92.6539 325.38 92.6539C326.368 92.6539 327.144 92.9369 327.71 93.5028C328.287 94.0688 328.576 94.8067 328.576 95.7166C328.576 96.7597 328.11 97.5698 327.178 98.1468V98.1801C327.588 98.3577 327.96 98.6961 328.293 99.1955C328.626 99.6838 328.792 100.283 328.792 100.993C328.792 101.981 328.476 102.785 327.843 103.407C327.211 104.028 326.401 104.339 325.413 104.339C324.525 104.339 323.782 104.117 323.183 103.673C322.595 103.229 322.217 102.652 322.051 101.942ZM332.57 104.172L339.145 92.8204C339.212 92.7094 339.301 92.6539 339.412 92.6539H340.211C340.333 92.6539 340.36 92.7094 340.294 92.8204L333.719 104.172C333.652 104.283 333.569 104.339 333.469 104.339H332.67C332.615 104.339 332.576 104.322 332.554 104.289C332.543 104.256 332.548 104.217 332.57 104.172ZM334.451 98.3299C334.118 98.5519 333.719 98.6628 333.253 98.6628C332.787 98.6628 332.382 98.5519 332.038 98.3299C331.705 98.0969 331.472 97.7806 331.339 97.3812C331.25 97.1037 331.206 96.5378 331.206 95.6834C331.206 94.8289 331.25 94.263 331.339 93.9855C331.472 93.5861 331.705 93.2753 332.038 93.0534C332.382 92.8204 332.787 92.7039 333.253 92.7039C333.719 92.7039 334.118 92.8204 334.451 93.0534C334.795 93.2753 335.034 93.5861 335.167 93.9855C335.256 94.263 335.3 94.8289 335.3 95.6834C335.3 96.5378 335.256 97.1037 335.167 97.3812C335.034 97.7806 334.795 98.0969 334.451 98.3299ZM332.354 97.1148C332.487 97.5032 332.787 97.6974 333.253 97.6974C333.719 97.6974 334.019 97.5032 334.152 97.1148C334.207 96.9262 334.235 96.449 334.235 95.6834C334.235 94.9177 334.207 94.4405 334.152 94.2519C334.019 93.8635 333.719 93.6693 333.253 93.6693C332.787 93.6693 332.487 93.8635 332.354 94.2519C332.299 94.4405 332.271 94.9177 332.271 95.6834C332.271 96.449 332.299 96.9262 332.354 97.1148ZM337.697 103.024C337.608 102.746 337.564 102.181 337.564 101.326C337.564 100.472 337.608 99.9057 337.697 99.6283C337.83 99.2288 338.063 98.9181 338.396 98.6961C338.74 98.4631 339.145 98.3466 339.611 98.3466C340.077 98.3466 340.477 98.4631 340.81 98.6961C341.154 98.9181 341.392 99.2288 341.526 99.6283C341.614 99.9057 341.659 100.472 341.659 101.326C341.659 102.181 341.614 102.746 341.526 103.024C341.392 103.423 341.154 103.74 340.81 103.973C340.477 104.195 340.077 104.306 339.611 104.306C339.145 104.306 338.74 104.195 338.396 103.973C338.063 103.74 337.83 103.423 337.697 103.024ZM338.713 102.758C338.846 103.146 339.145 103.34 339.611 103.34C340.077 103.34 340.377 103.146 340.51 102.758C340.566 102.569 340.593 102.092 340.593 101.326C340.593 100.56 340.566 100.083 340.51 99.8946C340.377 99.5062 340.077 99.312 339.611 99.312C339.145 99.312 338.846 99.5062 338.713 99.8946C338.657 100.083 338.629 100.56 338.629 101.326C338.629 102.092 338.657 102.569 338.713 102.758Z" fill="#E1251B"/>
<path d="M359.634 212.025L361.26 208.76L361.301 208.677C361.496 208.275 361.363 207.802 360.992 207.565L358.43 205.917C358.388 205.886 358.347 205.855 358.316 205.824C358.069 205.597 357.966 205.237 358.09 204.907C358.749 202.991 359.026 200.972 358.903 198.943C358.903 198.861 358.903 198.778 358.924 198.696C358.996 198.397 359.212 198.15 359.51 198.057L361.939 197.305C362.258 197.202 362.484 196.924 362.536 196.605C362.546 196.512 362.546 196.399 362.526 196.296L361.805 192.639C361.713 192.186 361.291 191.877 360.838 191.929L357.472 192.299C357.143 192.33 356.824 192.176 356.649 191.898C356.392 191.486 356.124 191.094 355.826 190.703C355.27 189.971 354.663 189.312 354.015 188.715C353.747 188.468 353.654 188.086 353.788 187.736L355.044 184.543L355.105 184.378C355.27 183.966 355.095 183.492 354.694 183.297L351.328 181.649C350.917 181.453 350.423 181.587 350.176 181.968L348.344 184.821C348.138 185.141 347.757 185.295 347.397 185.192C345.864 184.821 344.289 184.677 342.715 184.79C342.313 184.811 341.953 184.564 341.83 184.183L340.924 181.309C340.79 180.866 340.348 180.619 339.905 180.701L336.231 181.422C335.799 181.504 335.5 181.916 335.552 182.349L335.984 186.305C336.025 186.644 335.861 186.964 335.583 187.149C335.233 187.376 334.893 187.613 334.554 187.87C333.915 188.354 333.339 188.88 332.804 189.436C332.567 189.693 332.197 189.776 331.867 189.642L328.029 188.117C327.607 187.953 327.133 188.138 326.928 188.54L325.26 191.898C325.085 192.258 325.178 192.681 325.466 192.938C325.497 192.959 325.528 192.99 325.569 193.01L328.739 195.039C329.037 195.225 329.192 195.565 329.13 195.915C329.13 195.946 329.12 195.977 329.109 196.008C329.089 196.1 329.058 196.183 329.048 196.275C328.78 197.326 328.636 198.408 328.605 199.489C328.595 199.85 328.358 200.169 327.998 200.282L324.962 201.24C324.53 201.374 324.272 201.817 324.365 202.26L324.519 203.074L325.085 205.917C325.168 206.36 325.59 206.669 326.043 206.617L329.356 206.246C329.706 206.205 330.046 206.39 330.211 206.71C330.632 207.544 331.137 208.358 331.723 209.13C332.166 209.707 332.639 210.243 333.133 210.737L332.866 211.407L331.785 214.157C331.651 214.497 331.744 214.878 332.012 215.115C332.063 215.167 332.125 215.208 332.197 215.239L335.552 216.918C335.953 217.113 336.427 216.969 336.674 216.609L337.919 214.652C338.125 214.322 338.547 214.167 338.917 214.291C340.461 214.806 342.066 215.074 343.672 215.084C344.052 215.084 344.382 215.331 344.485 215.682L345.627 219.318C345.761 219.719 346.173 219.967 346.584 219.884L350.289 219.153C350.732 219.07 351.03 218.658 350.979 218.226L350.526 214.106C350.485 213.755 350.67 213.415 350.979 213.24C351.648 212.88 352.306 212.447 352.934 211.963C353.274 211.706 353.603 211.427 353.912 211.149C354.159 210.933 354.509 210.861 354.807 210.985L358.491 212.437C358.944 212.622 359.418 212.437 359.634 212.025ZM350.783 195.729C351.298 196.595 351.689 197.594 351.925 198.717C351.977 198.954 352.008 199.232 352.018 199.51C352.08 200.746 351.802 202.26 351.318 203.228C347.613 210.583 337.507 209.316 335.655 201.415C335.624 201.281 335.593 201.158 335.572 201.024C335.325 199.788 335.593 197.831 336.149 196.708C336.437 196.111 336.776 195.575 337.137 195.091C340.8 190.26 347.829 190.806 350.783 195.729Z" fill="#AFB1B2"/>
<path d="M387.822 195.184L389.458 193.144L389.499 193.093C389.695 192.845 389.674 192.485 389.448 192.269L387.904 190.723C387.884 190.703 387.853 190.672 387.832 190.641C387.698 190.445 387.678 190.178 387.812 189.972C388.563 188.735 389.067 187.355 389.283 185.923C389.294 185.862 389.314 185.81 389.335 185.759C389.427 185.563 389.623 185.419 389.839 185.398L391.65 185.244C391.887 185.223 392.093 185.058 392.175 184.852C392.196 184.79 392.216 184.718 392.216 184.636L392.268 181.968C392.278 181.638 392.031 181.36 391.691 181.319L389.283 181.072C389.047 181.051 388.841 180.886 388.769 180.66C388.655 180.341 388.522 180.021 388.378 179.702C388.1 179.105 387.77 178.548 387.41 178.033C387.256 177.817 387.256 177.539 387.4 177.312L388.769 175.262L388.841 175.159C389.016 174.902 388.964 174.541 388.717 174.335L386.638 172.667C386.381 172.461 386.021 172.481 385.784 172.718L384.065 174.438C383.88 174.634 383.582 174.675 383.345 174.562C382.337 174.068 381.246 173.728 380.134 173.563C379.846 173.522 379.63 173.285 379.609 172.996L379.414 170.843C379.383 170.514 379.115 170.267 378.786 170.267L376.11 170.215C375.791 170.205 375.524 170.452 375.493 170.761L375.194 173.594C375.174 173.831 375.009 174.037 374.783 174.129C374.505 174.232 374.227 174.346 373.949 174.48C373.434 174.727 372.94 174.995 372.488 175.304C372.282 175.448 372.014 175.448 371.798 175.304L369.349 173.656C369.081 173.48 368.721 173.532 368.515 173.779L366.838 175.87C366.663 176.097 366.663 176.406 366.827 176.632C366.848 176.653 366.869 176.684 366.889 176.704L368.793 178.61C368.968 178.785 369.03 179.053 368.937 179.28C368.927 179.3 368.927 179.321 368.906 179.341C368.875 179.403 368.844 179.455 368.824 179.517C368.484 180.207 368.217 180.948 368.021 181.7C367.959 181.958 367.743 182.143 367.476 182.164L365.201 182.37C364.882 182.401 364.635 182.668 364.625 182.988L364.615 183.585L364.574 185.656C364.563 185.985 364.81 186.253 365.129 186.294L367.507 186.541C367.764 186.562 367.97 186.747 368.031 186.995C368.196 187.644 368.433 188.293 368.721 188.921C368.937 189.384 369.194 189.838 369.462 190.26L369.174 190.693L368.001 192.454C367.857 192.67 367.867 192.959 368.011 193.154C368.042 193.196 368.083 193.237 368.124 193.268L370.213 194.957C370.46 195.153 370.82 195.132 371.047 194.905L372.22 193.731C372.416 193.536 372.735 193.494 372.971 193.639C373.97 194.236 375.05 194.669 376.182 194.916C376.45 194.978 376.645 195.194 376.666 195.462L376.913 198.181C376.944 198.49 377.191 198.717 377.5 198.727L380.206 198.778C380.525 198.789 380.793 198.542 380.824 198.233L381.132 195.287C381.153 195.029 381.338 194.823 381.585 194.751C382.11 194.596 382.635 194.401 383.15 194.154C383.427 194.02 383.695 193.886 383.952 193.731C384.158 193.618 384.405 193.618 384.611 193.752L386.968 195.328C387.246 195.493 387.616 195.431 387.822 195.184ZM384.117 182.432C384.343 183.111 384.467 183.874 384.457 184.698C384.457 184.873 384.436 185.069 384.405 185.275C384.261 186.15 383.839 187.17 383.355 187.767C379.64 192.351 372.766 189.92 372.673 184.111C372.673 184.018 372.673 183.915 372.673 183.822C372.693 182.916 373.177 181.597 373.733 180.886C374.031 180.516 374.34 180.186 374.669 179.908C377.963 177.075 382.789 178.538 384.117 182.432Z" fill="#E1251B"/>
<path d="M86.9011 304.307C82.3008 296.345 84.9148 285.19 94.6711 271.16C109.532 249.797 132.564 228.877 161.143 210.295C161.102 209.635 161.802 209.244 162.286 209.563C162.625 209.347 162.975 209.12 163.325 208.904C162.955 208.698 162.594 208.482 162.224 208.286C162.172 208.255 162.131 208.214 162.09 208.173C132.657 227.084 108.925 248.489 93.714 270.367C83.6387 284.86 81.0041 296.5 85.8925 304.967C93.0862 317.42 116.067 322.838 154.197 321.046C164.838 320.551 175.243 319.531 184.083 318.45C198.717 316.658 209.091 314.701 209.256 314.67L209.029 313.392C207.959 313.609 103.532 333.118 86.9011 304.307Z" fill="#E1251B"/>
<path d="M87.4569 308.52C82.7948 300.568 85.4809 289.402 95.4327 275.352C110.088 254.659 132.533 234.367 160.32 216.186C160.371 215.64 160.423 215.084 160.505 214.538C132.204 232.935 109.347 253.536 94.455 274.559C84.1739 289.083 81.4673 300.733 86.4277 309.19C93.714 321.633 117.086 326.999 155.874 325.135C166.701 324.609 177.28 323.569 186.275 322.467C201.167 320.644 211.715 318.666 211.89 318.635L211.664 317.358C210.583 317.564 104.314 337.289 87.4569 308.52Z" fill="#E1251B"/>
<path d="M401.499 359.724C398.422 360.981 395.334 362.237 392.257 363.494C391.66 363.741 391.218 364.287 391.403 364.967C391.557 365.533 392.267 366.069 392.875 365.822C395.952 364.565 399.039 363.309 402.116 362.052C402.713 361.805 403.156 361.259 402.971 360.579C402.827 360.012 402.106 359.477 401.499 359.724Z" fill="black"/>
<path d="M385.866 346.508C385.763 349.835 385.65 353.163 385.547 356.49C385.527 357.139 385.846 357.757 386.546 357.87C387.122 357.963 387.904 357.52 387.925 356.871C388.028 353.544 388.141 350.217 388.244 346.89C388.264 346.241 387.945 345.623 387.245 345.509C386.659 345.406 385.887 345.849 385.866 346.508Z" fill="black"/>
<path d="M398.865 346.529C396.055 350.546 393.245 354.563 390.446 358.581C389.561 359.858 391.63 361.073 392.515 359.817C395.324 355.799 398.134 351.782 400.933 347.765C401.828 346.488 399.75 345.262 398.865 346.529Z" fill="black"/>
</svg>
