<svg width="500" height="500" viewBox="0 0 500 500" fill="none" xmlns="http://www.w3.org/2000/svg">
<rect width="500" height="500" fill="white"/>
<path d="M89.9312 254.721C83.2712 287.931 85.2012 324.401 102.171 353.741C118.631 382.201 147.131 400.851 176.061 414.931C221.881 437.231 276.031 450.571 321.991 429.881C351.351 416.671 373.631 391.241 394.151 365.821C414.301 340.851 433.651 315.181 452.161 288.871C466.891 267.931 481.621 245.031 482.691 218.971C484.411 177.211 450.181 141.951 413.371 124.411C376.561 106.871 335.531 101.111 298.521 84.0511C276.441 73.8811 254.901 59.4711 230.871 59.0111C156.371 57.5911 102.391 192.561 89.9312 254.721Z" fill="#F6F6F6"/>
<path d="M194.441 144.791C198.831 143.991 201.931 142.061 203.701 139.001C206.541 134.091 205.711 126.871 203.621 119.851L193.981 98.8611L189.941 100.941L166.371 101.221L171.951 142.741L174.271 169.721C181.151 175.141 194.071 170.701 196.981 169.601L193.731 155.161C192.161 155.631 185.001 157.201 184.281 146.501C183.931 146.471 183.601 146.441 183.241 146.391L183.371 144.791C187.681 145.351 191.381 145.341 194.441 144.791Z" fill="white"/>
<path d="M318.261 272.571L322.631 275.091C298.361 293.291 261.101 319.231 255.911 317.581C250.751 315.931 244.691 278.111 241.851 252.841L259.931 242.311L270.151 283.411L318.261 272.571Z" fill="white"/>
<path d="M261.591 248.961L259.941 242.321L241.861 252.851C242.461 258.151 243.191 264.001 244.031 269.961C250.711 264.871 255.931 255.161 261.591 248.961Z" fill="black"/>
<path d="M229.791 180.481C229.791 180.481 248.111 206.851 263.821 243.191L237.681 258.221L229.791 180.481Z" fill="#E1251B"/>
<path d="M322.631 275.091L318.261 272.571L270.151 283.421L259.931 242.321L241.851 252.851C244.691 278.121 250.751 315.941 255.911 317.591C261.101 319.241 298.371 293.291 322.631 275.091ZM324.801 274.961L324.081 275.501C318.031 280.051 266.151 318.831 256.301 318.831C256.001 318.831 255.761 318.801 255.541 318.731C247.961 316.301 241.341 259.101 240.611 252.591L240.571 252.211L260.701 240.481L271.031 282.001L318.461 271.301L324.801 274.961Z" fill="black"/>
<path d="M198.251 164.341C196.771 161.501 181.271 160.891 166.311 159.611C166.311 159.611 158.051 368.121 184.671 406.101C184.671 406.101 229.811 411.981 245.821 410.091C245.821 410.101 224.081 213.821 198.251 164.341Z" fill="#AFB1B2"/>
<path d="M177.971 196.011C201.761 200.691 216.931 196.431 217.811 196.181L216.591 191.131L217.201 193.651L216.601 191.121C216.321 191.201 187.711 199.131 147.781 180.471L145.691 185.271C157.581 190.841 168.471 194.141 177.971 196.011Z" fill="white"/>
<path d="M181.781 223.341C208.931 228.691 226.241 223.831 227.241 223.541L226.031 218.491C225.701 218.581 192.841 227.701 146.971 206.271L144.881 211.071C158.471 217.431 170.911 221.201 181.781 223.341Z" fill="white"/>
<path d="M192.221 255.731C219.371 261.081 236.681 256.221 237.681 255.931L236.471 250.881C236.141 250.971 203.281 260.091 157.411 238.661L155.321 243.461C168.911 249.811 181.351 253.591 192.221 255.731Z" fill="white"/>
<path d="M193.041 279.321C220.191 284.671 237.501 279.811 238.501 279.521L237.291 274.471C236.961 274.561 204.101 283.681 158.231 262.251L156.141 267.051C169.741 273.411 182.181 277.181 193.041 279.321Z" fill="white"/>
<path d="M191.391 309.401C218.541 314.751 235.851 309.891 236.851 309.601L235.641 304.551C235.311 304.641 202.451 313.761 156.581 292.331L154.491 297.131C168.091 303.481 180.531 307.261 191.391 309.401Z" fill="white"/>
<path d="M204.851 330.191C232.001 335.541 249.311 330.681 250.311 330.391L249.101 325.341C248.771 325.431 215.911 334.551 170.041 313.121L167.951 317.921C181.541 324.271 193.991 328.051 204.851 330.191Z" fill="white"/>
<path d="M208.961 359.811C236.111 365.161 253.421 360.301 254.421 360.011L253.211 354.961C252.881 355.051 220.021 364.171 174.151 342.741L172.061 347.541C185.651 353.901 198.101 357.671 208.961 359.811Z" fill="white"/>
<path d="M210.271 399.221C237.421 404.571 254.731 399.711 255.731 399.421L254.521 394.371C254.191 394.461 221.331 403.581 175.461 382.151L173.371 386.951C186.971 393.301 199.411 397.081 210.271 399.221Z" fill="white"/>
<path d="M198.251 164.341C198.251 164.341 239.441 373.571 240.811 417.161L277.591 393.521C277.591 393.521 249.341 245.411 229.781 176.781C228.111 170.911 198.251 164.341 198.251 164.341Z" fill="#E1251B"/>
<path d="M223.971 284.731H224.961L226.851 204.411L215.571 195.911L217.171 169.951L216.181 169.911L214.551 196.441L225.851 204.951L223.971 284.731Z" fill="black"/>
<path d="M168.471 159.111C168.471 159.111 184.981 344.381 200.821 415.491L140.971 391.931C140.971 391.931 131.711 252.711 112.281 202.811C99.6309 170.361 168.471 159.111 168.471 159.111Z" fill="#E1251B"/>
<path d="M188.551 105.811C188.531 105.071 188.531 104.301 188.801 103.601C189.091 102.841 189.631 102.201 190.421 101.941C191.161 101.701 192.021 101.771 192.781 101.881C193.151 101.931 193.521 101.991 193.811 102.251C194.211 102.611 194.211 103.101 193.901 103.511C193.671 103.811 193.161 103.761 192.911 103.521C192.841 103.451 192.791 103.371 192.761 103.291C192.681 103.271 192.591 103.251 192.511 103.241C192.301 103.211 192.081 103.191 191.861 103.191C191.391 103.181 190.911 103.171 190.561 103.421C190.551 103.431 190.551 103.431 190.551 103.431C190.551 103.431 190.541 103.441 190.531 103.451C190.491 103.491 190.451 103.521 190.421 103.561C190.341 103.641 190.341 103.651 190.271 103.771C190.141 103.991 190.101 104.111 190.041 104.361C189.931 104.831 189.951 105.331 189.961 105.831C189.971 106.211 189.631 106.531 189.261 106.531C188.871 106.511 188.561 106.191 188.551 105.811Z" fill="black"/>
<path d="M170.311 141.911L140.961 112.911L151.681 100.291L159.411 101.401L151.511 96.3411C164.561 60.8311 199.561 61.9511 199.561 61.9511C205.481 74.2411 201.631 88.9111 198.901 96.3811C201.211 100.131 204.911 107.981 205.381 120.351C207.351 127.431 208.001 134.701 205.011 139.871C203.021 143.331 199.591 145.501 194.761 146.361L194.431 144.781C198.821 143.981 201.921 142.051 203.691 138.991C206.531 134.081 205.701 126.861 203.611 119.841L193.971 98.8511L189.931 100.931L182.691 101.011C183.421 101.411 184.101 101.901 184.691 102.491C185.331 103.121 184.431 104.181 183.791 103.551C182.561 102.331 180.981 101.551 179.251 101.351C178.321 101.241 177.441 101.411 176.771 102.121C176.131 102.801 175.861 103.691 175.751 104.601C175.641 105.491 174.281 105.221 174.381 104.331C174.531 103.081 175.051 101.911 175.881 101.081L166.361 101.191L171.941 142.711L174.261 169.691C181.141 175.111 194.061 170.671 196.971 169.571L198.461 169.251L198.761 170.581L198.171 170.831C198.041 170.881 197.391 171.161 196.341 171.531C191.771 173.131 179.871 176.461 173.061 170.711L172.791 170.481L170.421 142.831L170.311 141.911Z" fill="black"/>
<path d="M184.281 146.501C185.001 157.201 192.161 155.641 193.731 155.161L196.981 169.601L198.471 169.281L193.361 146.571C193.841 146.511 194.311 146.441 194.761 146.351L194.431 144.771C191.371 145.331 187.681 145.331 183.361 144.781L183.231 146.381C183.601 146.441 183.931 146.471 184.281 146.501Z" fill="black"/>
<path d="M194.991 124.801C195.001 124.801 195.011 124.791 195.021 124.791C195.161 124.731 198.471 123.411 200.001 121.571C201.581 119.671 196.761 114.291 192.441 110.101C192.121 109.791 191.641 109.801 191.361 110.131C191.081 110.451 191.111 110.961 191.431 111.271C195.551 115.261 199.001 119.591 198.811 120.541C197.551 122.031 194.481 123.271 194.451 123.281C194.061 123.441 193.871 123.901 194.041 124.321C194.181 124.721 194.611 124.931 194.991 124.801Z" fill="black"/>
<path d="M189.091 125.301C189.091 125.301 185.901 125.721 182.311 122.731C178.721 119.741 186.341 151.231 189.091 125.301Z" fill="black"/>
<path d="M181.781 127.441C184.161 128.981 186.151 131.231 187.401 133.841C185.391 138.741 182.781 132.421 181.781 127.441Z" fill="#E1251B"/>
<path d="M187.1 113.5C187.929 113.21 188.13 111.631 187.55 109.973C186.969 108.315 185.827 107.207 184.998 107.497C184.169 107.787 183.968 109.366 184.549 111.024C185.129 112.682 186.271 113.79 187.1 113.5Z" fill="black"/>
<path d="M196.77 112.841C197.599 112.551 197.8 110.972 197.22 109.314C196.639 107.657 195.497 106.548 194.668 106.838C193.839 107.129 193.638 108.708 194.218 110.365C194.799 112.023 195.941 113.131 196.77 112.841Z" fill="black"/>
<path d="M348.641 225.971H344.461L267.581 228.531C262.851 228.691 259.441 233.141 260.531 237.741L270.441 279.811L339.381 281.811L353.761 232.801C354.761 229.391 352.201 225.971 348.641 225.971Z" fill="#E1251B"/>
<path d="M334.051 258.571C340.115 258.571 345.031 253.655 345.031 247.591C345.031 241.527 340.115 236.611 334.051 236.611C327.987 236.611 323.071 241.527 323.071 247.591C323.071 253.655 327.987 258.571 334.051 258.571Z" fill="#AFB1B2"/>
<path d="M333.561 251.361C333.101 249.491 332.641 247.621 332.181 245.741C332.951 246.091 333.901 245.981 334.541 245.351C335.311 244.601 335.611 242.791 334.311 242.391C333.921 242.271 333.561 242.341 333.211 242.501C333.631 241.861 334.051 241.211 334.471 240.571C334.711 240.201 334.111 239.851 333.871 240.221C332.831 241.811 331.801 243.401 330.761 245.001C330.041 245.941 329.401 246.941 328.821 247.971C328.601 248.361 329.181 248.691 329.421 248.321C330.061 247.341 330.701 246.361 331.341 245.381C331.351 245.371 331.361 245.351 331.371 245.341C331.881 247.401 332.381 249.471 332.891 251.531C332.991 251.961 333.661 251.791 333.561 251.361ZM334.251 243.141C334.681 243.481 334.511 244.221 334.261 244.611C333.691 245.481 332.531 245.421 331.901 244.671C332.041 244.501 332.181 244.331 332.331 244.161C332.611 243.841 332.901 243.511 333.271 243.281C333.541 243.101 333.961 242.911 334.251 243.141Z" fill="white"/>
<path d="M333.011 255.061C333.551 253.861 334.101 252.661 334.641 251.471C334.691 251.351 334.751 251.241 334.801 251.121C335.561 251.231 336.331 251.241 337.041 250.881C337.871 250.471 338.441 249.571 338.131 248.641C337.851 247.791 336.961 247.311 336.121 247.731C336.001 247.791 335.891 247.861 335.791 247.941C335.801 247.911 335.811 247.881 335.821 247.851C335.981 247.431 335.311 247.251 335.151 247.671L334.131 250.281C334.101 250.271 334.071 250.271 334.041 250.261C333.611 250.161 333.421 250.831 333.861 250.931C333.871 250.931 333.881 250.931 333.881 250.931C333.381 252.211 332.881 253.501 332.371 254.781C332.231 255.161 332.841 255.421 333.011 255.061ZM337.421 248.741C337.621 249.171 337.491 249.621 337.161 249.951C336.601 250.511 335.831 250.561 335.081 250.471C335.201 250.211 335.321 249.941 335.441 249.681C335.651 249.221 335.911 248.671 336.361 248.401C336.781 248.141 337.231 248.321 337.421 248.741Z" fill="white"/>
<path d="M341.971 251.901C342.261 251.561 341.771 251.071 341.481 251.411C340.451 252.631 339.231 253.681 337.841 254.481C337.141 254.891 336.411 255.231 335.651 255.511C334.971 255.761 334.241 255.991 333.501 255.941C332.051 255.851 330.711 254.691 329.771 253.671C328.731 252.551 327.951 251.191 327.521 249.721C326.741 247.091 327.141 244.171 328.551 241.821C329.331 240.521 330.451 239.301 331.891 238.751C333.271 238.221 334.811 238.331 336.221 238.701C337.761 239.101 339.261 239.851 340.301 241.091C341.291 242.271 341.771 243.901 341.351 245.411C341.231 245.841 341.901 246.031 342.021 245.591C342.881 242.471 340.601 239.681 337.851 238.521C336.401 237.911 334.761 237.571 333.191 237.741C331.491 237.921 330.041 238.811 328.941 240.101C326.981 242.381 326.111 245.511 326.541 248.481C326.771 250.121 327.421 251.711 328.381 253.061C329.311 254.371 330.581 255.611 332.061 256.281C333.791 257.061 335.601 256.391 337.211 255.621C339.041 254.721 340.671 253.451 341.971 251.901Z" fill="white"/>
<path d="M310.761 233.011C316.825 233.011 321.741 228.095 321.741 222.031C321.741 215.967 316.825 211.051 310.761 211.051C304.697 211.051 299.781 215.967 299.781 222.031C299.781 228.095 304.697 233.011 310.761 233.011Z" fill="#AFB1B2"/>
<path d="M310.271 225.791C309.811 223.921 309.351 222.051 308.891 220.171C309.661 220.521 310.611 220.411 311.251 219.781C312.021 219.031 312.321 217.221 311.021 216.821C310.631 216.701 310.271 216.771 309.921 216.931C310.341 216.291 310.761 215.641 311.181 215.001C311.421 214.631 310.821 214.281 310.581 214.651C309.541 216.241 308.511 217.831 307.471 219.431C306.751 220.371 306.111 221.371 305.531 222.401C305.311 222.791 305.891 223.121 306.131 222.751C306.771 221.771 307.411 220.791 308.051 219.811C308.061 219.801 308.071 219.781 308.081 219.771C308.591 221.831 309.091 223.901 309.601 225.961C309.701 226.401 310.381 226.231 310.271 225.791ZM310.971 217.571C311.401 217.911 311.231 218.651 310.981 219.041C310.411 219.911 309.251 219.851 308.621 219.101C308.761 218.931 308.901 218.761 309.051 218.591C309.331 218.271 309.621 217.941 309.991 217.711C310.261 217.541 310.671 217.341 310.971 217.571Z" fill="white"/>
<path d="M309.721 229.501C310.261 228.301 310.811 227.101 311.351 225.911C311.401 225.791 311.461 225.681 311.511 225.561C312.271 225.671 313.041 225.681 313.751 225.321C314.581 224.911 315.151 224.011 314.841 223.081C314.561 222.231 313.671 221.751 312.831 222.171C312.711 222.231 312.601 222.301 312.501 222.381C312.511 222.351 312.521 222.321 312.531 222.291C312.691 221.871 312.021 221.691 311.861 222.111L310.841 224.721C310.811 224.711 310.781 224.711 310.751 224.701C310.321 224.601 310.131 225.271 310.571 225.371C310.581 225.371 310.591 225.371 310.591 225.371C310.091 226.651 309.591 227.941 309.081 229.221C308.941 229.601 309.561 229.861 309.721 229.501ZM314.141 223.181C314.341 223.611 314.211 224.061 313.881 224.391C313.321 224.951 312.551 225.001 311.801 224.911C311.921 224.651 312.041 224.381 312.161 224.121C312.371 223.661 312.631 223.111 313.081 222.841C313.501 222.581 313.941 222.751 314.141 223.181Z" fill="white"/>
<path d="M318.681 226.341C318.971 226.001 318.481 225.511 318.191 225.851C317.161 227.071 315.941 228.121 314.551 228.921C313.851 229.331 313.121 229.671 312.361 229.951C311.681 230.201 310.951 230.431 310.211 230.381C308.761 230.291 307.421 229.131 306.481 228.111C305.441 226.991 304.661 225.631 304.231 224.161C303.451 221.531 303.851 218.611 305.261 216.261C306.041 214.961 307.161 213.741 308.601 213.191C309.981 212.661 311.521 212.771 312.931 213.141C314.471 213.541 315.971 214.291 317.011 215.531C318.001 216.711 318.481 218.341 318.061 219.851C317.941 220.281 318.611 220.471 318.731 220.031C319.591 216.911 317.311 214.121 314.561 212.961C313.111 212.351 311.471 212.011 309.901 212.181C308.201 212.361 306.751 213.251 305.651 214.541C303.691 216.821 302.821 219.951 303.251 222.921C303.481 224.561 304.131 226.151 305.091 227.501C306.021 228.811 307.291 230.051 308.771 230.721C310.501 231.501 312.311 230.831 313.921 230.061C315.751 229.161 317.381 227.891 318.681 226.341Z" fill="white"/>
<path d="M339.371 281.821L321.311 226.521C320.651 224.501 318.721 223.161 316.601 223.241L263.391 225.401C260.401 225.521 258.271 228.341 258.951 231.241L270.431 279.811L339.371 281.821Z" fill="#AFB1B2"/>
<path d="M330.121 253.491L347.971 252.531L339.371 281.821L330.121 253.491Z" fill="black"/>
<path d="M299.121 281.351C299.311 281.361 300.441 281.531 301.531 281.691C305.441 282.261 307.501 282.521 308.221 282.421C310.481 282.511 311.251 283.241 311.271 283.421C311.251 283.441 311.141 283.531 310.871 283.561C304.731 284.421 293.501 284.431 293.431 284.441C281.891 283.721 270.771 279.301 270.651 279.251L270.341 279.121L270.071 279.331C269.371 279.861 199.201 332.561 154.141 334.841C145.261 335.291 137.671 332.421 131.591 326.311C112.081 306.731 113.351 259.541 113.571 254.251L145.521 248.961C145.591 255.271 146.791 298.111 165.051 299.591C183.951 301.151 261.381 267.971 264.671 266.561L265.271 266.301L264.961 265.721C263.761 263.471 263.411 260.831 264.051 258.651C264.381 257.531 264.911 256.491 265.461 255.391C265.801 254.701 266.161 253.991 266.471 253.261C267.421 250.981 267.851 248.461 267.701 245.991L267.651 245.341C267.521 243.411 267.381 241.411 268.781 240.491C269.471 240.041 270.411 240.011 271.231 240.391C272.851 241.141 273.511 242.891 273.781 244.221C274.671 248.611 274.341 253.161 272.881 256.711L272.741 257.051L272.971 257.331C278.501 263.971 288.291 266.261 296.261 262.741C298.101 261.921 299.811 260.831 301.471 259.771C303.151 258.701 304.891 257.581 306.741 256.801C307.951 256.281 309.211 256.101 310.411 256.291C311.551 256.461 311.721 256.911 311.741 257.361C311.761 257.831 311.551 258.331 311.181 258.741C307.111 263.201 300.291 268.151 294.231 269.131L294.421 270.311C295.121 270.201 295.831 270.021 296.531 269.821C297.741 270.331 299.351 270.021 300.241 269.771C302.801 269.061 306.031 267.641 308.621 266.501C309.841 265.971 310.991 265.471 311.861 265.121C312.181 264.991 312.551 264.841 312.931 264.671C314.211 264.121 316.151 263.291 316.881 263.611C316.961 263.651 317.061 263.711 317.111 263.891C317.331 264.551 317.171 265.291 316.631 266.111C313.961 270.091 303.871 274.001 297.481 274.421L297.561 275.611C299.191 275.511 301.041 275.191 302.961 274.701C305.901 275.191 311.251 274.731 314.031 274.201C314.871 274.041 315.741 273.911 316.531 274.151C317.151 274.341 317.781 274.931 317.751 275.571C317.731 276.121 317.291 276.661 316.361 277.261C313.471 279.131 311.401 279.231 308.271 279.371C307.611 279.401 306.911 279.431 306.161 279.491C304.691 279.591 303.611 279.741 302.651 279.871C300.791 280.121 299.451 280.291 296.651 279.961L296.511 281.151C297.541 281.291 298.371 281.351 299.121 281.351Z" fill="white"/>
<path d="M145.521 248.961L113.571 254.251C113.481 256.331 113.241 264.901 114.161 275.731C124.541 270.441 135.281 265.851 146.281 262.001C145.661 255.821 145.541 250.821 145.521 248.961Z" fill="black"/>
<path d="M114.661 183.661C114.661 183.661 96.691 199.511 105.131 269.021L151.271 259.261C151.261 259.251 161.821 159.961 114.661 183.661Z" fill="#E1251B"/>
<path d="M295.771 261.641C297.531 260.861 299.201 259.801 300.821 258.771C302.541 257.671 304.331 256.531 306.261 255.701C307.681 255.091 309.171 254.891 310.581 255.101C312.471 255.391 312.901 256.471 312.931 257.321C312.961 258.121 312.661 258.911 312.071 259.551C308.971 262.941 304.311 266.611 299.541 268.721C299.671 268.691 299.791 268.661 299.921 268.621C302.401 267.921 305.591 266.521 308.151 265.401C309.371 264.861 310.541 264.351 311.431 264.001C311.741 263.881 312.091 263.731 312.471 263.571C314.201 262.831 316.171 261.981 317.391 262.521C317.811 262.711 318.121 263.061 318.271 263.511C318.621 264.531 318.411 265.641 317.651 266.781C315.851 269.481 311.181 272.041 306.301 273.721C308.931 273.701 311.971 273.381 313.841 273.031C314.781 272.851 315.871 272.691 316.911 273.011C317.981 273.351 319.041 274.351 318.981 275.641C318.921 276.921 317.841 277.761 317.031 278.281C313.881 280.331 311.551 280.431 308.341 280.591C307.691 280.621 307.001 280.651 306.261 280.711C305.561 280.761 304.951 280.811 304.391 280.881C306.061 281.101 307.701 281.301 308.061 281.231L308.211 281.211C311.081 281.311 312.431 282.361 312.481 283.371C312.511 283.911 312.151 284.591 311.061 284.751C304.841 285.611 293.531 285.631 293.411 285.631C282.731 284.971 272.461 281.221 270.551 280.491C265.721 284.081 198.241 333.811 154.221 336.041C153.601 336.071 152.981 336.091 152.361 336.091C143.921 336.091 136.661 333.091 130.751 327.161C109.801 306.121 112.381 254.231 112.401 253.711L112.431 253.231L146.731 247.551V248.261C146.731 248.741 146.971 296.921 165.171 298.401C182.931 299.841 256.301 268.841 263.631 265.711C262.501 263.301 262.241 260.641 262.911 258.331C263.271 257.111 263.851 255.971 264.401 254.861C264.741 254.201 265.081 253.511 265.371 252.811C266.251 250.701 266.651 248.371 266.511 246.081L266.471 245.451C266.331 243.381 266.151 240.811 268.141 239.511C269.161 238.841 270.551 238.771 271.751 239.321C273.821 240.281 274.651 242.391 274.971 244.001C275.881 248.481 275.571 253.131 274.141 256.851C279.281 262.771 288.511 264.841 295.771 261.641ZM300.241 269.781C299.351 270.031 297.741 270.341 296.531 269.831C295.831 270.031 295.111 270.211 294.421 270.321L294.231 269.141C300.291 268.161 307.111 263.211 311.181 258.751C311.551 258.341 311.761 257.851 311.741 257.371C311.721 256.911 311.551 256.471 310.411 256.301C309.211 256.121 307.941 256.291 306.741 256.811C304.891 257.591 303.151 258.711 301.471 259.781C299.811 260.841 298.101 261.931 296.261 262.751C288.291 266.261 278.501 263.981 272.971 257.341L272.741 257.061L272.881 256.721C274.351 253.171 274.671 248.621 273.781 244.231C273.521 242.901 272.851 241.161 271.231 240.401C270.411 240.021 269.471 240.061 268.781 240.501C267.381 241.421 267.521 243.421 267.651 245.351L267.701 246.001C267.841 248.471 267.421 250.991 266.471 253.271C266.171 254.001 265.811 254.711 265.461 255.401C264.911 256.501 264.381 257.541 264.051 258.661C263.421 260.841 263.761 263.481 264.961 265.731L265.271 266.311L264.671 266.571C261.381 267.981 183.951 301.161 165.051 299.601C146.791 298.121 145.591 255.281 145.521 248.971L113.571 254.261C113.351 259.541 112.081 306.741 131.591 326.321C137.671 332.441 145.261 335.301 154.141 334.851C199.201 332.571 269.361 279.871 270.071 279.341L270.341 279.131L270.651 279.261C270.761 279.311 281.881 283.731 293.431 284.451C293.501 284.441 304.731 284.431 310.871 283.571C311.141 283.541 311.251 283.451 311.271 283.431C311.251 283.251 310.481 282.521 308.221 282.431C307.501 282.531 305.441 282.271 301.531 281.701C300.441 281.541 299.311 281.371 299.121 281.371V281.361C298.371 281.351 297.531 281.301 296.511 281.181L296.651 279.991C299.441 280.331 300.791 280.151 302.651 279.901C303.601 279.771 304.691 279.631 306.161 279.521C306.911 279.461 307.621 279.431 308.271 279.401C311.411 279.261 313.471 279.161 316.361 277.291C317.291 276.691 317.731 276.151 317.751 275.601C317.781 274.961 317.161 274.371 316.531 274.181C315.751 273.941 314.871 274.071 314.031 274.231C311.241 274.761 305.901 275.211 302.961 274.731C301.051 275.221 299.191 275.541 297.561 275.641L297.481 274.451C303.871 274.031 313.961 270.121 316.631 266.141C317.171 265.321 317.331 264.581 317.111 263.921C317.051 263.741 316.961 263.681 316.881 263.641C316.141 263.311 314.211 264.141 312.931 264.701C312.551 264.871 312.181 265.021 311.861 265.151C310.991 265.491 309.831 266.001 308.621 266.531C306.031 267.651 302.801 269.071 300.241 269.781Z" fill="black"/>
<path d="M174.661 287.921L175.561 287.471L147.241 207.271L161.541 185.181L151.231 162.101L150.331 162.571L160.401 185.111L146.111 207.181L174.661 287.921Z" fill="black"/>
<path d="M305.551 112.681C311.041 112.681 315.491 108.231 315.491 102.741C315.491 97.2514 311.041 92.8011 305.551 92.8011C300.061 92.8011 295.611 97.2514 295.611 102.741C295.611 108.231 300.061 112.681 305.551 112.681Z" fill="#AFB1B2"/>
<path d="M308.291 104.811C306.611 104.331 304.931 103.861 303.251 103.381C303.871 102.931 304.211 102.141 304.001 101.351C303.751 100.411 302.461 99.3611 301.561 100.211C301.291 100.461 301.181 100.781 301.151 101.121C300.831 100.501 300.511 99.8811 300.191 99.2711C300.001 98.9111 299.461 99.2311 299.651 99.5911C300.441 101.121 301.231 102.651 302.021 104.181C302.441 105.171 302.931 106.121 303.491 107.031C303.701 107.381 304.221 107.071 304.031 106.711C303.541 105.771 303.061 104.831 302.571 103.891C302.561 103.881 302.561 103.861 302.551 103.851C304.401 104.371 306.251 104.901 308.101 105.421C308.511 105.531 308.681 104.921 308.291 104.811ZM302.131 100.591C302.591 100.401 303.101 100.871 303.291 101.241C303.721 102.081 303.151 102.971 302.281 103.131C302.211 102.941 302.141 102.751 302.071 102.561C301.941 102.191 301.811 101.821 301.801 101.431C301.791 101.131 301.821 100.721 302.131 100.591Z" fill="white"/>
<path d="M310.961 106.901C310.261 105.941 309.561 104.971 308.861 104.011C308.791 103.921 308.721 103.821 308.651 103.731C309.081 103.181 309.431 102.581 309.471 101.861C309.521 101.031 309.061 100.171 308.201 100.001C307.401 99.8411 306.621 100.331 306.591 101.181C306.581 101.301 306.591 101.421 306.611 101.531C306.591 101.511 306.581 101.491 306.561 101.471C306.311 101.161 305.861 101.601 306.121 101.911L307.721 103.881C307.701 103.901 307.681 103.921 307.661 103.951C307.391 104.251 307.831 104.701 308.101 104.391C308.101 104.381 308.111 104.381 308.111 104.371C308.901 105.341 309.681 106.311 310.471 107.281C310.691 107.561 311.171 107.191 310.961 106.901ZM307.961 100.601C308.391 100.641 308.691 100.941 308.801 101.341C308.991 102.031 308.691 102.661 308.281 103.211C308.131 103.001 307.971 102.791 307.821 102.571C307.551 102.201 307.241 101.751 307.221 101.271C307.211 100.831 307.541 100.561 307.961 100.601Z" fill="white"/>
<path d="M312.491 98.4311C312.351 98.0511 311.741 98.2211 311.881 98.6011C312.381 99.9611 312.661 101.391 312.671 102.841C312.681 103.571 312.621 104.311 312.501 105.031C312.391 105.681 312.241 106.361 311.881 106.911C311.161 108.011 309.641 108.551 308.421 108.831C307.071 109.141 305.651 109.151 304.311 108.841C301.891 108.271 299.771 106.661 298.551 104.501C297.881 103.301 297.421 101.881 297.621 100.491C297.821 99.1711 298.601 98.0011 299.521 97.0611C300.521 96.0211 301.791 95.1811 303.221 94.9211C304.591 94.6711 306.091 95.0211 307.091 96.0211C307.381 96.3111 307.821 95.8611 307.531 95.5811C305.461 93.5111 302.241 94.0611 300.101 95.7011C298.971 96.5711 297.971 97.7111 297.401 99.0211C296.781 100.441 296.841 101.981 297.351 103.421C298.271 105.981 300.341 108.061 302.871 109.061C304.261 109.611 305.811 109.811 307.301 109.661C308.751 109.511 310.291 109.071 311.481 108.201C312.861 107.181 313.151 105.461 313.261 103.851C313.391 102.001 313.121 100.151 312.491 98.4311Z" fill="white"/>
<path d="M287.501 141.471C292.991 141.471 297.441 137.021 297.441 131.531C297.441 126.041 292.991 121.591 287.501 121.591C282.011 121.591 277.561 126.041 277.561 131.531C277.561 137.021 282.011 141.471 287.501 141.471Z" fill="#AFB1B2"/>
<path d="M290.241 133.601C288.561 133.121 286.881 132.651 285.201 132.171C285.821 131.721 286.161 130.931 285.951 130.141C285.701 129.201 284.411 128.151 283.511 129.001C283.241 129.251 283.131 129.571 283.101 129.911C282.781 129.291 282.461 128.671 282.141 128.061C281.951 127.701 281.411 128.021 281.601 128.381C282.391 129.911 283.181 131.441 283.971 132.971C284.391 133.961 284.881 134.911 285.441 135.821C285.651 136.171 286.171 135.861 285.981 135.501C285.491 134.561 285.011 133.621 284.521 132.681C284.511 132.671 284.511 132.651 284.501 132.641C286.351 133.161 288.201 133.691 290.051 134.211C290.471 134.321 290.631 133.711 290.241 133.601ZM284.081 129.381C284.541 129.191 285.051 129.661 285.241 130.031C285.671 130.871 285.101 131.761 284.231 131.921C284.161 131.731 284.091 131.541 284.021 131.351C283.891 130.981 283.761 130.611 283.751 130.221C283.741 129.921 283.771 129.511 284.081 129.381Z" fill="white"/>
<path d="M292.921 135.691C292.221 134.731 291.521 133.761 290.821 132.801C290.751 132.711 290.681 132.611 290.611 132.521C291.041 131.971 291.391 131.371 291.431 130.651C291.481 129.821 291.021 128.961 290.161 128.791C289.361 128.631 288.581 129.121 288.551 129.971C288.541 130.091 288.551 130.211 288.571 130.321C288.551 130.301 288.541 130.281 288.521 130.261C288.271 129.951 287.821 130.391 288.081 130.701L289.681 132.671C289.661 132.691 289.641 132.711 289.621 132.741C289.351 133.041 289.791 133.491 290.061 133.181C290.061 133.171 290.071 133.171 290.071 133.161C290.861 134.131 291.641 135.101 292.431 136.071C292.651 136.351 293.131 135.981 292.921 135.691ZM289.921 129.391C290.351 129.431 290.651 129.731 290.761 130.131C290.951 130.821 290.651 131.451 290.241 132.001C290.091 131.791 289.931 131.581 289.781 131.361C289.511 130.991 289.201 130.541 289.181 130.061C289.161 129.621 289.491 129.351 289.921 129.391Z" fill="white"/>
<path d="M294.441 127.221C294.301 126.841 293.691 127.011 293.831 127.391C294.331 128.751 294.611 130.181 294.621 131.631C294.631 132.361 294.571 133.101 294.451 133.821C294.341 134.471 294.191 135.151 293.831 135.701C293.111 136.801 291.591 137.341 290.371 137.621C289.021 137.931 287.601 137.941 286.261 137.631C283.841 137.061 281.721 135.451 280.501 133.291C279.831 132.091 279.371 130.671 279.571 129.281C279.771 127.961 280.551 126.791 281.471 125.851C282.471 124.811 283.741 123.971 285.171 123.711C286.541 123.461 288.041 123.811 289.041 124.811C289.331 125.101 289.771 124.651 289.481 124.371C287.411 122.301 284.191 122.851 282.051 124.491C280.921 125.361 279.921 126.501 279.351 127.811C278.731 129.231 278.791 130.771 279.301 132.211C280.221 134.771 282.291 136.851 284.821 137.851C286.211 138.401 287.761 138.601 289.251 138.451C290.701 138.301 292.241 137.861 293.431 136.991C294.811 135.971 295.101 134.251 295.211 132.641C295.351 130.791 295.071 128.941 294.441 127.221Z" fill="white"/>
<path d="M293.401 172.041C298.891 172.041 303.341 167.591 303.341 162.101C303.341 156.611 298.891 152.161 293.401 152.161C287.911 152.161 283.461 156.611 283.461 162.101C283.461 167.591 287.911 172.041 293.401 172.041Z" fill="#AFB1B2"/>
<path d="M296.141 164.181C294.461 163.701 292.781 163.231 291.101 162.751C291.721 162.301 292.061 161.511 291.851 160.721C291.601 159.781 290.311 158.731 289.411 159.581C289.141 159.831 289.031 160.151 289.001 160.491C288.681 159.871 288.361 159.251 288.041 158.641C287.851 158.281 287.311 158.601 287.501 158.961C288.291 160.491 289.081 162.021 289.871 163.551C290.291 164.541 290.781 165.491 291.341 166.401C291.551 166.751 292.071 166.441 291.881 166.081C291.391 165.141 290.911 164.201 290.421 163.261C290.411 163.251 290.411 163.231 290.401 163.221C292.251 163.741 294.101 164.271 295.951 164.791C296.361 164.891 296.531 164.291 296.141 164.181ZM289.981 159.951C290.441 159.761 290.951 160.231 291.141 160.601C291.571 161.441 291.001 162.331 290.131 162.491C290.061 162.301 289.991 162.111 289.921 161.921C289.791 161.551 289.661 161.181 289.651 160.791C289.641 160.491 289.671 160.081 289.981 159.951Z" fill="white"/>
<path d="M298.811 166.271C298.111 165.311 297.411 164.341 296.711 163.381C296.641 163.291 296.571 163.191 296.501 163.101C296.931 162.551 297.281 161.951 297.321 161.231C297.371 160.401 296.911 159.541 296.051 159.371C295.251 159.211 294.471 159.701 294.441 160.551C294.431 160.671 294.441 160.791 294.461 160.901C294.441 160.881 294.431 160.861 294.411 160.841C294.161 160.531 293.711 160.971 293.971 161.281L295.571 163.251C295.551 163.271 295.531 163.291 295.511 163.321C295.241 163.621 295.681 164.071 295.951 163.761C295.951 163.751 295.961 163.751 295.961 163.741C296.751 164.711 297.531 165.681 298.321 166.651C298.541 166.921 299.021 166.561 298.811 166.271ZM295.811 159.961C296.241 160.001 296.541 160.301 296.651 160.701C296.841 161.391 296.541 162.021 296.131 162.571C295.981 162.361 295.821 162.151 295.671 161.931C295.401 161.561 295.091 161.111 295.071 160.631C295.061 160.201 295.391 159.921 295.811 159.961Z" fill="white"/>
<path d="M300.341 157.791C300.201 157.411 299.591 157.581 299.731 157.961C300.231 159.321 300.511 160.751 300.521 162.201C300.531 162.931 300.471 163.671 300.351 164.391C300.241 165.041 300.091 165.721 299.731 166.271C299.011 167.371 297.491 167.911 296.271 168.191C294.921 168.501 293.501 168.511 292.161 168.201C289.741 167.631 287.621 166.021 286.401 163.861C285.731 162.661 285.271 161.241 285.471 159.851C285.671 158.531 286.451 157.361 287.371 156.421C288.371 155.381 289.641 154.541 291.071 154.281C292.441 154.031 293.941 154.381 294.941 155.381C295.231 155.671 295.671 155.221 295.381 154.941C293.311 152.871 290.091 153.421 287.951 155.061C286.821 155.931 285.821 157.071 285.251 158.381C284.631 159.801 284.691 161.341 285.201 162.781C286.121 165.341 288.191 167.421 290.721 168.421C292.111 168.971 293.661 169.171 295.151 169.021C296.601 168.871 298.141 168.431 299.331 167.561C300.711 166.541 301.001 164.821 301.111 163.211C301.241 161.361 300.971 159.511 300.341 157.791Z" fill="white"/>
<path d="M318.611 196.151C324.101 196.151 328.551 191.701 328.551 186.211C328.551 180.721 324.101 176.271 318.611 176.271C313.121 176.271 308.671 180.721 308.671 186.211C308.671 191.701 313.121 196.151 318.611 196.151Z" fill="#AFB1B2"/>
<path d="M318.161 189.621C317.741 187.921 317.331 186.231 316.911 184.531C317.611 184.841 318.471 184.751 319.051 184.181C319.741 183.501 320.021 181.861 318.841 181.501C318.491 181.391 318.161 181.451 317.851 181.601C318.231 181.021 318.611 180.431 318.991 179.851C319.211 179.511 318.671 179.201 318.451 179.541C317.511 180.981 316.571 182.421 315.631 183.861C314.981 184.711 314.401 185.611 313.881 186.551C313.681 186.911 314.201 187.201 314.421 186.871C315.001 185.981 315.581 185.091 316.151 184.211C316.161 184.201 316.171 184.181 316.181 184.171C316.641 186.041 317.101 187.911 317.561 189.781C317.651 190.161 318.261 190.011 318.161 189.621ZM318.791 182.171C319.181 182.471 319.031 183.151 318.801 183.501C318.291 184.291 317.231 184.231 316.661 183.561C316.791 183.401 316.921 183.251 317.051 183.101C317.311 182.811 317.571 182.511 317.901 182.301C318.151 182.141 318.521 181.961 318.791 182.171Z" fill="white"/>
<path d="M317.661 192.971C318.151 191.891 318.641 190.801 319.131 189.721C319.181 189.611 319.231 189.511 319.271 189.401C319.961 189.501 320.651 189.511 321.301 189.191C322.051 188.821 322.571 188.001 322.291 187.171C322.041 186.401 321.231 185.961 320.471 186.351C320.361 186.401 320.271 186.471 320.171 186.541C320.181 186.511 320.191 186.491 320.201 186.461C320.351 186.081 319.741 185.921 319.591 186.291L318.671 188.651C318.641 188.641 318.611 188.641 318.581 188.631C318.191 188.541 318.021 189.151 318.411 189.241C318.421 189.241 318.421 189.241 318.431 189.241C317.971 190.401 317.521 191.571 317.071 192.731C316.961 193.061 317.511 193.301 317.661 192.971ZM321.661 187.251C321.841 187.641 321.721 188.051 321.431 188.341C320.931 188.841 320.231 188.891 319.551 188.811C319.661 188.571 319.761 188.331 319.881 188.091C320.071 187.671 320.311 187.181 320.721 186.931C321.081 186.711 321.491 186.861 321.661 187.251Z" fill="white"/>
<path d="M325.781 190.111C326.041 189.801 325.601 189.361 325.341 189.671C324.411 190.781 323.301 191.721 322.051 192.451C321.421 192.821 320.751 193.131 320.061 193.381C319.441 193.601 318.781 193.811 318.111 193.771C316.801 193.691 315.581 192.631 314.731 191.711C313.791 190.701 313.081 189.461 312.691 188.141C311.981 185.751 312.341 183.121 313.621 180.991C314.331 179.811 315.341 178.711 316.651 178.211C317.901 177.731 319.301 177.831 320.571 178.161C321.971 178.521 323.321 179.201 324.261 180.321C325.161 181.391 325.591 182.871 325.221 184.231C325.111 184.621 325.721 184.791 325.831 184.401C326.601 181.581 324.541 179.041 322.051 178.001C320.741 177.451 319.251 177.141 317.831 177.291C316.291 177.461 314.981 178.261 313.981 179.421C312.211 181.491 311.421 184.321 311.801 187.011C312.011 188.491 312.601 189.931 313.471 191.151C314.311 192.341 315.461 193.461 316.801 194.061C318.371 194.761 320.011 194.161 321.471 193.461C323.131 192.661 324.601 191.511 325.781 190.111Z" fill="white"/>
<path d="M279.111 213.011C284.601 213.011 289.051 208.561 289.051 203.071C289.051 197.581 284.601 193.131 279.111 193.131C273.621 193.131 269.171 197.581 269.171 203.071C269.171 208.561 273.621 213.011 279.111 213.011Z" fill="#AFB1B2"/>
<path d="M281.591 205.461C279.981 204.791 278.371 204.121 276.761 203.451C277.421 203.071 277.861 202.331 277.741 201.521C277.611 200.561 276.451 199.371 275.451 200.101C275.161 200.321 275.011 200.621 274.941 200.961C274.701 200.311 274.451 199.661 274.211 199.011C274.071 198.631 273.491 198.881 273.631 199.261C274.231 200.871 274.841 202.481 275.441 204.091C275.741 205.121 276.121 206.121 276.571 207.101C276.741 207.471 277.291 207.231 277.151 206.851C276.781 205.861 276.411 204.871 276.031 203.871C276.031 203.851 276.021 203.841 276.021 203.821C277.801 204.561 279.571 205.301 281.351 206.041C281.731 206.201 281.961 205.611 281.591 205.461ZM275.971 200.541C276.451 200.401 276.901 200.931 277.041 201.321C277.371 202.201 276.701 203.021 275.821 203.071C275.771 202.871 275.721 202.681 275.681 202.481C275.601 202.101 275.511 201.721 275.541 201.321C275.571 201.031 275.641 200.631 275.971 200.541Z" fill="white"/>
<path d="M284.001 207.851C283.421 206.811 282.841 205.771 282.251 204.731C282.191 204.631 282.141 204.531 282.081 204.431C282.571 203.941 282.991 203.381 283.111 202.671C283.251 201.851 282.901 200.951 282.071 200.671C281.301 200.421 280.471 200.811 280.331 201.651C280.311 201.771 280.311 201.891 280.311 202.001C280.301 201.981 280.281 201.951 280.271 201.931C280.051 201.591 279.561 201.981 279.781 202.321L281.131 204.471C281.111 204.491 281.091 204.511 281.061 204.531C280.761 204.801 281.141 205.291 281.451 205.021C281.461 205.021 281.461 205.011 281.471 205.011C282.141 206.071 282.801 207.121 283.471 208.181C283.651 208.471 284.171 208.161 284.001 207.851ZM281.761 201.231C282.181 201.321 282.441 201.651 282.501 202.061C282.611 202.761 282.231 203.351 281.761 203.851C281.631 203.621 281.501 203.391 281.381 203.161C281.161 202.761 280.901 202.281 280.941 201.801C280.981 201.381 281.351 201.151 281.761 201.231Z" fill="white"/>
<path d="M286.511 199.611C286.421 199.221 285.791 199.311 285.891 199.701C286.231 201.111 286.331 202.561 286.181 204.001C286.101 204.731 285.961 205.451 285.751 206.151C285.561 206.781 285.341 207.441 284.911 207.951C284.071 208.961 282.491 209.311 281.251 209.451C279.881 209.601 278.461 209.441 277.161 208.971C274.821 208.121 272.911 206.271 271.951 203.981C271.421 202.711 271.131 201.241 271.501 199.891C271.851 198.601 272.771 197.541 273.791 196.711C274.911 195.801 276.261 195.111 277.721 195.021C279.111 194.931 280.561 195.461 281.441 196.571C281.691 196.891 282.181 196.501 281.931 196.181C280.121 193.881 276.851 194.041 274.541 195.421C273.321 196.151 272.191 197.161 271.471 198.401C270.691 199.731 270.561 201.271 270.911 202.761C271.521 205.411 273.341 207.721 275.731 209.011C277.051 209.721 278.561 210.101 280.051 210.131C281.511 210.151 283.091 209.901 284.371 209.171C285.861 208.321 286.351 206.651 286.651 205.061C286.991 203.271 286.941 201.401 286.511 199.611Z" fill="white"/>
<path d="M328.271 154.731C333.761 154.731 338.211 150.281 338.211 144.791C338.211 139.301 333.761 134.851 328.271 134.851C322.781 134.851 318.331 139.301 318.331 144.791C318.331 150.281 322.781 154.731 328.271 154.731Z" fill="#AFB1B2"/>
<path d="M331.171 146.631C329.461 146.301 327.741 145.961 326.031 145.631C326.611 145.131 326.881 144.311 326.611 143.551C326.291 142.641 324.911 141.701 324.091 142.621C323.851 142.891 323.761 143.221 323.761 143.561C323.391 142.971 323.021 142.381 322.651 141.791C322.441 141.451 321.921 141.811 322.141 142.151C323.051 143.611 323.971 145.071 324.881 146.521C325.381 147.471 325.951 148.381 326.591 149.241C326.831 149.571 327.321 149.221 327.101 148.881C326.541 147.981 325.971 147.081 325.411 146.191C325.401 146.181 325.401 146.161 325.391 146.151C327.281 146.521 329.171 146.891 331.061 147.261C331.451 147.321 331.571 146.701 331.171 146.631ZM324.681 142.931C325.121 142.701 325.671 143.131 325.891 143.481C326.391 144.281 325.891 145.211 325.041 145.441C324.951 145.261 324.871 145.081 324.791 144.891C324.631 144.531 324.471 144.171 324.421 143.781C324.391 143.501 324.381 143.081 324.681 142.931Z" fill="white"/>
<path d="M334.011 148.491C333.231 147.591 332.451 146.691 331.681 145.781C331.601 145.691 331.531 145.601 331.451 145.521C331.831 144.941 332.131 144.311 332.111 143.591C332.091 142.761 331.561 141.941 330.691 141.841C329.881 141.751 329.151 142.301 329.181 143.151C329.181 143.271 329.201 143.391 329.231 143.501C329.211 143.481 329.191 143.461 329.171 143.441C328.891 143.151 328.491 143.631 328.761 143.921L330.521 145.751C330.501 145.771 330.481 145.801 330.471 145.821C330.231 146.141 330.701 146.551 330.951 146.231C330.951 146.221 330.961 146.221 330.961 146.211C331.821 147.111 332.691 148.011 333.551 148.911C333.791 149.161 334.241 148.761 334.011 148.491ZM330.501 142.451C330.931 142.451 331.251 142.731 331.391 143.121C331.631 143.791 331.391 144.441 331.021 145.031C330.851 144.831 330.681 144.631 330.511 144.431C330.211 144.081 329.861 143.661 329.811 143.181C329.761 142.751 330.071 142.451 330.501 142.451Z" fill="white"/>
<path d="M334.821 139.921C334.651 139.561 334.061 139.771 334.231 140.141C334.841 141.451 335.241 142.851 335.371 144.301C335.441 145.031 335.451 145.761 335.381 146.491C335.321 147.151 335.231 147.831 334.921 148.421C334.291 149.581 332.831 150.241 331.631 150.621C330.321 151.051 328.901 151.171 327.531 150.971C325.071 150.611 322.831 149.181 321.431 147.121C320.661 145.991 320.081 144.601 320.171 143.201C320.261 141.861 320.941 140.641 321.771 139.631C322.681 138.521 323.871 137.571 325.281 137.191C326.631 136.821 328.151 137.051 329.231 137.971C329.541 138.231 329.951 137.751 329.641 137.491C327.401 135.601 324.241 136.411 322.241 138.231C321.191 139.191 320.281 140.411 319.831 141.761C319.331 143.221 319.511 144.761 320.151 146.151C321.281 148.631 323.521 150.531 326.121 151.311C327.561 151.741 329.111 151.811 330.581 151.541C332.011 151.271 333.511 150.711 334.631 149.741C335.931 148.611 336.071 146.871 336.051 145.251C336.031 143.401 335.601 141.581 334.821 139.921Z" fill="white"/>
<path d="M401.752 240.931L396.292 320.481L404.562 337.381L401.752 240.931Z" fill="black"/>
<path d="M302.672 237.681H434.742L424.452 338.051H292.382C300.392 338.051 298.552 336.241 298.552 334.021V241.721C298.552 239.481 300.392 237.681 302.672 237.681Z" fill="white"/>
<path d="M366.642 338.591H303.052C300.262 338.591 297.992 336.371 297.992 333.641V242.091C297.992 239.361 300.262 237.141 303.052 237.141V238.221C300.872 238.221 299.092 239.961 299.092 242.091V333.641C299.092 335.771 300.872 337.511 303.052 337.511H366.642V338.591Z" fill="black"/>
<path d="M321.022 377.611H310.002V384.831H321.022V377.611Z" fill="black"/>
<path d="M337.192 377.611H326.172V384.831H337.192V377.611Z" fill="black"/>
<path d="M353.352 377.611H342.332V384.831H353.352V377.611Z" fill="black"/>
<path d="M369.522 377.611H358.502V384.831H369.522V377.611Z" fill="black"/>
<path d="M385.692 377.611H374.672V384.831H385.692V377.611Z" fill="black"/>
<path d="M401.852 377.611H390.832V384.831H401.852V377.611Z" fill="black"/>
<path d="M418.022 377.611H407.002V384.831H418.022V377.611Z" fill="black"/>
<path d="M434.192 377.611H423.172V384.831H434.192V377.611Z" fill="black"/>
<path d="M450.352 377.611H439.332V384.831H450.352V377.611Z" fill="black"/>
<path d="M456.762 381.151H298.942V392.761H456.762V381.151Z" fill="black"/>
<path d="M420.442 265.051H352.342V315.241H420.442V265.051Z" fill="#AFB1B2"/>
<path d="M429.802 265.051H361.702V315.241H429.802V265.051Z" fill="black"/>
<path d="M420.442 273.331H377.292V393.971H420.442V273.331Z" fill="#AFB1B2"/>
<path d="M427.192 273.331H384.042V393.971H427.192V273.331Z" fill="#E1251B"/>
<path d="M378.182 237.141H441.772C444.562 237.141 446.832 239.361 446.832 242.091V333.641C446.832 336.371 444.562 338.591 441.772 338.591V337.511C443.952 337.511 445.732 335.771 445.732 333.641V242.091C445.732 239.961 443.952 238.221 441.772 238.221H378.182V237.141Z" fill="black"/>
<path d="M480.582 392.771H28.3018V400.371H480.582V392.771Z" fill="black"/>
<path d="M36.6918 351.991C34.9818 359.961 41.7818 368.561 38.3818 375.971C37.8518 377.131 36.8918 378.281 35.6218 378.281C34.3218 378.281 33.3418 377.071 32.8618 375.851C31.6318 372.741 32.3418 369.171 31.3818 365.961C31.0118 364.721 29.8518 363.341 28.6818 363.891C28.1918 364.121 27.9018 364.631 27.5518 365.051C25.9318 367.021 22.6518 366.971 20.6618 365.371C18.6818 363.761 17.8918 361.041 18.0118 358.491C18.1318 355.941 19.0418 353.511 19.9518 351.121C22.1918 345.201 24.7618 338.861 30.1618 335.561C34.0418 333.191 45.3418 332.241 47.7418 337.691C49.2118 341.031 44.3018 342.141 42.0318 343.981C39.4918 346.071 37.4018 348.731 36.6918 351.991Z" fill="#AFB1B2"/>
<path d="M127.592 393.861C130.302 393.921 133.162 393.941 135.522 392.601C137.622 391.401 139.012 389.261 140.082 387.091C144.172 378.751 144.482 368.841 142.012 359.881C139.542 350.921 134.462 342.841 128.332 335.861C125.252 332.361 121.822 329.041 117.632 327.011C114.262 325.371 110.552 324.631 106.932 323.691C94.9518 320.591 82.4318 315.251 70.6918 319.141C64.9618 321.041 60.1718 324.961 55.5218 328.801C50.2618 333.141 44.6818 338.011 43.3118 344.691C42.9518 346.431 42.9318 348.321 43.7418 349.891C45.0518 352.431 48.1018 353.491 50.0418 355.591C53.7518 359.591 52.5118 365.881 53.0018 371.321C54.0718 383.021 64.4418 392.211 75.7218 395.511C84.8718 398.181 95.7718 398.311 105.102 396.391C107.962 395.801 110.522 394.331 113.382 393.831C117.912 393.011 123.002 393.761 127.592 393.861Z" fill="#AFB1B2"/>
<path d="M51.0015 334.221C56.6515 327.791 63.6115 322.511 71.3715 318.871C73.3115 317.961 75.3215 317.031 77.4515 316.701C79.5515 316.381 81.6415 316.791 83.6915 317.241C88.4115 318.291 93.0116 319.761 97.4816 321.611C98.7016 322.121 98.1715 324.141 96.9315 323.621C92.7615 321.901 88.4715 320.501 84.0815 319.471C81.9715 318.981 79.7515 318.401 77.5715 318.791C75.4915 319.161 73.5215 320.141 71.6315 321.051C64.3315 324.601 57.8316 329.601 52.4816 335.691C51.5816 336.711 50.1115 335.231 51.0015 334.221Z" fill="black"/>
<path d="M45.2716 336.311C45.9916 335.181 47.7916 336.221 47.0716 337.361C44.7916 340.961 44.0116 345.371 44.9916 349.521C45.3016 350.831 43.2816 351.381 42.9816 350.071C41.8816 345.391 42.7016 340.381 45.2716 336.311Z" fill="black"/>
<path d="M129.352 324.031V328.631C129.352 329.831 130.322 330.811 131.532 330.811H149.192C150.392 330.811 151.382 329.841 151.382 328.631V324.031C151.382 322.831 150.402 321.841 149.192 321.841H131.532C130.332 321.851 129.352 322.831 129.352 324.031Z" fill="white"/>
<path d="M146.552 328.631V324.031C146.552 322.831 145.572 321.841 144.362 321.841H149.192C150.392 321.841 151.382 322.821 151.382 324.031V328.631C151.382 329.831 150.402 330.811 149.192 330.811H144.362C145.562 330.811 146.552 329.831 146.552 328.631Z" fill="#E1251B"/>
<path d="M127.432 324.031C127.432 321.771 129.272 319.921 131.532 319.921H149.192C151.452 319.921 153.302 321.771 153.302 324.031V328.631C153.302 330.891 151.452 332.731 149.192 332.731H131.532C129.272 332.731 127.432 330.891 127.432 328.631V324.031ZM149.192 330.811C150.392 330.811 151.382 329.841 151.382 328.631V324.031C151.382 322.831 150.402 321.841 149.192 321.841H131.532C130.332 321.841 129.352 322.821 129.352 324.031V328.631C129.352 329.831 130.322 330.811 131.532 330.811H149.192Z" fill="black"/>
<path d="M129.352 336.191V340.791C129.352 341.991 130.322 342.971 131.532 342.971H149.192C150.392 342.971 151.382 342.001 151.382 340.791V336.191C151.382 334.991 150.402 334.001 149.192 334.001H131.532C130.332 334.011 129.352 334.991 129.352 336.191Z" fill="white"/>
<path d="M146.552 340.791V336.191C146.552 334.991 145.572 334.001 144.362 334.001H149.192C150.392 334.001 151.382 334.981 151.382 336.191V340.791C151.382 341.991 150.402 342.971 149.192 342.971H144.362C145.562 342.971 146.552 342.001 146.552 340.791Z" fill="#E1251B"/>
<path d="M127.432 336.191C127.432 333.931 129.272 332.081 131.532 332.081H149.192C151.452 332.081 153.302 333.931 153.302 336.191V340.791C153.302 343.051 151.452 344.891 149.192 344.891H131.532C129.272 344.891 127.432 343.051 127.432 340.791V336.191ZM149.192 342.971C150.392 342.971 151.382 342.001 151.382 340.791V336.191C151.382 334.991 150.402 334.001 149.192 334.001H131.532C130.332 334.001 129.352 334.981 129.352 336.191V340.791C129.352 341.991 130.322 342.971 131.532 342.971H149.192Z" fill="black"/>
<path d="M153.302 336.191V340.791C153.302 341.991 154.272 342.971 155.482 342.971H173.142C174.342 342.971 175.332 342.001 175.332 340.791V336.191C175.332 334.991 174.352 334.001 173.142 334.001H155.482C154.282 334.011 153.302 334.991 153.302 336.191Z" fill="white"/>
<path d="M170.502 340.791V336.191C170.502 334.991 169.522 334.001 168.312 334.001H173.142C174.342 334.001 175.332 334.981 175.332 336.191V340.791C175.332 341.991 174.352 342.971 173.142 342.971H168.312C169.512 342.971 170.502 342.001 170.502 340.791Z" fill="#E1251B"/>
<path d="M151.382 336.191C151.382 333.931 153.222 332.081 155.482 332.081H173.142C175.402 332.081 177.252 333.931 177.252 336.191V340.791C177.252 343.051 175.402 344.891 173.142 344.891H155.482C153.222 344.891 151.382 343.051 151.382 340.791V336.191ZM173.142 342.971C174.342 342.971 175.332 342.001 175.332 340.791V336.191C175.332 334.991 174.352 334.001 173.142 334.001H155.482C154.282 334.001 153.302 334.981 153.302 336.191V340.791C153.302 341.991 154.272 342.971 155.482 342.971H173.142Z" fill="black"/>
<path d="M153.302 348.361V352.961C153.302 354.161 154.272 355.141 155.482 355.141H173.142C174.342 355.141 175.332 354.171 175.332 352.961V348.361C175.332 347.161 174.352 346.171 173.142 346.171H155.482C154.282 346.171 153.302 347.151 153.302 348.361Z" fill="white"/>
<path d="M170.502 352.961V348.361C170.502 347.161 169.522 346.171 168.312 346.171H173.142C174.342 346.171 175.332 347.151 175.332 348.361V352.961C175.332 354.161 174.352 355.141 173.142 355.141H168.312C169.512 355.131 170.502 354.161 170.502 352.961Z" fill="#E1251B"/>
<path d="M151.382 348.361C151.382 346.101 153.222 344.251 155.482 344.251H173.142C175.402 344.251 177.252 346.101 177.252 348.361V352.961C177.252 355.221 175.402 357.061 173.142 357.061H155.482C153.222 357.061 151.382 355.221 151.382 352.961V348.361ZM173.142 355.131C174.342 355.131 175.332 354.161 175.332 352.951V348.351C175.332 347.151 174.352 346.161 173.142 346.161H155.482C154.282 346.161 153.302 347.141 153.302 348.351V352.951C153.302 354.151 154.272 355.131 155.482 355.131H173.142Z" fill="black"/>
<path d="M153.302 360.521V365.121C153.302 366.321 154.272 367.301 155.482 367.301H173.142C174.342 367.301 175.332 366.331 175.332 365.121V360.521C175.332 359.321 174.352 358.331 173.142 358.331H155.482C154.282 358.331 153.302 359.321 153.302 360.521Z" fill="white"/>
<path d="M170.502 365.121V360.521C170.502 359.321 169.522 358.331 168.312 358.331H173.142C174.342 358.331 175.332 359.311 175.332 360.521V365.121C175.332 366.321 174.352 367.301 173.142 367.301H168.312C169.512 367.301 170.502 366.321 170.502 365.121Z" fill="#E1251B"/>
<path d="M151.382 360.521C151.382 358.261 153.222 356.411 155.482 356.411H173.142C175.402 356.411 177.252 358.261 177.252 360.521V365.121C177.252 367.381 175.402 369.221 173.142 369.221H155.482C153.222 369.221 151.382 367.381 151.382 365.121V360.521ZM173.142 367.301C174.342 367.301 175.332 366.331 175.332 365.121V360.521C175.332 359.321 174.352 358.331 173.142 358.331H155.482C154.282 358.331 153.302 359.311 153.302 360.521V365.121C153.302 366.321 154.272 367.301 155.482 367.301H173.142Z" fill="black"/>
<path d="M153.302 372.681V377.281C153.302 378.481 154.272 379.461 155.482 379.461H173.142C174.342 379.461 175.332 378.491 175.332 377.281V372.681C175.332 371.481 174.352 370.491 173.142 370.491H155.482C154.282 370.501 153.302 371.481 153.302 372.681Z" fill="white"/>
<path d="M170.502 377.281V372.681C170.502 371.481 169.522 370.491 168.312 370.491H173.142C174.342 370.491 175.332 371.471 175.332 372.681V377.281C175.332 378.481 174.352 379.461 173.142 379.461H168.312C169.512 379.461 170.502 378.491 170.502 377.281Z" fill="#E1251B"/>
<path d="M151.382 372.681C151.382 370.421 153.222 368.571 155.482 368.571H173.142C175.402 368.571 177.252 370.421 177.252 372.681V377.281C177.252 379.541 175.402 381.381 173.142 381.381H155.482C153.222 381.381 151.382 379.541 151.382 377.281V372.681ZM173.142 379.461C174.342 379.461 175.332 378.491 175.332 377.281V372.681C175.332 371.481 174.352 370.491 173.142 370.491H155.482C154.282 370.491 153.302 371.471 153.302 372.681V377.281C153.302 378.481 154.272 379.461 155.482 379.461H173.142Z" fill="black"/>
<path d="M153.302 384.851V389.451C153.302 390.651 154.272 391.631 155.482 391.631H173.142C174.342 391.631 175.332 390.661 175.332 389.451V384.851C175.332 383.651 174.352 382.661 173.142 382.661H155.482C154.282 382.661 153.302 383.641 153.302 384.851Z" fill="white"/>
<path d="M170.502 389.451V384.851C170.502 383.651 169.522 382.661 168.312 382.661H173.142C174.342 382.661 175.332 383.641 175.332 384.851V389.451C175.332 390.651 174.352 391.631 173.142 391.631H168.312C169.512 391.621 170.502 390.651 170.502 389.451Z" fill="#E1251B"/>
<path d="M151.382 384.851C151.382 382.591 153.222 380.741 155.482 380.741H173.142C175.402 380.741 177.252 382.591 177.252 384.851V389.451C177.252 391.711 175.402 393.551 173.142 393.551H155.482C153.222 393.551 151.382 391.711 151.382 389.451V384.851ZM173.142 391.621C174.342 391.621 175.332 390.651 175.332 389.441V384.841C175.332 383.641 174.352 382.651 173.142 382.651H155.482C154.282 382.651 153.302 383.631 153.302 384.841V389.441C153.302 390.641 154.272 391.621 155.482 391.621H173.142Z" fill="black"/>
<path d="M65.502 384.161V388.761C65.502 389.961 66.4719 390.941 67.6819 390.941H85.342C86.542 390.941 87.532 389.971 87.532 388.761V384.161C87.532 382.961 86.552 381.971 85.342 381.971H67.6819C66.4719 381.971 65.502 382.951 65.502 384.161Z" fill="white"/>
<path d="M82.692 388.761V384.161C82.692 382.961 81.712 381.971 80.502 381.971H85.332C86.532 381.971 87.522 382.951 87.522 384.161V388.761C87.522 389.961 86.542 390.941 85.332 390.941H80.502C81.712 390.931 82.692 389.961 82.692 388.761Z" fill="#E1251B"/>
<path d="M63.582 384.161C63.582 381.901 65.422 380.051 67.682 380.051H85.342C87.602 380.051 89.452 381.901 89.452 384.161V388.761C89.452 391.021 87.602 392.861 85.342 392.861H67.682C65.422 392.861 63.582 391.021 63.582 388.761V384.161ZM85.342 390.931C86.542 390.931 87.532 389.961 87.532 388.751V384.151C87.532 382.951 86.552 381.961 85.342 381.961H67.682C66.482 381.961 65.502 382.941 65.502 384.151V388.751C65.502 389.951 66.472 390.931 67.682 390.931H85.342Z" fill="black"/>
<path d="M96.6621 348.361V352.961C96.6621 354.161 97.6321 355.141 98.8421 355.141H116.502C117.702 355.141 118.692 354.171 118.692 352.961V348.361C118.692 347.161 117.712 346.171 116.502 346.171H98.8421C97.6321 346.171 96.6621 347.151 96.6621 348.361Z" fill="white"/>
<path d="M113.852 352.961V348.361C113.852 347.161 112.872 346.171 111.662 346.171H116.492C117.692 346.171 118.682 347.151 118.682 348.361V352.961C118.682 354.161 117.702 355.141 116.492 355.141H111.662C112.872 355.131 113.852 354.161 113.852 352.961Z" fill="#E1251B"/>
<path d="M94.7319 348.361C94.7319 346.101 96.5719 344.251 98.8319 344.251H116.492C118.752 344.251 120.602 346.101 120.602 348.361V352.961C120.602 355.221 118.752 357.061 116.492 357.061H98.8319C96.5719 357.061 94.7319 355.221 94.7319 352.961V348.361ZM116.502 355.131C117.702 355.131 118.692 354.161 118.692 352.951V348.351C118.692 347.151 117.712 346.161 116.502 346.161H98.8419C97.6419 346.161 96.6619 347.141 96.6619 348.351V352.951C96.6619 354.151 97.6319 355.131 98.8419 355.131H116.502Z" fill="black"/>
<path d="M96.6621 360.521V365.121C96.6621 366.321 97.6321 367.301 98.8421 367.301H116.502C117.702 367.301 118.692 366.331 118.692 365.121V360.521C118.692 359.321 117.712 358.331 116.502 358.331H98.8421C97.6321 358.331 96.6621 359.321 96.6621 360.521Z" fill="white"/>
<path d="M113.852 365.121V360.521C113.852 359.321 112.872 358.331 111.662 358.331H116.492C117.692 358.331 118.682 359.311 118.682 360.521V365.121C118.682 366.321 117.702 367.301 116.492 367.301H111.662C112.872 367.301 113.852 366.321 113.852 365.121Z" fill="#E1251B"/>
<path d="M94.7319 360.521C94.7319 358.261 96.5719 356.411 98.8319 356.411H116.492C118.752 356.411 120.602 358.261 120.602 360.521V365.121C120.602 367.381 118.752 369.221 116.492 369.221H98.8319C96.5719 369.221 94.7319 367.381 94.7319 365.121V360.521ZM116.502 367.301C117.702 367.301 118.692 366.331 118.692 365.121V360.521C118.692 359.321 117.712 358.331 116.502 358.331H98.8419C97.6419 358.331 96.6619 359.311 96.6619 360.521V365.121C96.6619 366.321 97.6319 367.301 98.8419 367.301H116.502Z" fill="black"/>
<path d="M96.6621 372.681V377.281C96.6621 378.481 97.6321 379.461 98.8421 379.461H116.502C117.702 379.461 118.692 378.491 118.692 377.281V372.681C118.692 371.481 117.712 370.491 116.502 370.491H98.8421C97.6321 370.501 96.6621 371.481 96.6621 372.681Z" fill="white"/>
<path d="M113.852 377.281V372.681C113.852 371.481 112.872 370.491 111.662 370.491H116.492C117.692 370.491 118.682 371.471 118.682 372.681V377.281C118.682 378.481 117.702 379.461 116.492 379.461H111.662C112.872 379.461 113.852 378.491 113.852 377.281Z" fill="#E1251B"/>
<path d="M94.7319 372.681C94.7319 370.421 96.5719 368.571 98.8319 368.571H116.492C118.752 368.571 120.602 370.421 120.602 372.681V377.281C120.602 379.541 118.752 381.381 116.492 381.381H98.8319C96.5719 381.381 94.7319 379.541 94.7319 377.281V372.681ZM116.502 379.461C117.702 379.461 118.692 378.491 118.692 377.281V372.681C118.692 371.481 117.712 370.491 116.502 370.491H98.8419C97.6419 370.491 96.6619 371.471 96.6619 372.681V377.281C96.6619 378.481 97.6319 379.461 98.8419 379.461H116.502Z" fill="black"/>
<path d="M69.5024 372.681V377.281C69.5024 378.481 70.4724 379.461 71.6824 379.461H89.3425C90.5425 379.461 91.5325 378.491 91.5325 377.281V372.681C91.5325 371.481 90.5525 370.491 89.3425 370.491H71.6824C70.4724 370.501 69.5024 371.481 69.5024 372.681Z" fill="white"/>
<path d="M86.6924 377.281V372.681C86.6924 371.481 85.7124 370.491 84.5024 370.491H89.3325C90.5325 370.491 91.5225 371.471 91.5225 372.681V377.281C91.5225 378.481 90.5425 379.461 89.3325 379.461H84.5024C85.7124 379.461 86.6924 378.491 86.6924 377.281Z" fill="#E1251B"/>
<path d="M67.5723 372.681C67.5723 370.421 69.4123 368.571 71.6723 368.571H89.3323C91.5923 368.571 93.4423 370.421 93.4423 372.681V377.281C93.4423 379.541 91.5923 381.381 89.3323 381.381H71.6723C69.4123 381.381 67.5723 379.541 67.5723 377.281V372.681ZM89.3423 379.461C90.5423 379.461 91.5323 378.491 91.5323 377.281V372.681C91.5323 371.481 90.5523 370.491 89.3423 370.491H71.6823C70.4823 370.491 69.5023 371.471 69.5023 372.681V377.281C69.5023 378.481 70.4723 379.461 71.6823 379.461H89.3423Z" fill="black"/>
<path d="M96.6621 384.851V389.451C96.6621 390.651 97.6321 391.631 98.8421 391.631H116.502C117.702 391.631 118.692 390.661 118.692 389.451V384.851C118.692 383.651 117.712 382.661 116.502 382.661H98.8421C97.6321 382.661 96.6621 383.641 96.6621 384.851Z" fill="white"/>
<path d="M113.852 389.451V384.851C113.852 383.651 112.872 382.661 111.662 382.661H116.492C117.692 382.661 118.682 383.641 118.682 384.851V389.451C118.682 390.651 117.702 391.631 116.492 391.631H111.662C112.872 391.621 113.852 390.651 113.852 389.451Z" fill="#E1251B"/>
<path d="M94.7319 384.851C94.7319 382.591 96.5719 380.741 98.8319 380.741H116.492C118.752 380.741 120.602 382.591 120.602 384.851V389.451C120.602 391.711 118.752 393.551 116.492 393.551H98.8319C96.5719 393.551 94.7319 391.711 94.7319 389.451V384.851ZM116.502 391.621C117.702 391.621 118.692 390.651 118.692 389.441V384.841C118.692 383.641 117.712 382.651 116.502 382.651H98.8419C97.6419 382.651 96.6619 383.631 96.6619 384.841V389.441C96.6619 390.641 97.6319 391.621 98.8419 391.621H116.502Z" fill="black"/>
<path d="M124.742 348.361V352.961C124.742 354.161 125.712 355.141 126.922 355.141H144.582C145.782 355.141 146.772 354.171 146.772 352.961V348.361C146.772 347.161 145.792 346.171 144.582 346.171H126.922C125.722 346.171 124.742 347.151 124.742 348.361Z" fill="white"/>
<path d="M141.932 352.961V348.361C141.932 347.161 140.952 346.171 139.742 346.171H144.572C145.772 346.171 146.762 347.151 146.762 348.361V352.961C146.762 354.161 145.782 355.141 144.572 355.141H139.742C140.952 355.131 141.932 354.161 141.932 352.961Z" fill="#E1251B"/>
<path d="M122.822 348.361C122.822 346.101 124.662 344.251 126.922 344.251H144.582C146.842 344.251 148.692 346.101 148.692 348.361V352.961C148.692 355.221 146.842 357.061 144.582 357.061H126.922C124.662 357.061 122.822 355.221 122.822 352.961V348.361ZM144.582 355.131C145.782 355.131 146.772 354.161 146.772 352.951V348.351C146.772 347.151 145.792 346.161 144.582 346.161H126.922C125.722 346.161 124.742 347.141 124.742 348.351V352.951C124.742 354.151 125.712 355.131 126.922 355.131H144.582Z" fill="black"/>
<path d="M129.352 360.521V365.121C129.352 366.321 130.322 367.301 131.532 367.301H149.192C150.392 367.301 151.382 366.331 151.382 365.121V360.521C151.382 359.321 150.402 358.331 149.192 358.331H131.532C130.332 358.331 129.352 359.321 129.352 360.521Z" fill="white"/>
<path d="M146.552 365.121V360.521C146.552 359.321 145.572 358.331 144.362 358.331H149.192C150.392 358.331 151.382 359.311 151.382 360.521V365.121C151.382 366.321 150.402 367.301 149.192 367.301H144.362C145.562 367.301 146.552 366.321 146.552 365.121Z" fill="#E1251B"/>
<path d="M127.432 360.521C127.432 358.261 129.272 356.411 131.532 356.411H149.192C151.452 356.411 153.302 358.261 153.302 360.521V365.121C153.302 367.381 151.452 369.221 149.192 369.221H131.532C129.272 369.221 127.432 367.381 127.432 365.121V360.521ZM149.192 367.301C150.392 367.301 151.382 366.331 151.382 365.121V360.521C151.382 359.321 150.402 358.331 149.192 358.331H131.532C130.332 358.331 129.352 359.311 129.352 360.521V365.121C129.352 366.321 130.322 367.301 131.532 367.301H149.192Z" fill="black"/>
<path d="M129.352 372.681V377.281C129.352 378.481 130.322 379.461 131.532 379.461H149.192C150.392 379.461 151.382 378.491 151.382 377.281V372.681C151.382 371.481 150.402 370.491 149.192 370.491H131.532C130.332 370.501 129.352 371.481 129.352 372.681Z" fill="white"/>
<path d="M146.552 377.281V372.681C146.552 371.481 145.572 370.491 144.362 370.491H149.192C150.392 370.491 151.382 371.471 151.382 372.681V377.281C151.382 378.481 150.402 379.461 149.192 379.461H144.362C145.562 379.461 146.552 378.491 146.552 377.281Z" fill="#E1251B"/>
<path d="M127.432 372.681C127.432 370.421 129.272 368.571 131.532 368.571H149.192C151.452 368.571 153.302 370.421 153.302 372.681V377.281C153.302 379.541 151.452 381.381 149.192 381.381H131.532C129.272 381.381 127.432 379.541 127.432 377.281V372.681ZM149.192 379.461C150.392 379.461 151.382 378.491 151.382 377.281V372.681C151.382 371.481 150.402 370.491 149.192 370.491H131.532C130.332 370.491 129.352 371.471 129.352 372.681V377.281C129.352 378.481 130.322 379.461 131.532 379.461H149.192Z" fill="black"/>
<path d="M129.352 383.891V388.491C129.352 389.691 130.322 390.671 131.532 390.671H149.192C150.392 390.671 151.382 389.701 151.382 388.491V383.891C151.382 382.691 150.402 381.701 149.192 381.701H131.532C130.332 381.701 129.352 382.681 129.352 383.891Z" fill="white"/>
<path d="M146.552 388.491V383.891C146.552 382.691 145.572 381.701 144.362 381.701H149.192C150.392 381.701 151.382 382.681 151.382 383.891V388.491C151.382 389.691 150.402 390.671 149.192 390.671H144.362C145.562 390.661 146.552 389.691 146.552 388.491Z" fill="#E1251B"/>
<path d="M127.432 383.891C127.432 381.631 129.272 379.781 131.532 379.781H149.192C151.452 379.781 153.302 381.631 153.302 383.891V388.491C153.302 390.751 151.452 392.591 149.192 392.591H131.532C129.272 392.591 127.432 390.751 127.432 388.491V383.891ZM149.192 390.661C150.392 390.661 151.382 389.691 151.382 388.481V383.881C151.382 382.681 150.402 381.691 149.192 381.691H131.532C130.332 381.691 129.352 382.671 129.352 383.881V388.481C129.352 389.681 130.322 390.661 131.532 390.661H149.192Z" fill="black"/>
</svg>
