<?xml version="1.0" encoding="utf-8"?>
<!-- Generator: Adobe Illustrator 24.0.1, SVG Export Plug-In . SVG Version: 6.00 Build 0)  -->
<svg version="1.1" id="Layer_1" xmlns="http://www.w3.org/2000/svg" xmlns:xlink="http://www.w3.org/1999/xlink" x="0px" y="0px"
	 viewBox="0 0 595.3 595.3" style="enable-background:new 0 0 595.3 595.3;" xml:space="preserve">
<style type="text/css">
	.st0{fill:#F6F6F6;}
	.st1{fill:#E1251B;}
	.st2{fill:#AFB1B2;}
	.st3{fill:#FFFFFF;}
	.st4{fill:none;stroke:#231F20;stroke-miterlimit:10;}
	.st5{fill:none;stroke:#000000;stroke-miterlimit:10;}
	.st6{fill:#A0A0A0;}
	.st7{fill:#999999;}
	.st8{fill:#6B6B6B;}
	.st9{fill:#FBFBFB;}
	.st10{stroke:#000000;stroke-width:0.5;stroke-miterlimit:10;}
	.st11{fill:#E2E2E2;}
	.st12{font-family:'DINNextLTPro-Regular';}
	.st13{font-size:16.6452px;}
	.st14{opacity:0.65;}
	.st15{clip-path:url(#SVGID_2_);}
	.st16{fill:#CBCCCD;}
	.st17{fill:none;}
	.st18{fill:#E1371B;}
	.st19{font-size:23px;}
</style>
<g>
	<g>
		<g>
			<g>
				<g>
					<path class="st0" d="M120.9,346c3.8,30.6,16.9,60.2,42.6,77.4c24.9,16.6,58.5,19.9,91.2,19.2c51.7-1.2,108.8-13.4,147.3-50.5
						c24.6-23.7,38.5-54.6,50.7-84.6c12-29.5,23-59.3,32.9-89.3c7.9-23.9,15.2-49.3,8.2-71.5c-11.2-35.6-55.6-50.3-97-49
						c-41.4,1.3-83.3,14.2-124.8,15.9c-24.7,1-50.2-1.7-73.9,8.3C124.9,152.7,113.9,288.7,120.9,346z"/>
				</g>
			</g>
		</g>
	</g>
</g>
<g>
	<g>
		<g>
			<g>
				<g>
					<g>
						<g>
							<path class="st1" d="M520.8,250.3c-10.3-29.3-37.4-50.2-69.3-53.3c-47.7-4.6-107.5,6.4-164.1,30.1
								c-20.9,8.8-40.5,18.9-58,29.9c0.4,0.2,0.8,0.5,1.2,0.7c17.3-10.9,36.6-20.8,57.3-29.5c56.4-23.6,116-34.6,163.5-30
								c31.4,3,58.2,23.6,68.3,52.5c7,20.2,3.9,40.2-8.4,53.5c-10.7,11.5-27.8,17.9-49.6,18.4c-25.7,0.6-57.4-6.6-94.2-21.5
								l-0.4,1.2c37,15,68.8,22.2,94.6,21.6c22.1-0.5,39.5-7,50.4-18.8C524.8,291.4,528,270.9,520.8,250.3z"/>
						</g>
					</g>
				</g>
			</g>
		</g>
	</g>
	<g>
		<g>
			<g>
				<g>
					<g>
						<g>
							<path class="st1" d="M153.6,352.1c-4.5-7.7-1.9-18.6,7.6-32.2c14.4-20.7,36.8-41,64.6-59.1c0-0.6,0.6-1,1.1-0.7
								c0.3-0.2,0.7-0.4,1-0.6c-0.4-0.2-0.7-0.4-1.1-0.6c-0.1,0-0.1-0.1-0.1-0.1c-28.6,18.4-51.7,39.1-66.4,60.4
								c-9.8,14.1-12.4,25.4-7.6,33.6c7,12.1,29.3,17.4,66.4,15.6c10.3-0.5,20.4-1.5,29-2.5c14.2-1.7,24.3-3.6,24.5-3.7l-0.2-1.2
								C271.2,361.1,169.7,380,153.6,352.1z"/>
						</g>
					</g>
				</g>
			</g>
		</g>
	</g>
</g>
<g>
	<g>
		<g>
			<g>
				<g>
					<g>
						<g>
							<path class="st1" d="M231.8,260.7c-0.4,0.2-0.8,0.5-1.2,0.7c0.1,0.1,0.1,0.2,0.2,0.2c0,0,0,0,0,0c0,0,0.1,0.1,0.1,0.1
								c0.1,0.1,0.1,0.1,0.2,0.2c0.1,0.1,0.2,0.2,0.3,0.3c0.5-0.3,1-0.6,1.5-0.9C232.6,261.1,232.2,260.9,231.8,260.7z"/>
						</g>
					</g>
				</g>
			</g>
		</g>
	</g>
	<g>
		<g>
			<g>
				<g>
					<g>
						<g>
							<path class="st1" d="M527.8,253.6c-10.4-29.3-38-50.2-70.4-53.2c-48.5-4.5-109.4,6.6-166.9,30.4
								c-20.2,8.3-39.1,17.9-56.2,28.3c0.3,0.2,0.6,0.5,0.8,0.7c0.1,0,0.1,0.1,0.1,0.2c17-10.3,35.7-19.7,55.7-28
								c57.4-23.7,118.1-34.8,166.4-30.4c31.9,2.9,59.1,23.5,69.3,52.3c7.1,20.2,3.9,40.2-8.7,53.5c-10.9,11.6-28.4,18-50.5,18.5
								c-26.1,0.7-58.3-6.5-95.8-21.4l-0.4,1.2c37.6,14.9,69.9,22.1,96.2,21.4c22.5-0.6,40.2-7.1,51.3-18.9
								C531.8,294.7,535.1,274.2,527.8,253.6z"/>
						</g>
					</g>
				</g>
			</g>
		</g>
	</g>
	<g>
		<g>
			<g>
				<g>
					<g>
						<g>
							<path class="st1" d="M154.1,356.2c-4.5-7.7-1.9-18.6,7.8-32.2c14.2-20.1,36.1-39.8,63.1-57.4c0.1-0.5,0.1-1.1,0.2-1.6
								c-27.5,17.9-49.7,37.9-64.2,58.3c-10,14.1-12.6,25.4-7.8,33.6c7.1,12.1,29.8,17.3,67.5,15.5c10.5-0.5,20.8-1.5,29.5-2.6
								c14.5-1.8,24.7-3.7,24.9-3.7l-0.2-1.2C273.7,365,170.5,384.1,154.1,356.2z"/>
						</g>
					</g>
				</g>
			</g>
		</g>
	</g>
</g>
<g>
	<g>
		<g>
			<g>
				<g>
					<g>
						<path class="st2" d="M225.4,434.1l-85.7,4.6c-5.6,0.3-10.5-3.8-11.1-9.2l-17.5-161.7c-0.2-1.8,0.6-4.8,2.5-5l92.7-8
							c1.9-0.2,13.9,0.7,14.1,2.5L225.4,434.1z"/>
					</g>
				</g>
			</g>
		</g>
	</g>
	<g>
		<g>
			<g>
				<g>
					<g>
						<path class="st3" d="M235.9,434.1l-85.7,4.6c-5.6,0.3-10.5-3.8-11.1-9.2l-17.5-161.7c-0.2-1.8,1.2-3.5,3.1-3.6l92.7-8
							c1.9-0.2,3.6,1.2,3.7,3.1L235.9,434.1z"/>
					</g>
				</g>
			</g>
		</g>
	</g>
	<g>
		<g>
			<g>
				<g>
					<g>
						<path class="st2" d="M285.6,403.3l-148.8,7c-3.1,0.1-5.6-2.2-5.8-5.1l0-0.3c-0.1-3,2.2-5.5,5.3-5.7l148.8-7
							c3-0.1,5.6,2.2,5.8,5.1l0,0.3C291,400.6,288.7,403.2,285.6,403.3z"/>
					</g>
				</g>
			</g>
		</g>
	</g>
</g>
<g>
	<g>
		<g>
			<g>
				<g>
					<g>
						<g>
							<g>
								<g>
									<path class="st3" d="M264.4,206h-0.2l2.9-25.8l7.8-6.1l14.3,6.1c3.7-0.9,7-2.2,9.8-4c1,5.2,5.7,32.1-4.7,37.7
										c-11.5,6.2-23.5-4.4-23.7-4.5l-1.3,1.4c0.1,0.1,8,7,17.4,6.9l3.8,17.1c-2.5,1.9-14.4,10-25.3-0.1l-0.7-23.8L264.4,206z"/>
								</g>
							</g>
						</g>
					</g>
				</g>
			</g>
		</g>
	</g>
	<g>
		<g>
			<g>
				<g>
					<g>
						<g>
							<g>
								<polygon class="st2" points="298.8,229.8 359.2,451.1 286.6,458.5 258.7,236.7 								"/>
							</g>
						</g>
					</g>
				</g>
			</g>
		</g>
	</g>
	<g>
		<g>
			<g>
				<g>
					<g>
						<g>
							<g>
								<g>
									<g>
										<g>
											<path class="st3" d="M317.8,433.6c37.9-3.6,58.8-15.6,59.1-15.8l-1.8-3.3c-0.5,0.3-46.3,26.4-126.1,11.9l-0.6,3.8
												C275.6,435.1,298.8,435.4,317.8,433.6z"/>
										</g>
									</g>
								</g>
							</g>
						</g>
					</g>
				</g>
			</g>
		</g>
		<g>
			<g>
				<g>
					<g>
						<g>
							<g>
								<g>
									<g>
										<g>
											<path class="st3" d="M313.6,411.8c37.9-3.6,58.8-15.6,59.1-15.8l-1.8-3.3c-0.5,0.3-46.3,26.4-126.1,11.9l-0.6,3.8
												C271.3,413.3,294.6,413.6,313.6,411.8z"/>
										</g>
									</g>
								</g>
							</g>
						</g>
					</g>
				</g>
			</g>
		</g>
		<g>
			<g>
				<g>
					<g>
						<g>
							<g>
								<g>
									<g>
										<g>
											<path class="st3" d="M309.4,390c37.9-3.6,58.8-15.6,59.1-15.8l-1.8-3.3c-0.5,0.3-46.3,26.4-126.1,11.9l-0.6,3.8
												C267.1,391.5,290.4,391.9,309.4,390z"/>
										</g>
									</g>
								</g>
							</g>
						</g>
					</g>
				</g>
			</g>
		</g>
		<g>
			<g>
				<g>
					<g>
						<g>
							<g>
								<g>
									<g>
										<g>
											<path class="st3" d="M305.2,368.3c37.9-3.6,58.8-15.6,59.1-15.8l-1.8-3.3c-0.5,0.3-46.3,26.4-126.1,11.9l-0.6,3.8
												C262.9,369.8,286.2,370.1,305.2,368.3z"/>
										</g>
									</g>
								</g>
							</g>
						</g>
					</g>
				</g>
			</g>
		</g>
		<g>
			<g>
				<g>
					<g>
						<g>
							<g>
								<g>
									<g>
										<g>
											<path class="st3" d="M300.9,346.5c37.9-3.6,58.8-15.6,59.1-15.8l-1.8-3.3c-0.5,0.3-46.3,26.4-126.1,11.9l-0.6,3.8
												C258.7,348,282,348.3,300.9,346.5z"/>
										</g>
									</g>
								</g>
							</g>
						</g>
					</g>
				</g>
			</g>
		</g>
		<g>
			<g>
				<g>
					<g>
						<g>
							<g>
								<g>
									<g>
										<g>
											<path class="st3" d="M296.7,324.7c37.9-3.6,58.8-15.6,59.1-15.8l-1.8-3.3c-0.5,0.3-46.3,26.4-126.1,11.9l-0.6,3.8
												C254.4,326.2,277.7,326.5,296.7,324.7z"/>
										</g>
									</g>
								</g>
							</g>
						</g>
					</g>
				</g>
			</g>
		</g>
		<g>
			<g>
				<g>
					<g>
						<g>
							<g>
								<g>
									<g>
										<g>
											<path class="st3" d="M292.5,302.9c37.9-3.6,58.8-15.6,59.1-15.8l-1.8-3.3c-0.5,0.3-46.3,26.4-126.1,11.9l-0.6,3.8
												C250.2,304.4,273.5,304.7,292.5,302.9z"/>
										</g>
									</g>
								</g>
							</g>
						</g>
					</g>
				</g>
			</g>
		</g>
		<g>
			<g>
				<g>
					<g>
						<g>
							<g>
								<g>
									<g>
										<g>
											<path class="st3" d="M288.3,281.1c37.9-3.6,58.8-15.6,59.1-15.8l-1.8-3.3c-0.5,0.3-46.3,26.4-126.1,11.9l-0.6,3.8
												C246,282.6,269.3,282.9,288.3,281.1z"/>
										</g>
									</g>
								</g>
							</g>
						</g>
					</g>
				</g>
			</g>
		</g>
		<g>
			<g>
				<g>
					<g>
						<g>
							<g>
								<g>
									<g>
										<g>
											<path class="st3" d="M284,259.3c37.9-3.6,58.8-15.6,59.1-15.8l-1.8-3.3c-0.5,0.3-46.3,26.4-126.1,11.9l-0.6,3.8
												C241.8,260.8,265,261.1,284,259.3z"/>
										</g>
									</g>
								</g>
							</g>
						</g>
					</g>
				</g>
			</g>
		</g>
	</g>
	<g>
		<g>
			<g>
				<g>
					<g>
						<g>
							<g>
								<g>
									<g>
										<path d="M284,226.7c-4-0.4-7.3-3.4-9.3-6.8c-1.5-2.5-2.5-5.2-3.6-7.9c2.8,2,8.8,5.7,15.7,5.7l1.8,7.9
											C287.1,226.4,285.5,226.9,284,226.7z"/>
									</g>
								</g>
							</g>
						</g>
					</g>
				</g>
			</g>
		</g>
		<g>
			<g>
				<g>
					<g>
						<g>
							<g>
								<g>
									<g>
										<path d="M262.6,209.8l0.7,25.9l0.3,0.3c5.1,4.9,10.5,6.1,15.2,5.6c7.5-0.7,13.2-5.5,13.3-5.6l0.4-0.4l-4-17.9
											c2.2-0.2,4.4-0.9,6.5-2.1c7.4-3.9,8.1-16.5,7.4-26.7c4.2-6.6,4.6-14,4-19.5c8.5-10.2,9.9-23.3,9.9-23.3
											c-50-10.1-63.6,18.6-63.6,18.6l-13.7,5.6L262.6,209.8z M265.2,234.8l-0.7-23.8l-0.1-5h-0.2l2.9-25.8l7.8-6.1l14.3,6.1
											c3.7-0.9,7-2.2,9.8-4c1,5.2,5.7,32.1-4.7,37.7c-11.5,6.2-23.5-4.4-23.7-4.5l-1.3,1.4c0.1,0.1,8,7,17.4,6.9l3.8,17.1
											C288,236.8,276.1,244.9,265.2,234.8z"/>
									</g>
								</g>
							</g>
						</g>
					</g>
				</g>
			</g>
		</g>
	</g>
	<g>
		<g>
			<g>
				<g>
					<g>
						<g>
							<g>
								<g>
									<path class="st1" d="M298.8,229.8l40.4,3.4c8.9,0,17.4,3.6,23.6,10l17.7,35l0.9,40.3l-24-7.2l39.1,141.6l-43.7,9.6
										l-35.3-140L298.8,229.8z"/>
								</g>
							</g>
						</g>
					</g>
				</g>
			</g>
		</g>
	</g>
	<g>
		<g>
			<g>
				<g>
					<g>
						<g>
							<g>
								<g>
									<path class="st1" d="M221.6,318.1l8.6,43.5l18.2,98.8l53,6.9l-25.8-140.8l-16.9-89.9l-36,3.4c-7.2,0.7-14,3.8-19.3,8.7
										l-12,77.8l24.9,6.6L221.6,318.1z"/>
								</g>
							</g>
						</g>
					</g>
				</g>
			</g>
		</g>
	</g>
	<g>
		<g>
			<g>
				<g>
					<g>
						<g>
							<g>
								<g>
									<g>
										<polygon class="st1" points="298.8,229.8 317.4,322.5 328.6,265.9 315.9,259.6 321.4,233.2 										"/>
									</g>
								</g>
							</g>
						</g>
					</g>
				</g>
			</g>
		</g>
		<g>
			<g>
				<g>
					<g>
						<g>
							<g>
								<g>
									<g>
										<polygon class="st1" points="258.7,236.7 275.6,326.6 244.8,277.8 254.5,267.4 239.9,244.7 										"/>
									</g>
								</g>
							</g>
						</g>
					</g>
				</g>
			</g>
		</g>
	</g>
	<g>
		<g>
			<g>
				<g>
					<g>
						<g>
							<g>
								<g>
									<polygon points="319.1,326 329.7,265.4 317,259.1 322.3,233.4 320.4,233.1 314.8,260.1 327.6,266.5 317.3,325.7 									
										"/>
								</g>
							</g>
						</g>
					</g>
				</g>
			</g>
		</g>
	</g>
	<g>
		<g>
			<g>
				<g>
					<g>
						<g>
							<g>
								<g>
									<polygon points="274.8,327.1 276.4,326 246,277.8 254.2,265.2 237,240.8 235.5,241.9 251.9,265.2 243.7,277.8 									"/>
								</g>
							</g>
						</g>
					</g>
				</g>
			</g>
		</g>
	</g>
	<g>
		<g>
			<g>
				<g>
					<g>
						<g>
							<g>
								<g>
									
										<rect x="258.1" y="161.4" transform="matrix(0.5352 -0.8447 0.8447 0.5352 -22.0843 297.2814)" class="st3" width="1.9" height="14.7"/>
								</g>
							</g>
						</g>
					</g>
				</g>
			</g>
		</g>
	</g>
	<g>
		<g>
			<g>
				<g>
					<g>
						<g>
							<g>
								<g>
									<g>
										<path d="M290.9,203.1C290.9,203.1,290.9,203.1,290.9,203.1c0.1,0,3.1-1,4.5-2.6c1.5-1.6-2.4-6.6-5.9-10.5
											c-0.3-0.3-0.7-0.3-1,0c-0.3,0.3-0.3,0.7,0,1c3.4,3.7,6.1,7.7,5.9,8.6c-1.2,1.2-3.9,2.2-4,2.2c-0.4,0.1-0.5,0.5-0.4,0.9
											C290.2,203,290.6,203.2,290.9,203.1z"/>
									</g>
								</g>
							</g>
						</g>
					</g>
				</g>
			</g>
		</g>
	</g>
	<g>
		<g>
			<g>
				<g>
					<g>
						<g>
							<g>
								<g>
									<g>
										<ellipse transform="matrix(0.2637 -0.9646 0.9646 0.2637 31.936 425.6543)" cx="294.8" cy="191.9" rx="2.8" ry="1.4"/>
									</g>
								</g>
							</g>
						</g>
					</g>
				</g>
			</g>
		</g>
	</g>
	<g>
		<g>
			<g>
				<g>
					<g>
						<g>
							<g>
								<g>
									<g>
										<ellipse transform="matrix(0.2637 -0.9646 0.9646 0.2637 22.3372 411.0103)" cx="280.4" cy="190.9" rx="2.8" ry="1.4"/>
									</g>
								</g>
							</g>
						</g>
					</g>
				</g>
			</g>
		</g>
	</g>
	<g>
		<g>
			<g>
				<g>
					<g>
						<g>
							<g>
								<g>
									<g>
										<path d="M277.5,187.6c0.3-0.1,0.5-0.4,0.5-0.8c-0.1-1-0.1-2,0.1-3c0.1-0.7,0.3-1.2,0.6-1.5c0.7-1,2.2-0.9,3.3-0.4
											c1.2,0.6,2.2,1.9,3,3c0.2,0.3,0.6,0.4,0.9,0.2c0.3-0.2,0.4-0.7,0.1-1c-0.9-1.3-2-2.7-3.5-3.5c-1.5-0.8-3.7-0.7-4.9,0.8
											c-0.5,0.7-0.7,1.5-0.8,2.1c-0.2,1.1-0.3,2.3-0.1,3.4c0,0.4,0.4,0.7,0.8,0.6C277.4,187.6,277.4,187.6,277.5,187.6z"/>
									</g>
								</g>
							</g>
						</g>
					</g>
				</g>
			</g>
		</g>
	</g>
	<g>
		<g>
			<g>
				<g>
					<g>
						<g>
							<g>
								<g>
									<g>
										<path d="M291.2,185.6c0.2,0,0.5-0.2,0.5-0.6c0.1-1,0.4-1.9,0.8-2.8c0.2-0.6,0.5-1,0.8-1.3c0.8-0.7,1.9-0.3,2.5,0.5
											c0.8,1,1.2,2.4,1.5,3.7c0.1,0.4,0.4,0.6,0.7,0.4s0.4-0.6,0.3-0.9c-0.4-1.5-0.9-3.1-1.8-4.3c-1-1.2-2.5-1.8-3.8-0.6
											c-0.5,0.5-0.9,1.2-1.1,1.8c-0.4,1-0.7,2.1-0.9,3.2C290.7,185.2,290.9,185.6,291.2,185.6
											C291.2,185.6,291.2,185.6,291.2,185.6z"/>
									</g>
								</g>
							</g>
						</g>
					</g>
				</g>
			</g>
		</g>
	</g>
	<g>
		<rect x="218.4" y="280.9" transform="matrix(0.9916 -0.1296 0.1296 0.9916 -36.9769 30.9311)" width="1.6" height="37.4"/>
	</g>
	<g>
		<g>
			<g>
				<g>
					<g>
						<g>
							<g>
								<g>
									<g>
										<path d="M293.3,204.1c0,0-3.8,0.9-7.4-0.7C282.3,201.8,285.7,223.6,293.3,204.1z"/>
									</g>
								</g>
							</g>
						</g>
					</g>
				</g>
			</g>
		</g>
		<g>
			<g>
				<g>
					<g>
						<g>
							<g>
								<g>
									<g>
										<path class="st1" d="M284.5,207c2.5,0.7,4.4,2,5.4,3.7C286.8,214.6,284.8,210.4,284.5,207z"/>
									</g>
								</g>
							</g>
						</g>
					</g>
				</g>
			</g>
		</g>
	</g>
</g>
<g>
	<g>
		<g>
			<g>
				<g>
					<g>
						<g>
							<g>
								<g>
									<polygon points="400.4,282 394.9,361.5 403.2,378.4 									"/>
								</g>
							</g>
						</g>
					</g>
				</g>
			</g>
		</g>
	</g>
</g>
<g>
	<g>
		<g>
			<g>
				<g>
					<polygon class="st6" points="268.4,399.5 275.8,434.7 290.7,434.7 279.1,397.2 					"/>
				</g>
			</g>
		</g>
	</g>
</g>
<g>
	<g>
		<g>
			<g>
				<g>
					<g>
						<g>
							<g>
								<g>
									<g>
										<path class="st3" d="M432,401.8c-1.2-1-4.3-2.8-6.8-4.1c3.2,3.4,6.3,7,6.5,7.8c0,0.1,1.3,5.6,0.7,8.9h0
											c0,0.7,0.3,0.9,0.5,1c0.8,0.3,2-0.1,2.3-0.4C435.5,411.1,434,403.5,432,401.8z"/>
									</g>
								</g>
							</g>
						</g>
					</g>
				</g>
			</g>
		</g>
	</g>
	<g>
		<g>
			<g>
				<g>
					<g>
						<g>
							<g>
								<g>
									<g>
										<path class="st3" d="M424.4,395.5c2.7,1.4,7,3.8,8.6,5.1c2.6,2.2,4,10.7,3.8,14.4l0,0c0,1,1,1.3,1.2,1.4
											c0.7,0.2,1.4,0,1.5-0.3c0.5-1.2-1.3-10.7-2.9-13.7C436,400.9,430,397.9,424.4,395.5z"/>
									</g>
								</g>
							</g>
						</g>
					</g>
				</g>
			</g>
		</g>
	</g>
	<g>
		<g>
			<g>
				<g>
					<g>
						<g>
							<g>
								<g>
									<g>
										<path class="st3" d="M439,404.1c1,3,2,7.5,2.2,10.4c1.2,0.6,1.8,0.7,2,0.5c0.1-0.1,0.8-0.8-0.5-4.8
											C441.7,407.1,440.2,405.1,439,404.1z"/>
									</g>
								</g>
							</g>
						</g>
					</g>
				</g>
			</g>
		</g>
	</g>
	<g>
		<g>
			<g>
				<g>
					<g>
						<g>
							<g>
								<g>
									<path class="st3" d="M417,390.8c0.1,0.1,13.8,14.2,13.8,14.2l1,9.2l-0.9,1.7l-2.2-0.6l-1.4-1.9l-0.3-2.6l-0.3-2.1l-4.1-2.6
										l-2-1.4c0,0-3.5,0.5-3.8,0.5s-6.3-0.3-6.5-0.3c-0.2,0-2.5-1.1-2.5-1.1L417,390.8z"/>
									<g>
										<path d="M437.9,401.5c-0.7-0.9-4-4-18.1-9.5c-4.1-3.5-13.8-5.8-14.8-6l-16.6-11.5l-5.8,20.5l18,2.8
											c1.2,1.9,7.4,10.8,19.8,7.5l5.6,3.4c0,1.7,0.4,7,3.2,8c0.2,0.1,0.4,0.1,0.6,0.1c0.7,0.1,1.3-0.1,1.8-0.7
											c0.2,0.2,0.5,0.4,0.9,0.5c0.3,0.1,0.6,0.1,0.9,0.2c0.7,0,1.5-0.1,2.2-0.5c0.4,0.6,1,1.1,1.7,1.4c0.1,0,0.2,0.1,0.3,0.1
											c1.4,0.4,2.7,0,3.2-1c0.1-0.2,0.2-0.4,0.2-0.8c0.2,0.1,0.4,0.2,0.5,0.2c1,0.4,1.8,0.3,2.4-0.2c1.1-0.9,1.1-2.9,0-6.4
											C442.3,404,438.8,401.9,437.9,401.5z M430.5,415.1c-0.1,0.1-0.2,0.2-0.5,0.2c-2.1-0.2-2.5-5.3-2.5-7v-0.4l-6.9-4.2
											l-0.3,0.1c-12.8,3.6-18.3-6.6-18.5-7l-0.2-0.4l-17-2.7l4.8-17l15,10.8l0.1,0l0.1,0c0.1,0,10.5,2.4,14.3,5.7
											c5.2,5.5,11,11.8,11.4,12.6C430.8,408,431.7,413.8,430.5,415.1z M433,415.3c-0.2-0.1-0.6-0.3-0.5-1h0
											c0.6-3.3-0.7-8.8-0.7-8.9c-0.2-0.8-3.3-4.3-6.5-7.8c2.5,1.4,5.6,3.1,6.8,4.1c2,1.7,3.5,9.3,3.3,13.1
											C435,415.1,433.8,415.5,433,415.3z M438.1,416.4c-0.3-0.1-1.2-0.4-1.2-1.4l0,0c0.2-3.6-1.2-12.2-3.8-14.4
											c-1.6-1.4-5.9-3.7-8.6-5.1c5.6,2.4,11.6,5.4,12.4,6.9c1.6,3.1,3.4,12.5,2.9,13.7C439.4,416.4,438.8,416.6,438.1,416.4z
											 M443.1,415c-0.2,0.2-0.8,0.1-2-0.5c-0.2-2.9-1.2-7.4-2.2-10.4c1.2,1.1,2.7,3,3.7,6.2C443.9,414.2,443.2,414.9,443.1,415z
											"/>
									</g>
								</g>
							</g>
						</g>
					</g>
				</g>
			</g>
		</g>
	</g>
</g>
<g>
	<g>
		<g>
			<g>
				<g>
					<path class="st7" d="M285.6,403.3l-46.3-3.3l-20.4-4.5l66.2-3.4c3-0.1,5.6,2.2,5.8,5.1l0,0.3
						C291,400.6,288.7,403.2,285.6,403.3z"/>
				</g>
			</g>
		</g>
	</g>
</g>
<g>
	<g>
		<g>
			<g>
				<g>
					<g>
						<g>
							<g>
								<g>
									<path class="st3" d="M301.3,278.7h132.1l-10.3,100.4H291c8,0,6.2-1.8,6.2-4v-92.3C297.2,280.5,299,278.7,301.3,278.7z"/>
								</g>
							</g>
						</g>
					</g>
				</g>
			</g>
		</g>
	</g>
	<g>
		<g>
			<g>
				<g>
					<g>
						<g>
							<g>
								<g>
									<g>
										<path d="M365.3,379.6h-63.6c-2.8,0-5.1-2.2-5.1-5v-91.5c0-2.7,2.3-5,5.1-5v1.1c-2.2,0-4,1.7-4,3.9v91.6
											c0,2.1,1.8,3.9,4,3.9h63.6V379.6z"/>
									</g>
								</g>
							</g>
						</g>
					</g>
				</g>
			</g>
		</g>
	</g>
	<g>
		<g>
			<g>
				<g>
					<g>
						<g>
							<g>
								<g>
									<g>
										<rect x="308.6" y="418.7" width="11" height="7.2"/>
									</g>
								</g>
							</g>
						</g>
					</g>
				</g>
			</g>
		</g>
		<g>
			<g>
				<g>
					<g>
						<g>
							<g>
								<g>
									<g>
										<rect x="324.8" y="418.7" width="11" height="7.2"/>
									</g>
								</g>
							</g>
						</g>
					</g>
				</g>
			</g>
		</g>
		<g>
			<g>
				<g>
					<g>
						<g>
							<g>
								<g>
									<g>
										<rect x="341" y="418.7" width="11" height="7.2"/>
									</g>
								</g>
							</g>
						</g>
					</g>
				</g>
			</g>
		</g>
		<g>
			<g>
				<g>
					<g>
						<g>
							<g>
								<g>
									<g>
										<rect x="357.1" y="418.7" width="11" height="7.2"/>
									</g>
								</g>
							</g>
						</g>
					</g>
				</g>
			</g>
		</g>
		<g>
			<g>
				<g>
					<g>
						<g>
							<g>
								<g>
									<g>
										<rect x="373.3" y="418.7" width="11" height="7.2"/>
									</g>
								</g>
							</g>
						</g>
					</g>
				</g>
			</g>
		</g>
		<g>
			<g>
				<g>
					<g>
						<g>
							<g>
								<g>
									<g>
										<rect x="389.5" y="418.7" width="11" height="7.2"/>
									</g>
								</g>
							</g>
						</g>
					</g>
				</g>
			</g>
		</g>
		<g>
			<g>
				<g>
					<g>
						<g>
							<g>
								<g>
									<g>
										<rect x="405.6" y="418.7" width="11" height="7.2"/>
									</g>
								</g>
							</g>
						</g>
					</g>
				</g>
			</g>
		</g>
		<g>
			<g>
				<g>
					<g>
						<g>
							<g>
								<g>
									<g>
										<rect x="421.8" y="418.7" width="11" height="7.2"/>
									</g>
								</g>
							</g>
						</g>
					</g>
				</g>
			</g>
		</g>
		<g>
			<g>
				<g>
					<g>
						<g>
							<g>
								<g>
									<g>
										<rect x="437.9" y="418.7" width="11" height="7.2"/>
									</g>
								</g>
							</g>
						</g>
					</g>
				</g>
			</g>
		</g>
		<g>
			<g>
				<g>
					<g>
						<g>
							<g>
								<g>
									<g>
										<rect x="297.5" y="422.2" width="157.8" height="11.6"/>
									</g>
								</g>
							</g>
						</g>
					</g>
				</g>
			</g>
		</g>
	</g>
	<g>
		<g>
			<g>
				<g>
					<g>
						<g>
							<g>
								<g>
									<g>
										<rect x="351" y="306.1" class="st2" width="68.1" height="50.2"/>
									</g>
								</g>
							</g>
						</g>
					</g>
				</g>
			</g>
		</g>
		<g>
			<g>
				<g>
					<g>
						<g>
							<g>
								<g>
									<g>
										<rect x="360.3" y="306.1" width="68.1" height="50.2"/>
									</g>
								</g>
							</g>
						</g>
					</g>
				</g>
			</g>
		</g>
		<g>
			<g>
				<g>
					<g>
						<g>
							<g>
								<g>
									<g>
										<rect x="375.9" y="314.4" class="st2" width="43.1" height="120.6"/>
									</g>
								</g>
							</g>
						</g>
					</g>
				</g>
			</g>
		</g>
		<g>
			<g>
				<g>
					<g>
						<g>
							<g>
								<g>
									<g>
										<rect x="382.6" y="314.4" class="st1" width="43.1" height="120.6"/>
									</g>
								</g>
							</g>
						</g>
					</g>
				</g>
			</g>
		</g>
	</g>
	<g>
		<g>
			<g>
				<g>
					<g>
						<g>
							<g>
								<g>
									<g>
										<path d="M376.8,278.2h63.6c2.8,0,5.1,2.2,5.1,5v91.5c0,2.7-2.3,5-5.1,5v-1.1c2.2,0,4-1.7,4-3.9v-91.6c0-2.1-1.8-3.9-4-3.9
											h-63.6V278.2z"/>
									</g>
								</g>
							</g>
						</g>
					</g>
				</g>
			</g>
		</g>
	</g>
</g>
<g>
	<g>
		<g>
			<g>
				<g>
					<rect x="92.4" y="433.8" width="386.8" height="7.6"/>
				</g>
			</g>
		</g>
	</g>
</g>
<g>
	<g>
		<g>
			<g>
				<g>
					<path class="st8" d="M285.8,419l-3.9-12.6l-11.6,2.5l2.1,10.3C276.9,419.1,281.4,419,285.8,419z"/>
				</g>
			</g>
		</g>
	</g>
</g>
<g>
	<g>
		<g>
			<g>
				<g>
					<g>
						<g>
							<g>
								<g>
									<g>
										<path class="st3" d="M291.3,401.9c-5.3-1.8-16.9,0.2-17,0.2l-0.1,0h-0.1l-29.6-1l2.3,19.5l28.2-8.1l0.3,0.3
											c0.4,0.4,10.4,8.4,22-0.6l0.3-0.2l8.8,1.4l0.2,0.4c0.7,1.8,3.3,6.8,5.6,6.1c0.3-0.1,0.4-0.2,0.4-0.4
											c0.6-1.8-2.7-7.5-4.2-9.5C307.6,409.3,299,405.3,291.3,401.9z"/>
									</g>
								</g>
							</g>
						</g>
					</g>
				</g>
			</g>
		</g>
	</g>
	<g>
		<g>
			<g>
				<g>
					<g>
						<g>
							<g>
								<g>
									<g>
										<path class="st9" d="M224.6,253.7l-15.2,1.9l-4.1,14.6l-12.6,55.1c0,0-7.5,103.7,0.5,108.6c9.1,5.6,58.6-14,58.6-14
											l-4.2-19.6l-30.4-5.1l17.2-80.5L224.6,253.7z"/>
									</g>
								</g>
							</g>
						</g>
					</g>
				</g>
			</g>
		</g>
	</g>
	<g>
		<g>
			<g>
				<g>
					<g>
						<g>
							<g>
								<g>
									<g>
										<path class="st10" d="M196.6,434.5c-1.4,0.1-2.6,0.1-3.5,0c-1.6-0.2-6.4-0.8-3.8-68.4c0.5-12.5,2.6-40.9,2.6-40.9l1.1,0.1
											c0,0-2.1,30.1-2.6,40.8c-2.4,61.8,1.5,67,2.8,67.2c9.8,1.2,52.6-12.1,57.8-13.8l-4-18.6c-4.9-0.1-28.5-4.7-29.9-5.7l1-1
											c-0.1,0.8,19.7,5.4,29.4,5.5l0.5,0l4.4,20.6l-0.5,0.2C250.1,421.1,211.4,433.4,196.6,434.5z"/>
									</g>
								</g>
							</g>
						</g>
					</g>
				</g>
			</g>
		</g>
	</g>
	<g>
		<g>
			<g>
				<g>
					<g>
						<g>
							<g>
								<g>
									<g>
										<g>
											<path class="st3" d="M308.5,405.2c-1.7-0.5-5.6-1-8.8-1.4c4.7,2.2,9.4,4.5,10,5.2c0,0.1,3.7,5.1,4.5,8.8l0.1,0
												c0.3,0.7,0.7,0.8,1,0.8c0.9-0.1,2-1,2.1-1.4C316,413.2,311.3,406.1,308.5,405.2z"/>
										</g>
									</g>
								</g>
							</g>
						</g>
					</g>
				</g>
			</g>
		</g>
		<g>
			<g>
				<g>
					<g>
						<g>
							<g>
								<g>
									<g>
										<g>
											<path class="st3" d="M298,402c3.4,0.3,8.8,0.9,11,1.6c3.6,1.2,8.7,9.3,10,13.1l0,0c0.4,1,1.5,0.9,1.9,0.9
												c0.8-0.1,1.4-0.6,1.5-0.9c0-1.4-5.9-10.4-8.7-12.8C312.2,402.6,304.8,402.1,298,402z"/>
										</g>
									</g>
								</g>
							</g>
						</g>
					</g>
				</g>
			</g>
		</g>
		<g>
			<g>
				<g>
					<g>
						<g>
							<g>
								<g>
									<g>
										<g>
											<path class="st3" d="M316.6,404.6c2.2,2.6,5.2,6.9,6.6,9.8c1.5,0.2,2.1,0,2.3-0.3c0-0.1,0.5-1.1-2.5-4.7
												C320.6,406.5,318.3,405.2,316.6,404.6z"/>
										</g>
									</g>
								</g>
							</g>
						</g>
					</g>
				</g>
			</g>
		</g>
		<g>
			<g>
				<g>
					<g>
						<g>
							<g>
								<g>
									<g>
										<g>
											<path d="M314.4,402.4c-1.1-0.6-5.8-2.4-22.6-2.1c-5.6-1.8-16.5-0.1-17.7,0.1l-31.5-1l2.8,23.4l29.3-8.4
												c2,1.5,12.1,7.9,23.4-0.7l7.2,1.1c0.8,1.7,3.3,7,6.7,6.8c0.2,0,0.5,0,0.7-0.1c0.8-0.2,1.3-0.7,1.5-1.4
												c0.4,0.1,0.7,0.2,1.1,0.2c0.3,0,0.6-0.1,1-0.2c0.7-0.2,1.5-0.8,2.1-1.5c0.6,0.5,1.4,0.7,2.4,0.7c0.1,0,0.2,0,0.3,0
												c1.5-0.2,2.8-1.2,2.9-2.4c0-0.2,0-0.5-0.1-0.9c0.2,0,0.4,0,0.6,0c1.2-0.1,2-0.5,2.4-1.2c0.7-1.4-0.1-3.4-2.7-6.5
												C320,403.1,315.5,402.4,314.4,402.4z M312.6,419.5c-0.1,0.2-0.1,0.3-0.4,0.4c-2.3,0.6-4.9-4.3-5.6-6.1l-0.2-0.4l-8.8-1.4
												l-0.3,0.2c-11.6,9.1-21.6,1-22,0.6l-0.3-0.3l-28.2,8.1l-2.3-19.5l29.6,1h0.1l0.1,0c0.1,0,11.7-2,17-0.2
												c7.7,3.4,16.3,7.4,17,8.1C309.9,412,313.2,417.7,312.6,419.5z M315.2,418.6c-0.3,0-0.7-0.1-1-0.8l-0.1,0
												c-0.8-3.6-4.4-8.7-4.5-8.8c-0.5-0.7-5.3-3-10-5.2c3.2,0.3,7.1,0.8,8.8,1.4c2.8,0.9,7.5,8.1,8.9,12
												C317.2,417.6,316.2,418.5,315.2,418.6z M320.9,417.6c-0.3,0-1.5,0.1-1.9-0.9l0,0c-1.3-3.8-6.4-12-10-13.1
												c-2.2-0.7-7.6-1.3-11-1.6c6.8,0.1,14.1,0.6,15.6,1.9c2.9,2.5,8.8,11.4,8.7,12.8C322.3,417,321.7,417.5,320.9,417.6z
												 M325.5,414c-0.1,0.2-0.8,0.5-2.3,0.3c-1.4-2.9-4.4-7.1-6.6-9.8c1.7,0.6,4,1.9,6.4,4.8
												C325.9,412.9,325.5,413.9,325.5,414z"/>
										</g>
									</g>
								</g>
							</g>
						</g>
					</g>
				</g>
			</g>
		</g>
	</g>
	<g>
		<g>
			<g>
				<g>
					<g>
						<g>
							<g>
								<g>
									<g>
										<polygon class="st10" points="210.5,403.4 209.4,402.4 217.6,394 232.7,317 234.1,317.3 219,394.7 										"/>
									</g>
								</g>
							</g>
						</g>
					</g>
				</g>
			</g>
		</g>
	</g>
	<path class="st9" d="M243.7,421.6c0,0,12.5-3.7,12.5-3.7l-3.8-16.5l-13.1-0.7L243.7,421.6z"/>
</g>
<polygon points="228.3,345.3 190.9,347.5 192.3,333.6 229.7,337.6 "/>
<g>
	<path class="st1" d="M197.6,255.4c2.4-3.8,5.5-6.9,9.1-9.4c0.8,1.2,1.5,2.5,2.1,3.7c1.5,3,5.2-0.7,6.4,2.5c2.1,5.8,7.3-4.3,9.3,1.5
		c2.7,7.8,7,22.4,9.6,30.3c1.5,4.5,4.4,22.1,5.1,26.8c0.4,2.6-0.5,13.3,0,15.9l-8.9,15.3l-40.7-4.1L197.6,255.4z"/>
</g>
<g>
	<g>
		<g>
			<g>
				<g>
					<g>
						<g>
							<polygon points="229.1,342.8 234.5,318.7 233.1,318.2 227.7,342.3 							"/>
						</g>
					</g>
				</g>
			</g>
		</g>
	</g>
</g>
<g>
	<g>
		<path class="st11" d="M445.5,184.1H342c-4.4,0-7.9-3.5-7.9-7.9l0,0c0-4.4,3.5-7.9,7.9-7.9h103.4c4.4,0,7.9,3.5,7.9,7.9l0,0
			C453.3,180.6,449.8,184.1,445.5,184.1z"/>
		<path class="st1" d="M409.3,184.1h-75.9c-4.4,0-7.9-3.5-7.9-7.9l0,0c0-4.4,3.5-7.9,7.9-7.9h75.9c4.4,0,7.9,3.5,7.9,7.9l0,0
			C417.2,180.6,413.6,184.1,409.3,184.1z"/>
	</g>
	<text transform="matrix(1 0 0 1 372.2014 160.8215)" class="st1 st12 st13">73%</text>
</g>
<g>
	<g>
		<path class="st2" d="M418.6,262.5l1.6-3.2l0-0.1c0.2-0.4,0.1-0.9-0.3-1.1l-2.5-1.6c0,0-0.1-0.1-0.1-0.1c-0.2-0.2-0.3-0.6-0.2-0.9
			c0.6-1.9,0.9-3.8,0.8-5.8c0-0.1,0-0.2,0-0.2c0.1-0.3,0.3-0.5,0.6-0.6l2.4-0.7c0.3-0.1,0.5-0.4,0.6-0.7c0-0.1,0-0.2,0-0.3l-0.7-3.6
			c-0.1-0.4-0.5-0.7-0.9-0.7l-3.3,0.4c-0.3,0-0.6-0.1-0.8-0.4c-0.2-0.4-0.5-0.8-0.8-1.2c-0.5-0.7-1.1-1.4-1.8-1.9l0,0
			c-0.3-0.2-0.4-0.6-0.2-0.9l1.2-3.1l0.1-0.2c0.2-0.4,0-0.9-0.4-1.1l-3.3-1.6c-0.4-0.2-0.9-0.1-1.1,0.3l-1.8,2.8
			c-0.2,0.3-0.6,0.5-0.9,0.4c-1.5-0.4-3-0.5-4.5-0.4c-0.4,0-0.7-0.2-0.9-0.6l-0.9-2.8c-0.1-0.4-0.6-0.7-1-0.6l-3.6,0.7
			c-0.4,0.1-0.7,0.5-0.7,0.9l0.4,3.8c0,0.3-0.1,0.6-0.4,0.8c-0.3,0.2-0.7,0.4-1,0.7c-0.6,0.5-1.2,1-1.7,1.5
			c-0.2,0.2-0.6,0.3-0.9,0.2l-3.7-1.5c-0.4-0.2-0.9,0-1.1,0.4l-1.6,3.3c-0.2,0.4-0.1,0.8,0.2,1c0,0,0.1,0.1,0.1,0.1l3.1,2
			c0.3,0.2,0.4,0.5,0.4,0.9c0,0,0,0.1,0,0.1c0,0.1,0,0.2-0.1,0.3c-0.3,1-0.4,2.1-0.4,3.1c0,0.4-0.2,0.7-0.6,0.8l-3,0.9
			c-0.4,0.1-0.7,0.6-0.6,1l0.1,0.8l0.5,2.8c0.1,0.4,0.5,0.7,0.9,0.7l3.2-0.4c0.3,0,0.7,0.1,0.8,0.5c0.4,0.8,0.9,1.6,1.5,2.4
			c0.4,0.6,0.9,1.1,1.4,1.6l-0.3,0.6l-1,2.7c-0.1,0.3,0,0.7,0.2,0.9c0,0,0.1,0.1,0.2,0.1l3.3,1.6c0.4,0.2,0.9,0,1.1-0.3l1.2-1.9
			c0.2-0.3,0.6-0.5,1-0.4c1.5,0.5,3.1,0.8,4.6,0.8c0.4,0,0.7,0.2,0.8,0.6l1.1,3.5c0.1,0.4,0.5,0.6,0.9,0.5l3.6-0.7
			c0.4-0.1,0.7-0.5,0.7-0.9l-0.4-4c0-0.3,0.1-0.7,0.4-0.8c0.6-0.4,1.3-0.8,1.9-1.2c0.3-0.2,0.6-0.5,1-0.8c0.2-0.2,0.6-0.3,0.9-0.2
			l3.6,1.4C417.9,263.1,418.4,262.9,418.6,262.5z M410,246.7c0.5,0.8,0.9,1.8,1.1,2.9c0,0.2,0.1,0.5,0.1,0.8
			c0.1,1.2-0.2,2.7-0.7,3.6c-3.6,7.1-13.4,5.9-15.2-1.8c0-0.1-0.1-0.2-0.1-0.4c-0.2-1.2,0-3.1,0.6-4.2c0.3-0.6,0.6-1.1,1-1.6
			C400.3,241.4,407.1,241.9,410,246.7z"/>
	</g>
	<g>
		<path class="st1" d="M446,246.1l1.6-2l0-0.1c0.2-0.2,0.2-0.6,0-0.8l-1.5-1.5c0,0,0-0.1-0.1-0.1c-0.1-0.2-0.1-0.4,0-0.6
			c0.7-1.2,1.2-2.5,1.4-3.9c0-0.1,0-0.1,0-0.2c0.1-0.2,0.3-0.3,0.5-0.4l1.8-0.1c0.2,0,0.4-0.2,0.5-0.4c0-0.1,0-0.1,0-0.2l0-2.6
			c0-0.3-0.2-0.6-0.6-0.6l-2.3-0.2c-0.2,0-0.4-0.2-0.5-0.4c-0.1-0.3-0.2-0.6-0.4-0.9c-0.3-0.6-0.6-1.1-0.9-1.6l0,0
			c-0.1-0.2-0.1-0.5,0-0.7l1.3-2l0.1-0.1c0.2-0.2,0.1-0.6-0.1-0.8l-2-1.6c-0.2-0.2-0.6-0.2-0.8,0.1l-1.7,1.7
			c-0.2,0.2-0.5,0.2-0.7,0.1c-1-0.5-2-0.8-3.1-1c-0.3,0-0.5-0.3-0.5-0.6l-0.2-2.1c0-0.3-0.3-0.6-0.6-0.6l-2.6-0.1
			c-0.3,0-0.6,0.2-0.6,0.5l-0.3,2.8c0,0.2-0.2,0.4-0.4,0.5c-0.3,0.1-0.5,0.2-0.8,0.3c-0.5,0.2-1,0.5-1.4,0.8c-0.2,0.1-0.5,0.1-0.7,0
			l-2.4-1.6c-0.3-0.2-0.6-0.1-0.8,0.1l-1.6,2c-0.2,0.2-0.2,0.5,0,0.7c0,0,0,0.1,0.1,0.1l1.9,1.9c0.2,0.2,0.2,0.4,0.1,0.6
			c0,0,0,0,0,0.1c0,0.1-0.1,0.1-0.1,0.2c-0.3,0.7-0.6,1.4-0.8,2.1c-0.1,0.2-0.3,0.4-0.5,0.4l-2.2,0.2c-0.3,0-0.5,0.3-0.6,0.6l0,0.6
			l0,2c0,0.3,0.2,0.6,0.5,0.6l2.3,0.2c0.2,0,0.5,0.2,0.5,0.4c0.2,0.6,0.4,1.3,0.7,1.9c0.2,0.4,0.5,0.9,0.7,1.3l-0.3,0.4l-1.1,1.7
			c-0.1,0.2-0.1,0.5,0,0.7c0,0,0.1,0.1,0.1,0.1l2,1.6c0.2,0.2,0.6,0.2,0.8-0.1l1.1-1.1c0.2-0.2,0.5-0.2,0.7-0.1c1,0.6,2,1,3.1,1.2
			c0.3,0.1,0.5,0.3,0.5,0.5l0.2,2.6c0,0.3,0.3,0.5,0.6,0.5l2.6,0.1c0.3,0,0.6-0.2,0.6-0.5l0.3-2.9c0-0.2,0.2-0.4,0.4-0.5
			c0.5-0.1,1-0.3,1.5-0.6c0.3-0.1,0.5-0.3,0.8-0.4c0.2-0.1,0.4-0.1,0.6,0l2.3,1.5C445.4,246.4,445.8,246.4,446,246.1z M442.4,233.8
			c0.2,0.7,0.3,1.4,0.3,2.2c0,0.2,0,0.4,0,0.6c-0.1,0.9-0.5,1.8-1,2.4c-3.6,4.4-10.3,2.1-10.4-3.6c0-0.1,0-0.2,0-0.3
			c0-0.9,0.5-2.2,1-2.9c0.3-0.4,0.6-0.7,0.9-0.9C436.4,228.6,441.1,230,442.4,233.8z"/>
	</g>
</g>
<rect x="90" y="542.7" class="st17" width="396.8" height="36.8"/>
<text transform="matrix(1 0 0 1 160.8756 558.3438)" class="st18 st12 st19">Integrasikan Sistem Anda</text>
<g>
	<g>
		<g>
			<g>
				<g>
					<g>
						<g>
							<path class="st1" d="M153.6,352.1c-4.5-7.7-1.9-18.6,7.6-32.2c14.4-20.7,36.8-41,64.6-59.1c0-0.6,0.6-1,1.1-0.7
								c0.3-0.2,0.7-0.4,1-0.6c-0.4-0.2-0.7-0.4-1.1-0.6c-0.1,0-0.1-0.1-0.1-0.1c-28.6,18.4-51.7,39.1-66.4,60.4
								c-9.8,14.1-12.4,25.4-7.6,33.6c7,12.1,29.3,17.4,66.4,15.6c10.3-0.5,20.4-1.5,29-2.5c14.2-1.7,24.3-3.6,24.5-3.7l-0.2-1.2
								C271.2,361.1,169.7,380,153.6,352.1z"/>
						</g>
					</g>
				</g>
			</g>
		</g>
	</g>
</g>
<g>
	<g>
		<g>
			<g>
				<g>
					<g>
						<g>
							<path class="st1" d="M154.1,356.2c-4.5-7.7-1.9-18.6,7.8-32.2c14.2-20.1,36.1-39.8,63.1-57.4c0.1-0.5,0.1-1.1,0.2-1.6
								c-27.5,17.9-49.7,37.9-64.2,58.3c-10,14.1-12.6,25.4-7.8,33.6c7.1,12.1,29.8,17.3,67.5,15.5c10.5-0.5,20.8-1.5,29.5-2.6
								c14.5-1.8,24.7-3.7,24.9-3.7l-0.2-1.2C273.7,365,170.5,384.1,154.1,356.2z"/>
						</g>
					</g>
				</g>
			</g>
		</g>
	</g>
</g>
<g>
	<g>
		<g>
			<g>
				<g>
					<g>
						<path d="M459.2,405.9c-3,1.2-6,2.4-9,3.7c-0.6,0.2-1,0.8-0.8,1.4c0.1,0.5,0.8,1.1,1.4,0.8c3-1.2,6-2.4,9-3.7
							c0.6-0.2,1-0.8,0.8-1.4C460.5,406.2,459.8,405.6,459.2,405.9z"/>
					</g>
				</g>
			</g>
		</g>
	</g>
	<g>
		<g>
			<g>
				<g>
					<g>
						<path d="M444.1,393c-0.1,3.2-0.2,6.5-0.3,9.7c0,0.6,0.3,1.2,1,1.3c0.6,0.1,1.3-0.3,1.3-1c0.1-3.2,0.2-6.5,0.3-9.7
							c0-0.6-0.3-1.2-1-1.3C444.8,392,444.1,392.4,444.1,393z"/>
					</g>
				</g>
			</g>
		</g>
	</g>
	<g>
		<g>
			<g>
				<g>
					<g>
						<path d="M456.7,393.1c-2.7,3.9-5.5,7.8-8.2,11.7c-0.9,1.2,1.1,2.4,2,1.2c2.7-3.9,5.5-7.8,8.2-11.7
							C459.6,393,457.5,391.8,456.7,393.1z"/>
					</g>
				</g>
			</g>
		</g>
	</g>
</g>
</svg>
