<svg width="500" height="500" viewBox="0 0 500 500" fill="none" xmlns="http://www.w3.org/2000/svg">
<path d="M439.492 294.426C447.663 267.841 447.734 238.614 432.913 215.016C418.541 192.132 392.04 177.06 364.887 165.638C321.872 147.558 270.35 136.626 224.938 152.993C195.928 163.446 173.089 183.719 151.964 204.003C131.217 223.919 111.193 244.406 91.9554 265.403C76.6344 282.118 61.2217 300.392 58.8144 321.277C54.9484 354.736 86.1004 383.147 120.68 397.373C155.259 411.599 194.52 416.402 229.314 430.241C250.071 438.501 270.085 450.137 293.239 450.616C365.009 452.094 424.192 344.181 439.492 294.426Z" fill="white"/>
<g opacity="0.65">
<g opacity="0.65">
<g opacity="0.65">
<g opacity="0.65">
<g opacity="0.65">
<g opacity="0.65">
<g opacity="0.65">
<path opacity="0.65" d="M144.773 345.772H79.6948V459.773H144.773V345.772Z" fill="white"/>
</g>
</g>
</g>
</g>
</g>
<g opacity="0.65">
<g opacity="0.65">
<g opacity="0.65">
<g opacity="0.65">
<path opacity="0.65" d="M144.773 360.478H79.6948V361.212H144.773V360.478Z" fill="#CBCCCD"/>
</g>
</g>
</g>
</g>
<g opacity="0.65">
<g opacity="0.65">
<g opacity="0.65">
<g opacity="0.65">
<g opacity="0.65">
<path opacity="0.65" d="M86.1007 345.609H85.3662V360.845H86.1007V345.609Z" fill="#CBCCCD"/>
</g>
</g>
</g>
</g>
</g>
<g opacity="0.65">
<g opacity="0.65">
<g opacity="0.65">
<g opacity="0.65">
<g opacity="0.65">
<path opacity="0.65" d="M94.6993 345.609H93.9648V360.845H94.6993V345.609Z" fill="#CBCCCD"/>
</g>
</g>
</g>
</g>
</g>
<g opacity="0.65">
<g opacity="0.65">
<g opacity="0.65">
<g opacity="0.65">
<g opacity="0.65">
<path opacity="0.65" d="M103.288 345.609H102.554V360.845H103.288V345.609Z" fill="#CBCCCD"/>
</g>
</g>
</g>
</g>
</g>
<g opacity="0.65">
<g opacity="0.65">
<g opacity="0.65">
<g opacity="0.65">
<g opacity="0.65">
<path opacity="0.65" d="M111.877 345.609H111.143V360.845H111.877V345.609Z" fill="#CBCCCD"/>
</g>
</g>
</g>
</g>
</g>
<g opacity="0.65">
<g opacity="0.65">
<g opacity="0.65">
<g opacity="0.65">
<g opacity="0.65">
<path opacity="0.65" d="M120.476 345.609H119.741V360.845H120.476V345.609Z" fill="#CBCCCD"/>
</g>
</g>
</g>
</g>
</g>
<g opacity="0.65">
<g opacity="0.65">
<g opacity="0.65">
<g opacity="0.65">
<g opacity="0.65">
<path opacity="0.65" d="M129.064 345.609H128.33V360.845H129.064V345.609Z" fill="#CBCCCD"/>
</g>
</g>
</g>
</g>
</g>
<g opacity="0.65">
<g opacity="0.65">
<g opacity="0.65">
<g opacity="0.65">
<g opacity="0.65">
<path opacity="0.65" d="M137.664 345.609H136.929V360.845H137.664V345.609Z" fill="#CBCCCD"/>
</g>
</g>
</g>
</g>
</g>
<g opacity="0.65">
<g opacity="0.65">
<g opacity="0.65">
<g opacity="0.65">
<g opacity="0.65">
<path opacity="0.65" d="M146.252 345.609H145.518V360.845H146.252V345.609Z" fill="#CBCCCD"/>
</g>
</g>
</g>
</g>
</g>
<g opacity="0.65">
<g opacity="0.65">
<g opacity="0.65">
<g opacity="0.65">
<g opacity="0.65">
<path opacity="0.65" d="M154.851 345.609H154.117V360.845H154.851V345.609Z" fill="#CBCCCD"/>
</g>
</g>
</g>
</g>
</g>
<g opacity="0.65">
<g opacity="0.65">
<g opacity="0.65">
<g opacity="0.65">
<g opacity="0.65">
<path opacity="0.65" d="M163.44 345.609H162.706V360.845H163.44V345.609Z" fill="#CBCCCD"/>
</g>
</g>
</g>
</g>
</g>
<g opacity="0.65">
<g opacity="0.65">
<g opacity="0.65">
<g opacity="0.65">
<g opacity="0.65">
<path opacity="0.65" d="M172.039 345.609H171.304V360.845H172.039V345.609Z" fill="#CBCCCD"/>
</g>
</g>
</g>
</g>
</g>
<g opacity="0.65">
<g opacity="0.65">
<g opacity="0.65">
<g opacity="0.65">
<g opacity="0.65">
<path opacity="0.65" d="M180.628 345.609H179.893V360.845H180.628V345.609Z" fill="#CBCCCD"/>
</g>
</g>
</g>
</g>
</g>
<g opacity="0.65">
<g opacity="0.65">
<g opacity="0.65">
<g opacity="0.65">
<g opacity="0.65">
<path opacity="0.65" d="M189.216 345.609H188.482V360.845H189.216V345.609Z" fill="#CBCCCD"/>
</g>
</g>
</g>
</g>
</g>
<g opacity="0.65">
<g opacity="0.65">
<g opacity="0.65">
<g opacity="0.65">
<g opacity="0.65">
<path opacity="0.65" d="M144.773 214.282H79.6948V345.609H144.773V214.282Z" fill="white"/>
</g>
</g>
</g>
</g>
</g>
<g opacity="0.65">
<g opacity="0.65">
<g opacity="0.65">
<g opacity="0.65">
<g opacity="0.65">
<path opacity="0.65" d="M289.241 214.282V460.273H145.436V346.272H147.374V345.609H145.436V214.282H289.241Z" fill="white"/>
</g>
</g>
</g>
</g>
</g>
<g opacity="0.65">
<g opacity="0.65">
<g opacity="0.65">
<g opacity="0.65">
<g opacity="0.65">
<path opacity="0.65" d="M410.88 164.272V213.629H264.984L326.697 164.272H410.88Z" fill="white"/>
</g>
</g>
</g>
</g>
</g>
<g opacity="0.65">
<g opacity="0.65">
<g opacity="0.65">
<g opacity="0.65">
<g opacity="0.65">
<path opacity="0.65" d="M410.881 360.845H289.894V460.273H410.881V360.845Z" fill="white"/>
</g>
</g>
</g>
</g>
</g>
<g opacity="0.65">
<g opacity="0.65">
<g opacity="0.65">
<g opacity="0.65">
<g opacity="0.65">
<path opacity="0.65" d="M410.881 444.314H289.894V460.273H410.881V444.314Z" fill="#CBCCCD"/>
</g>
</g>
</g>
</g>
</g>
<g opacity="0.65">
<g opacity="0.65">
<g opacity="0.65">
<g opacity="0.65">
<g opacity="0.65">
<path opacity="0.65" d="M199.814 444.314H78.8276V460.273H199.814V444.314Z" fill="#CBCCCD"/>
</g>
</g>
</g>
</g>
</g>
<g opacity="0.65">
<g opacity="0.65">
<g opacity="0.65">
<g opacity="0.65">
<g opacity="0.65">
<path opacity="0.65" d="M410.881 346.272H289.894V360.182H410.881V346.272Z" fill="white"/>
</g>
</g>
</g>
</g>
</g>
<g opacity="0.65">
<g opacity="0.65">
<g opacity="0.65">
<g opacity="0.65">
<g opacity="0.65">
<path opacity="0.65" d="M410.881 214.282H289.894V345.609H410.881V214.282Z" fill="white"/>
</g>
</g>
</g>
</g>
</g>
<g opacity="0.65">
<g opacity="0.65">
<g opacity="0.65">
<g opacity="0.65">
<g opacity="0.65">
<path opacity="0.65" d="M144.773 345.609V214.282H79.6947V345.609H144.773ZM144.773 460.273V346.272H79.6947V460.273H144.773ZM289.241 460.273V214.282H145.436V345.609H147.374V346.272H145.436V460.273H289.241ZM410.88 360.845H289.894V460.273H410.88V360.845ZM289.894 346.272V360.182H410.88V346.272H289.894ZM410.88 214.282H289.894V345.609H410.88V214.282ZM264.984 213.629H410.88V164.272H326.697L264.984 213.629ZM289.894 460.936V462.139H289.231V460.936H145.426V462.139H144.763V460.936H79.0215V213.629H263.913L326.452 163.619H411.533V213.629V213.956V460.936H289.894V460.936Z" fill="#CBCCCD"/>
</g>
</g>
</g>
</g>
</g>
<g opacity="0.65">
<g opacity="0.65">
<g opacity="0.65">
<g opacity="0.65">
<path opacity="0.65" d="M264.036 256.011H168.173V459.804H264.036V256.011Z" fill="#CBCCCD"/>
</g>
</g>
</g>
</g>
<g opacity="0.65">
<g opacity="0.65">
<g opacity="0.65">
<g opacity="0.65">
<path opacity="0.65" d="M177.71 346.292H173.406V372.287H177.71V346.292Z" fill="white"/>
</g>
</g>
</g>
</g>
<g opacity="0.65">
<g opacity="0.65">
<g opacity="0.65">
<g opacity="0.65">
<path opacity="0.65" d="M437.585 457.489H26V462.119H437.585V457.489Z" fill="#AFB1B2"/>
</g>
</g>
</g>
</g>
<g opacity="0.65">
<g opacity="0.65">
<g opacity="0.65">
<g opacity="0.65">
<path opacity="0.65" d="M111.286 234.576H39.9033L103.676 162.579H377.678L315.691 234.637L111.286 234.576Z" fill="#AFB1B2"/>
</g>
</g>
</g>
</g>
<g opacity="0.65">
<g opacity="0.65">
<g opacity="0.65">
<g opacity="0.65">
<g opacity="0.65">
<path opacity="0.65" d="M59.4775 234.576H71.9934L133.277 162.579H120.751L59.4775 234.576Z" fill="white"/>
</g>
</g>
</g>
</g>
</g>
<g opacity="0.65">
<g opacity="0.65">
<g opacity="0.65">
<g opacity="0.65">
<g opacity="0.65">
<path opacity="0.65" d="M166.122 162.579L104.849 234.576H111.285H117.375L178.648 162.579H166.122Z" fill="white"/>
</g>
</g>
</g>
</g>
</g>
<g opacity="0.65">
<g opacity="0.65">
<g opacity="0.65">
<g opacity="0.65">
<g opacity="0.65">
<path opacity="0.65" d="M224.03 162.579H211.504L150.21 234.586H162.736L224.03 162.579Z" fill="white"/>
</g>
</g>
</g>
</g>
</g>
<g opacity="0.65">
<g opacity="0.65">
<g opacity="0.65">
<g opacity="0.65">
<g opacity="0.65">
<path opacity="0.65" d="M269.401 162.579H256.875L195.581 234.596L208.097 234.606L269.401 162.579Z" fill="white"/>
</g>
</g>
</g>
</g>
</g>
<g opacity="0.65">
<g opacity="0.65">
<g opacity="0.65">
<g opacity="0.65">
<g opacity="0.65">
<path opacity="0.65" d="M314.783 162.579H302.257L240.942 234.616H253.468L314.783 162.579Z" fill="white"/>
</g>
</g>
</g>
</g>
</g>
<g opacity="0.65">
<g opacity="0.65">
<g opacity="0.65">
<g opacity="0.65">
<g opacity="0.65">
<path opacity="0.65" d="M360.154 162.579H347.628L286.303 234.627L298.829 234.637L360.154 162.579Z" fill="white"/>
</g>
</g>
</g>
</g>
</g>
<g opacity="0.65">
<g opacity="0.65">
<g opacity="0.65">
<g opacity="0.65">
<g opacity="0.65">
<path opacity="0.65" d="M138.781 264.448L82.709 318.275L83.5497 319.15L139.621 265.323L138.781 264.448Z" fill="#CBCCCD"/>
</g>
</g>
</g>
</g>
</g>
<g opacity="0.65">
<g opacity="0.65">
<g opacity="0.65">
<g opacity="0.65">
<g opacity="0.65">
<path opacity="0.65" d="M136.039 256.936L79.9673 310.763L80.808 311.638L136.88 257.811L136.039 256.936Z" fill="#CBCCCD"/>
</g>
</g>
</g>
</g>
</g>
<g opacity="0.65">
<path opacity="0.65" d="M367.541 256.677L297.803 324.501L298.315 325.028L368.053 257.204L367.541 256.677Z" fill="#CBCCCD"/>
</g>
<g opacity="0.65">
<path opacity="0.65" d="M372.56 260.631L302.821 328.455L303.333 328.982L373.072 261.158L372.56 260.631Z" fill="#CBCCCD"/>
</g>
<g opacity="0.65">
<g opacity="0.65">
<path opacity="0.65" d="M298.401 345.609H297.667V360.845H298.401V345.609Z" fill="#CBCCCD"/>
</g>
</g>
<g opacity="0.65">
<g opacity="0.65">
<path opacity="0.65" d="M306.99 345.609H306.255V360.845H306.99V345.609Z" fill="#CBCCCD"/>
</g>
</g>
<g opacity="0.65">
<g opacity="0.65">
<path opacity="0.65" d="M315.588 345.609H314.854V360.845H315.588V345.609Z" fill="#CBCCCD"/>
</g>
</g>
<g opacity="0.65">
<g opacity="0.65">
<path opacity="0.65" d="M324.177 345.609H323.443V360.845H324.177V345.609Z" fill="#CBCCCD"/>
</g>
</g>
<g opacity="0.65">
<g opacity="0.65">
<path opacity="0.65" d="M332.776 345.609H332.042V360.845H332.776V345.609Z" fill="#CBCCCD"/>
</g>
</g>
<g opacity="0.65">
<g opacity="0.65">
<path opacity="0.65" d="M341.365 345.609H340.63V360.845H341.365V345.609Z" fill="#CBCCCD"/>
</g>
</g>
<g opacity="0.65">
<g opacity="0.65">
<path opacity="0.65" d="M349.954 345.609H349.219V360.845H349.954V345.609Z" fill="#CBCCCD"/>
</g>
</g>
<g opacity="0.65">
<g opacity="0.65">
<path opacity="0.65" d="M358.553 345.609H357.818V360.845H358.553V345.609Z" fill="#CBCCCD"/>
</g>
</g>
<g opacity="0.65">
<g opacity="0.65">
<path opacity="0.65" d="M367.141 345.609H366.407V360.845H367.141V345.609Z" fill="#CBCCCD"/>
</g>
</g>
<g opacity="0.65">
<g opacity="0.65">
<path opacity="0.65" d="M375.74 345.609H375.006V360.845H375.74V345.609Z" fill="#CBCCCD"/>
</g>
</g>
<g opacity="0.65">
<g opacity="0.65">
<path opacity="0.65" d="M384.329 345.609H383.595V360.845H384.329V345.609Z" fill="#CBCCCD"/>
</g>
</g>
<g opacity="0.65">
<g opacity="0.65">
<path opacity="0.65" d="M392.928 345.609H392.193V360.845H392.928V345.609Z" fill="#CBCCCD"/>
</g>
</g>
<g opacity="0.65">
<g opacity="0.65">
<path opacity="0.65" d="M401.517 345.609H400.782V360.845H401.517V345.609Z" fill="#CBCCCD"/>
</g>
</g>
<g opacity="0.65">
<path opacity="0.65" d="M255.731 317.814L191.776 380.014L192.245 380.496L256.2 318.297L255.731 317.814Z" fill="white"/>
</g>
<g opacity="0.65">
<path opacity="0.65" d="M255.728 324.567L191.773 386.766L192.243 387.248L256.198 325.049L255.728 324.567Z" fill="white"/>
</g>
<g opacity="0.65">
<path opacity="0.65" d="M230.239 389.393L178.026 440.172L178.41 440.567L230.623 389.788L230.239 389.393Z" fill="white"/>
</g>
<g opacity="0.65">
<path opacity="0.65" d="M230.233 394.902L178.021 445.681L178.405 446.076L230.617 395.297L230.233 394.902Z" fill="white"/>
</g>
</g>
</g>
<path d="M402.985 146.609C404.76 151.249 394.254 189.715 389.745 205.277L361.062 186.993L372.404 158.633C373.863 154.972 373.628 150.892 371.752 147.425L339.192 87.4112L345.975 79.5181C365.244 101.066 401.241 142.01 402.985 146.609Z" fill="white"/>
<path d="M370.65 177.58C369.212 176.438 367.722 175.286 366.182 174.205L361.062 186.993L389.745 205.277C390.551 202.503 391.55 198.995 392.632 195.09C385.298 189.257 377.974 183.413 370.65 177.58Z" fill="black"/>
<path d="M389.745 205.277C394.264 189.705 404.77 151.239 402.985 146.609C401.241 142.02 365.234 101.066 345.975 79.5283L339.192 87.4214L371.752 147.435C373.629 150.892 373.863 154.982 372.405 158.643L361.062 187.003L389.745 205.277ZM404.25 146.13C406.545 152.137 392.408 200.984 390.786 206.521L390.541 207.388L359.399 187.533L371.16 158.133C372.466 154.849 372.262 151.178 370.569 148.068L337.57 87.248L345.965 77.4785L346.475 78.0496C348.74 80.5888 401.955 140.103 404.25 146.13Z" fill="black"/>
<path d="M297.279 196.14L297.493 196.109L290.873 169.952L282.009 164.69L268.116 172.96C264.138 172.603 260.578 171.614 257.446 170.217C257.151 175.683 256.11 204.166 267.586 208.469C280.295 213.231 291.261 200.658 291.373 200.515L292.872 201.8C292.781 201.922 285.651 210.101 275.94 211.365L274.41 229.538C277.215 231.129 290.638 237.869 300.492 225.938L297.84 201.269L297.279 196.14Z" fill="white"/>
<path d="M305.5 227.274C293.362 229.048 281.009 228.691 268.993 226.223L265.188 225.438L233.149 467.218L304.715 462.302L307.448 226.988L305.5 227.274Z" fill="#AFB1B2"/>
<path d="M280.03 220.217C284.08 219.289 287.048 215.74 288.721 211.947C289.935 209.193 290.618 206.256 291.383 203.34C288.802 205.797 283.07 210.458 275.929 211.386L275.226 219.748C276.745 220.37 278.449 220.584 280.03 220.217Z" fill="black"/>
<path d="M318.292 155.777L304.582 152.269L292.342 162.569L302.287 150.525C297.677 145.059 278.245 126.683 235.118 141.633C235.118 141.633 238.453 155.023 248.623 164.323C248.796 170.105 250.224 177.631 255.498 183.882C256.202 194.427 258.752 207.296 266.892 210.346C269.33 211.263 271.686 211.6 273.94 211.549L272.318 230.598L272.828 230.915C272.93 230.986 279.5 235.106 287.344 234.8C292.26 234.606 297.677 232.658 302.287 226.886L302.552 226.56L299.655 199.801L318.292 155.777ZM300.492 225.948C290.638 237.89 277.215 231.149 274.41 229.548L275.94 211.376C285.65 210.111 292.78 201.932 292.872 201.81L291.373 200.525C291.261 200.668 280.295 213.242 267.585 208.479C256.1 204.176 257.15 175.693 257.446 170.227C260.578 171.625 264.128 172.614 268.116 172.971L282.009 164.7L290.873 169.962L297.493 196.12L297.279 196.15L297.84 201.29L300.492 225.948Z" fill="black"/>
<path d="M269.534 196.844C269.523 196.844 269.513 196.844 269.503 196.844C269.37 196.823 266.178 196.222 264.484 194.845C262.73 193.427 266.045 187.727 269.136 183.199C269.36 182.863 269.799 182.791 270.105 183.026C270.411 183.26 270.482 183.729 270.258 184.066C267.31 188.39 265.025 192.897 265.372 193.703C266.769 194.825 269.727 195.375 269.758 195.385C270.135 195.457 270.38 195.834 270.319 196.242C270.248 196.63 269.901 196.895 269.534 196.844Z" fill="black"/>
<path d="M280.272 184.017C280.484 182.42 280.013 181.04 279.22 180.935C278.427 180.83 277.612 182.039 277.4 183.635C277.188 185.232 277.658 186.612 278.451 186.717C279.244 186.823 280.059 185.614 280.272 184.017Z" fill="black"/>
<path d="M265.271 184.975C265.483 183.378 265.012 181.998 264.219 181.893C263.426 181.787 262.612 182.996 262.399 184.593C262.187 186.19 262.658 187.57 263.451 187.675C264.244 187.78 265.059 186.571 265.271 184.975Z" fill="black"/>
<path d="M281.254 178.987C280.927 178.936 280.662 178.641 280.662 178.273C280.642 177.233 280.468 176.203 280.132 175.224C279.897 174.541 279.642 174.072 279.326 173.756C278.418 172.858 276.888 173.093 275.899 173.766C274.705 174.592 273.899 176.01 273.236 177.284C273.053 177.641 272.624 177.774 272.288 177.58C271.951 177.386 271.829 176.938 272.022 176.57C272.767 175.133 273.675 173.521 275.154 172.512C276.613 171.502 278.847 171.237 280.275 172.654C280.907 173.287 281.244 174.123 281.437 174.694C281.825 175.826 282.029 177.009 282.049 178.212C282.06 178.62 281.754 178.967 281.366 178.977C281.325 178.998 281.284 178.987 281.254 178.987Z" fill="black"/>
<path d="M266.77 178.865C266.515 178.906 266.249 178.681 266.147 178.335C265.872 177.335 265.474 176.397 264.985 175.53C264.638 174.929 264.332 174.541 264.016 174.317C263.118 173.685 262.057 174.296 261.506 175.204C260.833 176.305 260.609 177.886 260.456 179.273C260.415 179.671 260.129 179.905 259.833 179.803C259.538 179.701 259.334 179.293 259.374 178.906C259.548 177.335 259.813 175.551 260.639 174.194C261.455 172.848 263.026 172.022 264.434 173.022C265.056 173.47 265.515 174.194 265.811 174.694C266.382 175.683 266.841 176.774 267.157 177.927C267.269 178.325 267.127 178.732 266.851 178.834C266.831 178.855 266.8 178.865 266.77 178.865Z" fill="black"/>
<path d="M278.918 195.151C278.51 197.904 276.878 200.913 274.073 201.82C271.737 202.575 268.82 201.688 267.81 199.332C267.545 198.7 266.606 199.21 266.871 199.842C268.055 202.616 271.564 203.748 274.328 202.86C277.633 201.8 279.51 198.445 279.989 195.192C280.091 194.508 279.02 194.478 278.918 195.151Z" fill="black"/>
<path d="M274.022 438.399C234.424 439.98 211.198 430.567 210.851 430.414L212.249 426.733C212.748 426.947 263.73 447.526 343.986 421.358L345.129 425.142C317.863 434.034 293.882 437.603 274.022 438.399Z" fill="white"/>
<path d="M275.328 415.332C235.73 416.912 212.504 407.5 212.157 407.347L213.554 403.665C214.054 403.879 265.035 424.459 345.292 398.291L346.434 402.074C319.169 410.977 295.188 414.536 275.328 415.332Z" fill="white"/>
<path d="M276.644 392.264C237.046 393.845 213.819 384.432 213.473 384.279L214.87 380.598C215.37 380.802 266.351 401.391 346.608 375.223L347.75 379.007C320.485 387.909 296.504 391.468 276.644 392.264Z" fill="white"/>
<path d="M277.949 369.207C238.351 370.787 215.125 361.375 214.778 361.222L216.176 357.541C216.676 357.744 267.657 378.334 347.914 352.166L349.056 355.95C321.79 364.842 297.809 368.411 277.949 369.207Z" fill="white"/>
<path d="M279.255 346.139C239.657 347.72 216.431 338.307 216.084 338.155L217.481 334.473C217.981 334.687 268.963 355.266 349.219 329.099L350.362 332.882C323.096 341.785 299.115 345.344 279.255 346.139Z" fill="white"/>
<path d="M280.571 323.072C240.973 324.653 217.747 315.24 217.4 315.087L218.797 311.406C219.297 311.61 270.279 332.199 350.535 306.031L351.678 309.815C324.412 318.718 300.431 322.287 280.571 323.072Z" fill="white"/>
<path d="M281.876 300.015C242.279 301.595 219.052 292.183 218.706 292.03L220.103 288.348C220.603 288.552 271.584 309.142 351.841 282.974L352.983 286.758C325.718 295.65 301.737 299.219 281.876 300.015Z" fill="white"/>
<path d="M283.192 276.947C243.594 278.528 220.368 269.115 220.021 268.962L221.418 265.281C221.918 265.495 272.9 286.074 353.156 259.907L354.299 263.69C327.033 272.593 303.042 276.152 283.192 276.947Z" fill="white"/>
<path d="M284.498 253.88C244.9 255.461 221.673 246.048 221.327 245.895L222.724 242.214C223.224 242.418 274.205 263.007 354.462 236.839L355.604 240.623C328.339 249.525 304.358 253.095 284.498 253.88Z" fill="white"/>
<path d="M198.447 258.979L202.038 286.829C161.859 294.987 101.197 304.838 97.0555 298.842C87.508 285.034 128.075 192.795 128.493 191.867L128.544 191.745L128.554 191.612C128.656 188.971 128.901 187.146 129.483 184.871C130.166 182.179 130.941 179.13 132.777 176.856C133.756 175.653 135.042 174.663 136.184 173.827C139.295 171.553 142.59 169.483 145.987 167.678C145.038 170.727 144.13 173.746 143.253 176.683C142.223 180.109 141.162 183.648 140.04 187.227C139.744 188.155 139.469 188.706 139.234 189.195C138.867 189.95 138.561 190.603 138.316 192.153L132.022 269.217L198.447 258.979Z" fill="white"/>
<path d="M198.447 258.979L166.194 263.945C164.072 274.092 162.144 284.269 160.41 294.477C174.711 292.122 189.389 289.389 202.028 286.819L198.447 258.979Z" fill="black"/>
<path d="M202.028 286.829L198.437 258.979L132.002 269.217L138.296 192.153C138.541 190.603 138.847 189.95 139.214 189.195C139.448 188.706 139.724 188.165 140.02 187.227C141.152 183.648 142.213 180.109 143.233 176.683C144.11 173.746 145.018 170.727 145.966 167.678C142.56 169.483 139.265 171.553 136.164 173.827C135.032 174.653 133.736 175.653 132.757 176.856C130.921 179.12 130.146 182.179 129.462 184.871C128.881 187.146 128.636 188.981 128.534 191.612L128.524 191.745L128.473 191.867C128.065 192.795 87.4877 285.034 97.0353 298.842C101.187 304.838 161.859 294.987 202.028 286.829ZM199.6 257.439L203.527 287.91L202.915 288.043C202.66 288.094 177.516 293.203 151.964 297.19C128.299 300.892 114.774 302.014 106.97 302.014C97.6065 302.014 96.4743 300.382 95.9438 299.617C86.0597 285.32 124.882 196.691 127.198 191.439C127.31 188.798 127.575 186.85 128.167 184.545C128.891 181.72 129.697 178.508 131.727 176.01C132.808 174.684 134.175 173.633 135.378 172.746C138.979 170.105 142.825 167.739 146.813 165.73L148.241 165.006L147.752 166.536C146.619 170.115 145.558 173.654 144.538 177.08C143.508 180.507 142.447 184.056 141.305 187.645C140.978 188.675 140.693 189.277 140.438 189.797C140.101 190.501 139.846 191.01 139.642 192.346L133.491 267.627L199.6 257.439Z" fill="black"/>
<path d="M265.188 225.438C265.188 225.438 255.018 225.479 238.371 231.139C221.51 236.88 177.944 244.906 175.19 248.659L173.956 302.013L218.603 300.188L203.068 437.206L242.095 473L258.956 323.663L265.188 225.438Z" fill="#E1371B"/>
<path d="M357.175 305.777L354.35 351.911L355.431 425.805L295.688 470.859L302.603 322.052L307.459 226.978L345.129 225.469C352.687 225.163 360.133 227.386 366.294 231.771L357.175 305.777Z" fill="#E1371B"/>
<path d="M322.239 222.481L355.023 179.783L394.958 206.368L352.932 291.704L322.239 222.481Z" fill="#E1371B"/>
<path d="M273.41 217.78L258.976 323.674L239.422 266.903L251.704 258.622L242.35 232.189L273.41 217.78Z" fill="#E1371B"/>
<path d="M301.696 214.353L302.604 322.062L327.564 267.453L316.15 258.02L331.399 225.377L301.696 214.353Z" fill="#E1371B"/>
<path d="M257.62 327.559L238.259 266.495L250.51 258.224L241.421 232.516L243.288 231.863L252.887 259.01L240.595 267.311L259.517 326.957L257.62 327.559Z" fill="black"/>
<path d="M303.501 322.47L301.695 321.644L326.39 267.627L316.088 255.746L330.43 228.171L332.184 229.089L318.465 255.471L328.726 267.29L303.501 322.47Z" fill="black"/>
<path d="M157.238 185.504C156.371 185.504 156.371 186.85 157.238 186.85C158.105 186.85 158.105 185.504 157.238 185.504Z" fill="#AFB1B2"/>
<path d="M170.61 285.259C170.457 284.963 170.039 284.851 169.743 284.993C169.692 284.963 169.641 284.922 169.57 284.912C169.203 284.83 168.846 285.024 168.744 285.381C168.53 286.074 168.326 286.778 168.111 287.471C167.989 287.89 168.336 288.328 168.764 288.328C169.488 288.328 170.141 287.9 170.508 287.288C170.896 286.676 170.937 285.901 170.61 285.259Z" fill="#AFB1B2"/>
<path d="M343.252 73.5422C358.756 90.1443 360.654 113.875 382.472 135.473C382.472 135.473 347.975 150.944 318.536 157.45L299.319 88.7268L343.252 73.5422Z" fill="white"/>
<path d="M358.481 111.09C361.103 114.558 363.714 118.025 366.335 121.502C368.61 124.521 371.895 127.713 373.557 131.078C372.955 131.751 372.16 132.251 371.283 132.485C371.884 133.301 372.272 134.219 373.119 134.8C369.579 136.636 333.398 153.585 324.626 148.516C322.198 147.109 318.975 148.761 316.15 148.883L299.329 88.7164L335.224 76.3159C337.978 81.3434 340.855 86.3098 343.874 91.1843C348.189 98.1698 353.503 104.503 358.481 111.09Z" fill="black"/>
<path d="M261.894 61.1722L323.025 34.821C323.025 34.821 349.536 106.501 368.376 132.975L303.96 158.225C303.96 158.235 269.871 85.708 261.894 61.1722Z" fill="black"/>
<path d="M331.287 26.8975C331.287 26.8975 355.523 103.075 373.231 128.794L305.388 155.39C305.388 155.39 265.291 70.0953 261.894 53.2078L331.287 26.8975Z" fill="white"/>
<path d="M369.304 123.797L344.241 68.3412C342.477 64.4355 340.937 60.387 339.672 56.2875L330.859 27.7744L262.149 53.84L261.669 52.5755L331.726 26L340.957 55.8897C342.201 59.9281 343.721 63.9358 345.465 67.7906L370.528 123.246L369.304 123.797Z" fill="black"/>
<path d="M340.906 44.4071C341.008 44.3561 341.08 44.2542 341.08 44.1318C341.069 43.9686 340.937 43.8462 340.774 43.8462L329.818 44.2541C329.308 44.2745 328.859 43.9686 328.696 43.5097C328.492 42.9284 328.798 42.286 329.39 42.082L336.612 39.4612C337.122 39.2776 337.662 39.3388 338.111 39.6345C338.56 39.9303 338.815 40.3994 338.825 40.9297C338.835 41.8067 338.152 42.5307 337.254 42.5817L336.602 42.6123C336.438 42.6225 336.306 42.7551 336.316 42.9182C336.326 43.0814 336.459 43.2038 336.632 43.1936L337.285 43.163C338.509 43.1018 339.458 42.1126 339.437 40.9093C339.427 40.1852 339.07 39.5428 338.458 39.1349C337.846 38.7269 337.101 38.6454 336.408 38.8901L329.186 41.5109C328.288 41.8373 327.819 42.8163 328.135 43.6933C328.39 44.4071 329.074 44.8558 329.849 44.8354L340.804 44.4275C340.835 44.4275 340.876 44.4173 340.906 44.4071Z" fill="#E1251B"/>
<path d="M274.593 63.0487C281.213 60.4686 287.864 57.9702 294.555 55.5737C301.247 53.1772 307.979 50.8725 314.742 48.6698C318.547 47.4257 322.362 46.2121 326.187 45.0292C326.554 44.917 326.666 45.4983 326.299 45.6105C319.505 47.7112 312.743 49.9037 306.021 52.1982C299.319 54.4825 292.638 56.8586 286.007 59.3265C282.284 60.7134 278.571 62.1309 274.869 63.579C274.491 63.7217 274.226 63.1915 274.593 63.0487Z" fill="#AFB1B2"/>
<path d="M275.787 68.1373C282.845 65.8326 289.904 63.5279 296.952 61.2334C304.011 58.9287 311.07 56.624 318.118 54.3295C322.076 53.0344 326.034 51.7494 329.991 50.4543C330.359 50.3319 330.461 50.9132 330.104 51.0356C323.045 53.3403 315.986 55.645 308.938 57.9395C301.879 60.2442 294.821 62.5489 287.772 64.8434C283.814 66.1385 279.857 67.4235 275.899 68.7186C275.532 68.841 275.419 68.2597 275.787 68.1373Z" fill="#AFB1B2"/>
<path d="M278.235 74.7252C284.987 72.0636 291.791 69.5141 298.635 67.087C305.439 64.6803 312.284 62.396 319.169 60.2239C323.076 59.0002 326.982 57.807 330.909 56.6547C331.277 56.5425 331.389 57.1238 331.022 57.236C324.055 59.2755 317.119 61.4374 310.223 63.7319C303.399 65.9959 296.616 68.3821 289.884 70.8908C286.079 72.3083 282.284 73.7666 278.5 75.2555C278.143 75.388 277.878 74.8577 278.235 74.7252Z" fill="#AFB1B2"/>
<path d="M288.945 93.8968C295.698 91.2352 302.501 88.6857 309.346 86.2587C316.15 83.852 322.994 81.5677 329.879 79.3955C333.786 78.1718 337.693 76.9787 341.62 75.8263C341.987 75.7141 342.099 76.2954 341.732 76.4076C334.765 78.4471 327.829 80.6091 320.934 82.9036C314.109 85.1675 307.326 87.5538 300.594 90.0624C296.789 91.4799 292.995 92.9382 289.21 94.4271C288.843 94.5699 288.578 94.0396 288.945 93.8968Z" fill="#AFB1B2"/>
<path d="M288.955 102.84C295.943 99.8014 302.991 96.9053 310.101 94.1519C317.159 91.4188 324.29 88.8184 331.46 86.3607C335.53 84.9636 339.621 83.6175 343.721 82.3224C344.109 82.2 344.282 82.8731 343.905 82.9955C336.622 85.3104 329.39 87.7578 322.219 90.3583C315.119 92.9281 308.071 95.6407 301.094 98.4859C297.146 100.097 293.219 101.749 289.312 103.452C288.925 103.615 288.588 103.004 288.955 102.84Z" fill="#AFB1B2"/>
<path d="M296.096 116.995C303.175 114.191 310.315 111.519 317.516 109C324.667 106.491 331.868 104.125 339.131 101.902C343.242 100.638 347.373 99.4241 351.514 98.2616C351.902 98.1494 352.065 98.8225 351.667 98.9346C344.313 101.015 336.999 103.228 329.747 105.594C322.566 107.939 315.436 110.417 308.356 113.038C304.358 114.517 300.37 116.047 296.412 117.617C296.045 117.77 295.718 117.148 296.096 116.995Z" fill="#AFB1B2"/>
<path d="M301.267 126.214C308.346 123.409 315.486 120.737 322.688 118.219C329.838 115.71 337.04 113.344 344.303 111.121C348.413 109.856 352.544 108.643 356.686 107.48C357.073 107.368 357.237 108.041 356.839 108.153C349.484 110.234 342.171 112.447 334.918 114.813C327.737 117.158 320.607 119.636 313.528 122.257C309.529 123.736 305.541 125.265 301.583 126.836C301.206 126.989 300.89 126.367 301.267 126.214Z" fill="#AFB1B2"/>
<path d="M282.713 78.3248C289.69 76.0915 296.687 73.9194 303.695 71.7982C310.703 69.6771 317.741 67.6069 324.779 65.598C328.757 64.466 332.735 63.3443 336.724 62.2429C337.101 62.1409 337.203 62.7222 336.836 62.8242C329.777 64.772 322.729 66.7809 315.691 68.8409C308.652 70.9008 301.645 73.0118 294.647 75.1839C290.7 76.4076 286.752 77.6518 282.815 78.9163C282.458 79.0183 282.346 78.4472 282.713 78.3248Z" fill="#AFB1B2"/>
<path d="M284.967 85.3817C291.944 83.1484 298.941 80.9763 305.949 78.8551C312.957 76.734 319.995 74.6638 327.033 72.6549C331.011 71.5229 334.99 70.4012 338.978 69.2998C339.355 69.1978 339.457 69.7791 339.09 69.8811C332.031 71.8288 324.983 73.8378 317.945 75.8978C310.917 77.9577 303.899 80.0687 296.901 82.2408C292.954 83.4645 289.006 84.7087 285.069 85.9732C284.702 86.0854 284.6 85.5041 284.967 85.3817Z" fill="#AFB1B2"/>
<path d="M293.332 112.447C300.421 109.163 307.53 105.93 314.661 102.749C321.791 99.5669 328.951 96.4464 336.122 93.3666C340.172 91.633 344.231 89.9096 348.301 88.2168C348.679 88.0536 348.852 88.6247 348.475 88.7878C341.273 91.8064 334.092 94.8657 326.932 97.9862C319.771 101.107 312.641 104.278 305.521 107.501C301.502 109.326 297.493 111.162 293.495 113.008C293.128 113.181 292.954 112.62 293.332 112.447Z" fill="#AFB1B2"/>
<path d="M342.446 120.187C344.272 120.156 346.078 119.963 347.873 119.616C347.649 119.126 347.853 118.392 348.383 118.127C348.975 117.831 349.658 117.974 350.27 118.127C351.035 118.321 351.8 118.545 352.585 118.688C352.963 118.759 353.351 118.81 353.728 118.851C353.881 118.861 354.218 118.922 354.33 118.79C354.411 118.688 354.391 118.535 354.371 118.423C354.238 117.841 353.626 117.495 353.606 116.862C353.555 115.435 355.574 115.679 356.472 115.822C358.053 116.077 359.552 116.597 360.96 117.342C361.297 117.525 360.96 118.015 360.623 117.831C359.552 117.26 358.41 116.832 357.216 116.567C356.737 116.455 353.983 115.802 354.218 116.934C354.32 117.434 354.83 117.76 354.952 118.27C355.044 118.647 354.993 119.075 354.636 119.31C354.177 119.616 353.442 119.432 352.942 119.351C352.31 119.249 351.688 119.106 351.066 118.953C350.413 118.79 349.648 118.453 348.964 118.565C348.679 118.606 348.444 118.739 348.393 119.035C348.363 119.208 348.383 119.473 348.607 119.493C348.944 119.524 348.975 120.003 348.638 120.075C346.588 120.513 344.507 120.748 342.406 120.778C342.008 120.778 342.059 120.187 342.446 120.187Z" fill="#AFB1B2"/>
<path d="M175.834 264.343C174.691 268.534 173.539 272.726 172.396 276.917C171.396 280.557 170.876 285.106 169.234 288.481C168.336 288.42 167.449 288.083 166.725 287.543C166.449 288.522 165.96 289.389 166.011 290.409C162.39 288.726 126.862 270.462 125.505 260.427C125.128 257.643 121.853 256.103 120.038 253.941L157.381 203.86L189.135 224.684C186.84 229.936 184.667 235.249 182.658 240.613C179.781 248.302 178.017 256.379 175.834 264.343Z" fill="black"/>
<path d="M105.798 266.444C105.798 266.444 135.297 176.876 144.447 162.273L212.861 190.919C212.861 190.919 174.049 257.602 169.234 288.491" fill="#E1251B"/>
<path d="M156.33 157.409L214.554 189.675C214.554 189.675 174.018 254.461 164.572 285.554L105.206 250.015C105.196 250.015 141.774 178.712 156.33 157.409Z" fill="black"/>
<path d="M225.876 191.367C225.876 191.367 180.383 257.102 170.845 286.839L108.327 249.413C108.327 249.413 151.342 165.547 162.634 152.544L225.876 191.367Z" fill="white"/>
<path d="M184.871 258.214L183.667 257.602C191.726 241.745 221.235 197.15 224.938 191.561L173.61 158.796L174.334 157.654L226.825 191.153L226.448 191.724C226.111 192.234 193.399 241.439 184.871 258.214Z" fill="black"/>
<path d="M217.9 209.683C218.002 209.734 218.135 209.724 218.226 209.652C218.349 209.55 218.369 209.356 218.257 209.234L211.239 200.811C210.913 200.423 210.882 199.883 211.147 199.465C211.474 198.944 212.178 198.802 212.708 199.138L219.195 203.248C219.654 203.533 219.93 204.013 219.971 204.543C220.011 205.073 219.797 205.573 219.379 205.899C218.696 206.45 217.696 206.348 217.115 205.665L216.696 205.175C216.584 205.053 216.4 205.033 216.278 205.135C216.156 205.237 216.145 205.43 216.247 205.553L216.666 206.042C217.461 206.98 218.828 207.123 219.767 206.368C220.328 205.92 220.623 205.237 220.572 204.512C220.521 203.788 220.134 203.136 219.512 202.748L213.024 198.639C212.218 198.129 211.158 198.353 210.647 199.138C210.239 199.77 210.301 200.597 210.79 201.188L217.808 209.611C217.829 209.632 217.859 209.662 217.9 209.683Z" fill="#E1251B"/>
<path d="M162.593 168.596C168.683 172.257 174.722 175.999 180.709 179.824C186.697 183.658 192.633 187.574 198.509 191.572C201.814 193.825 205.108 196.099 208.383 198.404C208.699 198.628 208.301 199.067 207.995 198.843C202.181 194.753 196.316 190.745 190.389 186.819C184.483 182.914 178.526 179.079 172.508 175.337C169.132 173.236 165.745 171.166 162.328 169.116C162.012 168.932 162.267 168.402 162.593 168.596Z" fill="#AFB1B2"/>
<path d="M159.309 172.655C165.45 176.836 171.58 181.007 177.721 185.188C183.861 189.369 189.992 193.54 196.132 197.721C199.57 200.066 203.018 202.402 206.455 204.747C206.771 204.961 206.384 205.4 206.067 205.186C199.927 201.004 193.796 196.834 187.656 192.652C181.515 188.471 175.385 184.3 169.244 180.119C165.807 177.774 162.359 175.439 158.921 173.093C158.595 172.879 158.983 172.44 159.309 172.655Z" fill="#AFB1B2"/>
<path d="M155.586 178.62C161.818 182.332 168 186.156 174.099 190.093C180.158 193.998 186.156 198.016 192.083 202.146C195.439 204.482 198.774 206.858 202.079 209.254C202.395 209.479 201.997 209.917 201.691 209.693C195.816 205.43 189.859 201.259 183.841 197.211C177.874 193.193 171.845 189.287 165.745 185.493C162.298 183.342 158.819 181.231 155.331 179.15C155.004 178.946 155.259 178.416 155.586 178.62Z" fill="#AFB1B2"/>
<path d="M146.946 198.812C153.178 202.524 159.36 206.348 165.46 210.284C171.519 214.19 177.517 218.208 183.443 222.338C186.799 224.673 190.134 227.049 193.439 229.446C193.756 229.67 193.358 230.109 193.052 229.884C187.176 225.622 181.219 221.451 175.201 217.402C169.234 213.384 163.205 209.479 157.106 205.685C153.658 203.533 150.18 201.422 146.691 199.342C146.354 199.138 146.609 198.608 146.946 198.812Z" fill="#AFB1B2"/>
<path d="M139.887 204.288C146.558 207.959 153.158 211.763 159.686 215.71C166.174 219.626 172.58 223.674 178.914 227.855C182.505 230.221 186.064 232.638 189.604 235.085C189.941 235.32 189.512 235.871 189.186 235.636C182.902 231.282 176.537 227.06 170.101 222.97C163.726 218.922 157.269 215.006 150.751 211.223C147.058 209.081 143.345 206.99 139.612 204.931C139.255 204.737 139.53 204.084 139.887 204.288Z" fill="#AFB1B2"/>
<path d="M133.032 218.585C139.581 222.471 146.058 226.489 152.454 230.649C158.809 234.779 165.082 239.032 171.284 243.417C174.793 245.905 178.281 248.424 181.739 250.994C182.066 251.239 181.627 251.769 181.301 251.534C175.16 246.986 168.938 242.55 162.634 238.257C156.391 234.004 150.067 229.874 143.671 225.887C140.05 223.623 136.409 221.41 132.747 219.238C132.39 219.014 132.686 218.381 133.032 218.585Z" fill="#AFB1B2"/>
<path d="M128.902 228.314C135.45 232.199 141.928 236.217 148.323 240.378C154.678 244.508 160.951 248.761 167.153 253.146C170.662 255.634 174.15 258.153 177.608 260.723C177.935 260.967 177.496 261.498 177.17 261.263C171.029 256.715 164.807 252.279 158.503 247.986C152.261 243.733 145.936 239.603 139.541 235.616C135.92 233.352 132.278 231.139 128.616 228.967C128.259 228.742 128.555 228.11 128.902 228.314Z" fill="#AFB1B2"/>
<path d="M155.473 184.362C161.502 188.522 167.5 192.724 173.467 196.976C179.434 201.229 185.371 205.522 191.267 209.866C194.602 212.324 197.917 214.792 201.232 217.27C201.538 217.504 201.151 217.943 200.845 217.708C194.979 213.313 189.084 208.959 183.157 204.655C177.231 200.352 171.264 196.089 165.276 191.888C161.889 189.511 158.493 187.146 155.086 184.8C154.759 184.586 155.157 184.147 155.473 184.362Z" fill="#AFB1B2"/>
<path d="M151.261 190.46C157.289 194.621 163.287 198.822 169.254 203.075C175.221 207.327 181.158 211.62 187.054 215.965C190.389 218.422 193.704 220.89 197.019 223.368C197.325 223.603 196.938 224.041 196.632 223.807C190.767 219.411 184.871 215.057 178.944 210.753C173.018 206.45 167.051 202.187 161.063 197.986C157.677 195.61 154.28 193.244 150.873 190.898C150.546 190.674 150.944 190.235 151.261 190.46Z" fill="#AFB1B2"/>
<path d="M134.951 213.619C141.877 217.219 148.782 220.87 155.657 224.571C162.532 228.273 169.377 232.026 176.201 235.82C180.046 237.961 183.892 240.123 187.727 242.305C188.084 242.509 187.737 242.989 187.38 242.785C180.597 238.93 173.773 235.116 166.929 231.363C160.084 227.61 153.209 223.898 146.314 220.237C142.417 218.177 138.51 216.128 134.604 214.088C134.236 213.905 134.583 213.425 134.951 213.619Z" fill="#AFB1B2"/>
<path d="M158.84 257.214C159.972 258.642 161.237 259.958 162.604 261.161C162.848 260.682 163.562 260.406 164.093 260.661C164.695 260.947 164.99 261.579 165.245 262.15C165.562 262.874 165.857 263.619 166.215 264.322C166.388 264.669 166.582 265.006 166.786 265.332C166.867 265.464 167.031 265.77 167.204 265.77C167.337 265.77 167.439 265.668 167.52 265.577C167.898 265.118 167.796 264.424 168.285 264.016C169.387 263.099 170.427 264.853 170.856 265.648C171.621 267.055 172.131 268.565 172.396 270.125C172.457 270.502 171.865 270.533 171.804 270.155C171.6 268.962 171.233 267.79 170.723 266.688C170.519 266.24 169.356 263.67 168.601 264.547C168.275 264.934 168.316 265.536 168 265.944C167.755 266.25 167.377 266.464 166.98 266.331C166.459 266.158 166.153 265.464 165.908 265.016C165.602 264.455 165.327 263.874 165.072 263.282C164.807 262.67 164.603 261.854 164.093 261.385C163.879 261.192 163.634 261.079 163.379 261.222C163.226 261.304 163.022 261.487 163.144 261.671C163.328 261.956 162.961 262.273 162.706 262.048C161.104 260.692 159.645 259.183 158.34 257.551C158.105 257.225 158.595 256.909 158.84 257.214Z" fill="#AFB1B2"/>
<path d="M133.522 188.797L132.971 187.563C135.817 186.289 138.959 185.758 142.07 186.024L142.498 186.064C143.294 186.146 144.039 186.217 144.712 186.013C145.344 185.82 145.946 185.228 145.844 184.647C145.742 184.066 145.008 183.637 143.661 183.362C141.346 182.893 139.285 182.577 137.541 183.413L136.949 182.199C139.244 181.088 141.948 181.639 143.926 182.036C144.651 182.179 146.854 182.628 147.17 184.402C147.415 185.748 146.313 186.931 145.099 187.298C144.181 187.574 143.253 187.482 142.366 187.4L141.948 187.36C139.081 187.125 136.164 187.614 133.522 188.797Z" fill="black"/>
<path d="M146.956 183.78C146.742 183.78 146.538 183.78 146.334 183.77C144.518 183.709 142.692 183.495 140.917 183.148L141.182 181.822C142.896 182.159 144.64 182.363 146.385 182.424C147.609 182.465 148.996 182.414 149.945 181.71C150.23 181.506 150.353 181.272 150.332 181.159C150.312 181.078 150.2 180.925 149.771 180.701C147.027 179.263 143.722 178.845 140.703 179.538L140.397 178.222C143.722 177.458 147.364 177.917 150.393 179.507C150.903 179.773 151.505 180.17 151.648 180.894C151.781 181.567 151.444 182.281 150.73 182.801C149.639 183.607 148.251 183.78 146.956 183.78Z" fill="black"/>
<path d="M149.547 179.925C148.874 179.925 148.2 179.854 147.548 179.793C146.313 179.67 145.15 179.548 144.079 179.874L143.682 178.579C145.008 178.171 146.364 178.314 147.68 178.447C148.965 178.579 150.179 178.702 151.271 178.324C151.577 178.212 151.985 178.018 152.138 177.702C152.321 177.315 152.097 176.795 151.801 176.489C151.413 176.101 150.863 175.877 150.159 175.652C147.976 174.969 145.711 174.653 143.427 174.704L143.396 173.358C145.834 173.297 148.251 173.644 150.567 174.368C151.342 174.612 152.138 174.918 152.75 175.53C153.515 176.295 153.77 177.427 153.352 178.284C153.076 178.865 152.505 179.313 151.72 179.599C151.005 179.844 150.281 179.925 149.547 179.925Z" fill="black"/>
<path d="M144.722 174.653L144.253 173.389C144.661 173.236 145.059 173.062 145.456 172.879C147.027 172.185 148.802 171.4 151.587 171.93C151.913 171.981 153.066 171.839 153.158 171.42C153.27 170.89 152.842 170.513 152.454 170.35C148.251 168.585 144.11 168.912 139.785 171.339L139.122 170.166C143.835 167.515 148.364 167.168 152.974 169.106C154.096 169.575 154.698 170.615 154.484 171.696C154.168 173.266 151.913 173.378 151.342 173.266C148.976 172.818 147.537 173.45 146.017 174.123C145.579 174.306 145.161 174.49 144.722 174.653Z" fill="black"/>
<path d="M333.215 65.6081C336.581 64.2314 339.886 64.2008 343.283 65.4959C344.466 65.9446 345.129 67.1683 344.864 68.4124L344.711 69.1263L345.445 69.2181C346.016 69.2895 346.618 69.8809 346.812 70.5336C346.995 71.1455 346.934 71.9001 346.638 72.7669L346.445 73.3278L345.108 73.5419C344.139 73.3176 343.16 73.2156 342.161 73.1952C340.896 72.9301 339.478 73.2054 338.111 73.4603C336.652 73.7459 335.285 74.011 334.225 73.6337C333.919 73.5215 333.511 73.3278 333.358 73.0117C333.164 72.6241 333.388 72.104 333.694 71.7981C334.082 71.4106 334.622 71.1862 335.336 70.9721C337.519 70.2786 339.784 69.9625 342.069 70.0237L342.099 68.6776C341.793 68.6674 341.487 68.6878 341.171 68.698C340.783 68.545 340.406 68.3818 340.039 68.2187C338.468 67.5252 336.693 66.7298 333.919 67.2703C333.664 67.3111 332.695 67.2295 332.399 66.8828C332.368 66.8318 332.287 66.7298 332.389 66.4341C332.521 66.0568 332.817 65.761 333.215 65.6081Z" fill="white"/>
<path d="M349.607 77.2336C350.841 77.9678 351.739 79.2629 352.034 80.711L351.739 82.5364C349.107 81.5065 346.261 81.0985 343.446 81.3433L343.017 81.3841C342.058 81.4759 341.161 81.5574 340.396 81.1699C339.998 80.9558 339.61 80.5377 339.661 80.038C339.712 79.5995 340.08 79.2527 340.773 78.9876C342.058 78.8856 343.344 78.7123 344.608 78.4573L344.568 78.2534C345.802 78.1514 346.955 78.233 347.975 78.7327L348.566 77.5191C346.281 76.4076 343.568 76.9582 341.589 77.356C341.344 77.4069 340.906 77.4987 340.447 77.6619C340.008 77.6925 339.58 77.7129 339.141 77.7333C337.907 77.7741 336.53 77.7231 335.571 77.0194C335.285 76.8053 335.163 76.5809 335.183 76.4687C335.204 76.377 335.316 76.2342 335.755 75.9997C337.662 75.0003 339.845 74.5108 342.007 74.5312C342.058 74.5414 342.109 74.5516 342.16 74.5618L342.171 74.5312C343.058 74.5414 343.956 74.6433 344.812 74.8371L345.118 73.5318L346.455 73.3176L347.342 73.7561C347.954 74.0519 348.485 74.3068 348.872 74.7351C349.25 75.1634 349.545 75.8467 349.331 76.3974L349.127 76.9276L349.607 77.2336Z" fill="white"/>
<path d="M352.034 80.7111C351.749 79.263 350.841 77.9679 349.607 77.2336L349.117 76.9481L349.321 76.4178C349.535 75.8671 349.239 75.1839 348.862 74.7556C348.474 74.3273 347.944 74.0723 347.332 73.7766L346.444 73.3381L346.638 72.7772C346.924 71.9104 346.985 71.166 346.812 70.5439C346.618 69.8912 346.016 69.2998 345.445 69.2284L344.71 69.1366L344.863 68.4228C345.129 67.1786 344.466 65.9549 343.282 65.5062C339.875 64.2009 336.581 64.2417 333.215 65.6184C332.817 65.7815 332.521 66.0671 332.409 66.424C332.307 66.7299 332.388 66.8319 332.419 66.8727C332.715 67.2194 333.684 67.301 333.939 67.2602C336.713 66.7299 338.488 67.5151 340.059 68.2086C340.426 68.3718 340.804 68.5349 341.191 68.6879C341.497 68.6777 341.803 68.6573 342.12 68.6675L342.089 70.0136C339.804 69.9626 337.54 70.2787 335.357 70.962C334.643 71.1864 334.102 71.4107 333.714 71.788C333.408 72.094 333.184 72.614 333.378 73.0016C333.531 73.3177 333.929 73.5115 334.245 73.6236C335.295 73.9907 336.673 73.7358 338.131 73.4503C339.498 73.1851 340.906 72.92 342.181 73.1851C343.17 73.2055 344.16 73.3177 345.129 73.5318L344.823 74.8372C343.966 74.6434 343.078 74.5414 342.181 74.5312L342.171 74.5618C342.12 74.5516 342.069 74.5414 342.018 74.5312C339.845 74.5108 337.672 75.0003 335.765 75.9997C335.326 76.2343 335.214 76.377 335.193 76.4688C335.173 76.581 335.306 76.8053 335.581 77.0195C336.54 77.7231 337.917 77.7741 339.151 77.7333C339.58 77.7129 340.018 77.6925 340.457 77.662C340.916 77.4988 341.344 77.4172 341.599 77.356C343.578 76.9583 346.291 76.4076 348.576 77.5192L347.985 78.7327C346.954 78.233 345.812 78.1515 344.578 78.2534L344.619 78.4574C343.354 78.7021 342.069 78.8857 340.783 78.9877C340.09 79.2528 339.722 79.5995 339.671 80.038C339.62 80.5275 340.008 80.9558 340.406 81.17C341.171 81.5575 342.069 81.4759 343.027 81.3842L343.456 81.3434C346.271 81.0986 349.127 81.5167 351.749 82.5365L352.034 80.7111ZM353.381 80.5785L353.401 80.6907L352.789 84.4639L351.983 84.107C349.352 82.9342 346.434 82.4345 343.558 82.6793L343.14 82.7201C342.089 82.822 340.895 82.9342 339.773 82.3529C338.784 81.843 338.223 80.8845 338.315 79.8953C338.345 79.5893 338.437 79.3242 338.56 79.0896C337.274 79.0896 335.887 78.9163 334.775 78.1005C334.061 77.5804 333.725 76.8665 333.857 76.1935C333.959 75.6938 334.286 75.3471 334.632 75.1023C334.347 75.0615 334.061 74.9901 333.786 74.8984C333 74.623 332.439 74.1641 332.154 73.593C331.736 72.7364 331.98 71.6045 332.756 70.8294C333.368 70.2176 334.163 69.9116 334.949 69.6669C336.04 69.3202 337.142 69.0754 338.264 68.9122C337.132 68.4941 335.907 68.2392 334.184 68.5757C333.796 68.6471 332.184 68.6267 331.409 67.7497C331.001 67.2806 330.899 66.6483 331.134 65.9753C331.368 65.2614 331.95 64.67 332.715 64.3538C336.418 62.8446 340.028 62.8038 343.782 64.2315C345.394 64.8535 346.373 66.4036 346.281 68.0658C347.118 68.4227 347.842 69.2182 348.107 70.1564C348.321 70.8906 348.321 71.7166 348.087 72.6242C348.719 72.9302 349.352 73.2565 349.872 73.848C350.525 74.5822 350.831 75.5 350.718 76.3362C352.106 77.3152 353.085 78.8755 353.381 80.5785Z" fill="black"/>
<path d="M193.429 138.41C170.876 138.41 152.525 120.065 152.525 97.5172C152.525 74.9699 170.876 56.624 193.429 56.624C215.982 56.624 234.332 74.9699 234.332 97.5172C234.332 120.065 215.992 138.41 193.429 138.41ZM193.429 60.642C173.089 60.642 156.544 77.1828 156.544 97.5172C156.544 117.852 173.089 134.392 193.429 134.392C213.768 134.392 230.313 117.852 230.313 97.5172C230.313 77.1828 213.768 60.642 193.429 60.642Z" fill="#E1251B"/>
<path d="M195.438 99.5261H165.786V95.5082H191.419V68.9531H195.438V99.5261Z" fill="#E1251B"/>
<path d="M166.204 79.1204L170.876 66.5568L157.595 66.4242L157.626 62.4062L176.65 62.5796L169.968 80.5277L166.204 79.1204Z" fill="#E1251B"/>
</svg>
