<svg width="593" height="500" viewBox="0 0 593 500" fill="none" xmlns="http://www.w3.org/2000/svg">
<path d="M98.9721 315.622C102.9 347.251 116.44 377.846 143.004 395.624C168.741 412.782 203.471 416.193 237.27 415.47C290.708 414.229 349.728 401.619 389.522 363.272C414.949 338.775 429.316 306.837 441.926 275.828C454.33 245.336 465.7 214.534 475.932 183.526C484.098 158.823 491.643 132.569 484.408 109.622C472.831 72.8256 426.939 57.6314 384.147 58.9751C341.355 60.3188 298.047 73.6525 255.152 75.4096C229.621 76.4432 203.264 73.6525 178.767 83.9886C103.107 115.824 91.7367 256.396 98.9721 315.622Z" fill="#F6F6F6"/>
<path d="M512.315 216.705C501.669 186.42 473.658 164.818 440.686 161.613C391.382 156.859 329.572 168.228 271.069 192.725C249.466 201.821 229.207 212.261 211.119 223.63C211.533 223.837 211.946 224.147 212.359 224.354C230.241 213.087 250.19 202.855 271.586 193.862C329.882 169.469 391.485 158.099 440.582 162.854C473.038 165.955 500.739 187.247 511.178 217.119C518.414 237.998 515.209 258.67 502.496 272.417C491.436 284.304 473.761 290.919 451.228 291.436C424.664 292.056 391.899 284.614 353.862 269.213L353.448 270.453C391.692 285.957 424.561 293.4 451.228 292.779C474.071 292.263 492.056 285.544 503.323 273.347C516.45 259.187 519.757 237.998 512.315 216.705Z" fill="#E1251B"/>
<path d="M132.771 321.927C128.12 313.969 130.808 302.702 140.627 288.645C155.511 267.249 178.664 246.267 207.399 227.558C207.399 226.938 208.019 226.524 208.536 226.835C208.846 226.628 209.259 226.421 209.569 226.214C209.156 226.008 208.846 225.801 208.432 225.594C208.329 225.594 208.329 225.491 208.329 225.491C178.767 244.509 154.891 265.905 139.697 287.921C129.567 302.495 126.88 314.175 131.841 322.651C139.076 335.158 162.126 340.636 200.473 338.775C211.12 338.258 221.559 337.225 230.448 336.191C245.126 334.434 255.565 332.47 255.772 332.367L255.565 331.127C254.325 331.23 149.413 350.765 132.771 321.927Z" fill="#E1251B"/>
<path d="M213.6 227.455C213.187 227.662 212.773 227.972 212.36 228.178C212.463 228.282 212.463 228.385 212.567 228.385L212.67 228.488C212.773 228.592 212.773 228.592 212.877 228.695C212.98 228.799 213.083 228.902 213.187 229.005C213.704 228.695 214.22 228.385 214.737 228.075C214.427 227.868 214.014 227.662 213.6 227.455Z" fill="#E1251B"/>
<path d="M519.551 220.116C508.801 189.831 480.273 168.229 446.784 165.128C396.654 160.476 333.706 171.95 274.273 196.55C253.394 205.129 233.859 215.051 216.184 225.801C216.494 226.008 216.804 226.318 217.011 226.525C217.114 226.525 217.114 226.628 217.114 226.731C234.686 216.085 254.014 206.369 274.687 197.79C334.016 173.293 396.757 161.82 446.681 166.368C479.653 169.365 507.768 190.658 518.31 220.426C525.649 241.305 522.342 261.978 509.318 275.725C498.052 287.715 479.963 294.33 457.12 294.847C430.143 295.57 396.86 288.128 358.1 272.727L357.686 273.968C396.55 289.368 429.936 296.811 457.12 296.087C480.377 295.467 498.672 288.748 510.145 276.552C523.685 262.598 527.096 241.409 519.551 220.116Z" fill="#E1251B"/>
<path d="M133.288 326.165C128.637 318.206 131.324 306.94 141.35 292.883C156.028 272.107 178.664 251.745 206.572 233.553C206.675 233.036 206.675 232.416 206.778 231.899C178.354 250.401 155.408 271.074 140.42 292.159C130.084 306.733 127.397 318.413 132.358 326.889C139.697 339.396 163.16 344.77 202.127 342.91C212.98 342.393 223.626 341.359 232.619 340.223C247.606 338.362 258.149 336.398 258.356 336.398L258.149 335.158C256.909 335.261 150.24 355.003 133.288 326.165Z" fill="#E1251B"/>
<path d="M206.985 406.684L118.404 411.439C112.616 411.749 107.551 407.511 106.931 401.929L88.8429 234.793C88.6362 232.933 89.4631 229.832 91.427 229.625L187.243 221.356C189.207 221.15 201.611 222.08 201.817 223.94L206.985 406.684Z" fill="#AFB1B2"/>
<path d="M217.838 406.684L129.257 411.439C123.469 411.749 118.404 407.511 117.784 401.929L99.6959 234.793C99.4892 232.933 100.936 231.176 102.9 231.072L198.716 222.803C200.68 222.597 202.438 224.044 202.541 226.008L217.838 406.684Z" fill="white"/>
<path d="M269.209 374.848L115.407 382.084C112.203 382.187 109.619 379.81 109.412 376.812V376.502C109.309 373.401 111.686 370.817 114.89 370.611L268.692 363.375C271.793 363.272 274.481 365.649 274.687 368.647V368.957C274.791 372.058 272.413 374.745 269.209 374.848Z" fill="#AFB1B2"/>
<path d="M247.296 170.916H247.089L250.087 144.249L258.149 137.943L272.93 144.249C276.754 143.318 280.165 141.975 283.059 140.114C284.093 145.489 288.951 173.293 278.201 179.081C266.315 185.49 253.911 174.534 253.704 174.43L252.361 175.877C252.464 175.981 260.63 183.113 270.346 183.009L274.273 200.684C271.689 202.648 259.389 211.02 248.123 200.581L247.399 175.981L247.296 170.916Z" fill="white"/>
<path d="M282.853 195.516L345.283 424.255L270.243 431.904L241.405 202.648L282.853 195.516Z" fill="#AFB1B2"/>
<path d="M302.491 406.167C341.665 402.446 363.268 390.043 363.578 389.836L361.718 386.425C361.201 386.735 313.861 413.713 231.378 398.725L230.758 402.653C258.873 407.718 282.853 408.028 302.491 406.167Z" fill="white"/>
<path d="M298.15 383.634C337.324 379.913 358.927 367.51 359.237 367.303L357.376 363.892C356.86 364.202 309.52 391.18 227.037 376.192L226.417 380.12C254.428 385.185 278.511 385.495 298.15 383.634Z" fill="white"/>
<path d="M293.809 361.101C332.983 357.38 354.585 344.977 354.896 344.77L353.035 341.359C352.518 341.669 305.179 368.647 222.696 353.659L222.076 357.587C250.087 362.652 274.17 363.065 293.809 361.101Z" fill="white"/>
<path d="M289.467 338.672C328.642 334.951 350.244 322.548 350.554 322.341L348.694 318.93C348.177 319.24 300.837 346.217 218.355 331.23L217.734 335.158C245.745 340.222 269.829 340.532 289.467 338.672Z" fill="white"/>
<path d="M285.023 316.139C324.197 312.418 345.8 300.015 346.11 299.808L344.249 296.397C343.733 296.707 296.393 323.684 213.91 308.697L213.29 312.625C241.404 317.69 265.488 318 285.023 316.139Z" fill="white"/>
<path d="M280.682 293.606C319.856 289.885 341.459 277.482 341.769 277.275L339.909 273.864C339.392 274.174 292.052 301.151 209.569 286.164L208.949 290.092C236.96 295.156 261.044 295.467 280.682 293.606Z" fill="white"/>
<path d="M276.341 271.073C315.515 267.352 337.118 254.949 337.428 254.742L335.567 251.331C335.05 251.641 287.711 278.619 205.228 263.631L204.608 267.559C232.619 272.624 256.702 272.934 276.341 271.073Z" fill="white"/>
<path d="M272 248.54C311.174 244.819 332.776 232.416 333.086 232.209L331.226 228.798C330.709 229.108 283.369 256.086 200.887 241.098L200.267 245.026C228.278 250.091 252.361 250.401 272 248.54Z" fill="white"/>
<path d="M267.555 226.008C306.729 222.287 328.332 209.883 328.642 209.676L326.782 206.266C326.265 206.576 278.925 233.553 196.442 218.566L195.822 222.493C223.937 227.558 247.917 227.868 267.555 226.008Z" fill="white"/>
<path d="M267.556 192.312C263.421 191.898 260.01 188.797 257.943 185.283C256.393 182.699 255.359 179.908 254.222 177.117C257.116 179.185 263.318 183.009 270.45 183.009L272.31 191.175C270.76 192.002 269.106 192.518 267.556 192.312Z" fill="black"/>
<path d="M245.436 174.844L246.159 201.614L246.469 201.924C251.741 206.989 257.322 208.229 262.18 207.713C269.933 206.989 275.824 202.028 275.928 201.924L276.341 201.511L272.207 183.009C274.48 182.802 276.754 182.079 278.925 180.839C286.574 176.807 287.297 163.784 286.574 153.241C290.915 146.419 291.328 138.77 290.708 133.085C299.494 122.542 300.941 109.002 300.941 109.002C249.26 98.5626 235.203 128.227 235.203 128.227L221.042 134.016L245.436 174.844ZM248.123 200.684L247.4 176.084L247.296 170.916H247.09L250.087 144.248L258.149 137.943L272.93 144.248C276.754 143.318 280.165 141.974 283.06 140.114C284.093 145.489 288.951 173.293 278.201 179.081C266.315 185.49 253.912 174.533 253.705 174.43L252.361 175.877C252.464 175.981 260.63 183.112 270.346 183.009L274.274 200.684C271.69 202.751 259.39 211.124 248.123 200.684Z" fill="black"/>
<path d="M282.853 195.516L324.611 199.03C333.81 199.03 342.596 202.751 349.004 209.366L367.299 245.543L368.229 287.198L343.423 279.756L383.837 426.116L338.668 436.039L302.181 291.332L282.853 195.516Z" fill="#E1251B"/>
<path d="M203.058 286.784L211.947 331.747L230.758 433.868L285.54 441L258.873 295.467L241.405 202.544L204.195 206.059C196.752 206.782 189.724 209.986 184.246 215.051L171.842 295.467L197.579 302.289L203.058 286.784Z" fill="#E1251B"/>
<path d="M282.853 195.516L302.078 291.332L313.654 232.829L300.527 226.318L306.212 199.03L282.853 195.516Z" fill="#E1251B"/>
<path d="M241.405 202.648L258.873 295.57L227.037 245.129L237.063 234.38L221.973 210.917L241.405 202.648Z" fill="#E1251B"/>
<path d="M303.835 294.95L314.791 232.313L301.664 225.801L307.142 199.237L305.178 198.927L299.39 226.835L312.62 233.45L301.974 294.64L303.835 294.95Z" fill="black"/>
<path d="M258.046 296.087L259.7 294.95L228.278 245.13L236.753 232.106L218.975 206.886L217.425 208.023L234.376 232.106L225.9 245.13L258.046 296.087Z" fill="black"/>
<path d="M235.929 127.546L234.877 129.205L247.712 137.337L248.763 135.678L235.929 127.546Z" fill="white"/>
<path d="M274.687 167.918C274.79 167.918 277.891 166.885 279.338 165.231C280.889 163.577 276.857 158.409 273.24 154.378C272.93 154.068 272.516 154.068 272.206 154.378C271.896 154.688 271.896 155.101 272.206 155.412C275.72 159.236 278.511 163.37 278.305 164.301C277.064 165.541 274.273 166.575 274.17 166.575C273.757 166.678 273.653 167.091 273.757 167.505C273.963 167.815 274.377 168.022 274.687 167.918Z" fill="black"/>
<path d="M280.095 156.717C280.517 155.176 280.234 153.755 279.463 153.544C278.692 153.333 277.725 154.413 277.304 155.954C276.882 157.496 277.165 158.917 277.936 159.128C278.707 159.338 279.674 158.259 280.095 156.717Z" fill="black"/>
<path d="M265.252 155.666C265.673 154.124 265.39 152.703 264.619 152.492C263.848 152.282 262.881 153.361 262.46 154.903C262.038 156.444 262.322 157.865 263.093 158.076C263.864 158.287 264.83 157.208 265.252 155.666Z" fill="black"/>
<path d="M260.837 151.897C261.147 151.794 261.353 151.484 261.353 151.07C261.25 150.037 261.25 149.003 261.457 147.97C261.56 147.246 261.767 146.729 262.077 146.419C262.8 145.385 264.351 145.489 265.488 146.006C266.728 146.626 267.762 147.97 268.589 149.107C268.795 149.417 269.209 149.52 269.519 149.313C269.829 149.107 269.932 148.59 269.622 148.28C268.692 146.936 267.555 145.489 266.005 144.662C264.454 143.835 262.18 143.938 260.94 145.489C260.423 146.212 260.216 147.039 260.113 147.659C259.906 148.796 259.803 150.037 260.01 151.174C260.01 151.587 260.423 151.897 260.837 151.794C260.733 151.897 260.733 151.897 260.837 151.897Z" fill="black"/>
<path d="M274.997 149.83C275.204 149.83 275.514 149.623 275.514 149.21C275.617 148.176 275.928 147.246 276.341 146.316C276.548 145.696 276.858 145.282 277.168 144.972C277.995 144.248 279.132 144.662 279.752 145.489C280.579 146.522 280.992 147.969 281.302 149.313C281.406 149.727 281.716 149.933 282.026 149.727C282.336 149.52 282.439 149.106 282.336 148.796C281.923 147.246 281.406 145.592 280.475 144.352C279.442 143.111 277.891 142.491 276.548 143.732C276.031 144.248 275.617 144.972 275.411 145.592C274.997 146.626 274.687 147.763 274.48 148.9C274.48 149.417 274.687 149.83 274.997 149.83Z" fill="black"/>
<path d="M198.902 248.395L197.262 248.609L202.272 286.942L203.912 286.728L198.902 248.395Z" fill="black"/>
<path d="M277.168 168.952C277.168 168.952 273.24 169.882 269.519 168.228C265.798 166.575 269.312 189.107 277.168 168.952Z" fill="black"/>
<path d="M268.072 171.949C270.656 172.673 272.62 174.017 273.654 175.774C270.45 179.805 268.382 175.464 268.072 171.949Z" fill="#E1251B"/>
<path d="M387.868 249.471L382.184 331.643L390.763 349.111L387.868 249.471Z" fill="black"/>
<path d="M251.431 370.921L259.08 407.304H274.481L262.491 368.544L251.431 370.921Z" fill="#A0A0A0"/>
<path d="M420.531 373.298C419.29 372.265 416.086 370.404 413.502 369.061C416.81 372.575 420.014 376.296 420.22 377.123C420.22 377.226 421.564 382.911 420.944 386.322C420.944 387.045 421.254 387.252 421.461 387.356C422.288 387.666 423.528 387.252 423.838 386.942C424.148 382.911 422.598 375.056 420.531 373.298Z" fill="white"/>
<path d="M412.675 366.786C415.466 368.233 419.91 370.714 421.564 372.058C424.251 374.332 425.698 383.118 425.492 386.942C425.492 387.976 426.525 388.286 426.732 388.389C427.456 388.596 428.179 388.389 428.282 388.079C428.799 386.839 426.939 377.019 425.285 373.918C424.665 372.368 418.463 369.267 412.675 366.786Z" fill="white"/>
<path d="M427.766 375.676C428.799 378.776 429.833 383.428 430.04 386.425C431.28 387.045 431.9 387.149 432.107 386.942C432.21 386.839 432.934 386.115 431.59 381.981C430.556 378.776 429.006 376.709 427.766 375.676Z" fill="white"/>
<path d="M405.026 361.928C405.13 362.032 419.29 376.606 419.29 376.606L420.324 386.115L419.394 387.872L417.12 387.252L415.673 385.288L415.363 382.601L415.052 380.43L410.815 377.743L408.747 376.296C408.747 376.296 405.13 376.813 404.82 376.813C404.51 376.813 398.308 376.502 398.101 376.502C397.894 376.502 395.517 375.365 395.517 375.365L405.026 361.928Z" fill="white"/>
<path d="M426.629 372.988C425.905 372.058 422.494 368.854 407.92 363.169C403.682 359.551 393.656 357.174 392.623 356.967L375.465 345.081L369.47 366.27L388.075 369.164C389.315 371.128 395.724 380.327 408.54 376.916L414.329 380.43C414.329 382.187 414.742 387.666 417.636 388.699C417.843 388.803 418.05 388.803 418.256 388.803C418.98 388.906 419.6 388.699 420.117 388.079C420.324 388.286 420.634 388.493 421.047 388.596C421.357 388.699 421.667 388.699 421.977 388.803C422.701 388.803 423.528 388.699 424.251 388.286C424.665 388.906 425.285 389.423 426.009 389.733C426.112 389.733 426.215 389.836 426.319 389.836C427.766 390.25 429.109 389.836 429.626 388.803C429.73 388.596 429.833 388.389 429.833 387.976C430.04 388.079 430.246 388.182 430.35 388.182C431.383 388.596 432.21 388.493 432.83 387.976C433.967 387.045 433.967 384.978 432.83 381.361C431.177 375.572 427.559 373.402 426.629 372.988ZM418.98 387.045C418.877 387.149 418.773 387.252 418.463 387.252C416.293 387.045 415.879 381.774 415.879 380.017V379.603L408.747 375.262L408.437 375.366C395.207 379.087 389.522 368.544 389.315 368.13L389.108 367.717L371.537 364.926L376.498 347.355L392.003 358.518H392.106H392.209C392.313 358.518 403.062 360.998 406.99 364.409C412.365 370.094 418.36 376.606 418.773 377.433C419.29 379.707 420.22 385.702 418.98 387.045ZM421.564 387.252C421.357 387.149 420.944 386.942 421.047 386.219C421.667 382.808 420.324 377.123 420.324 377.019C420.117 376.192 416.913 372.575 413.605 368.957C416.189 370.404 419.393 372.161 420.634 373.195C422.701 374.952 424.251 382.808 424.045 386.735C423.631 387.045 422.391 387.459 421.564 387.252ZM426.836 388.389C426.525 388.286 425.595 387.976 425.595 386.942C425.802 383.221 424.355 374.332 421.667 372.058C420.014 370.611 415.569 368.234 412.778 366.787C418.567 369.267 424.768 372.368 425.595 373.918C427.249 377.123 429.109 386.839 428.593 388.079C428.179 388.389 427.559 388.596 426.836 388.389ZM432.004 386.942C431.797 387.149 431.177 387.045 429.936 386.425C429.73 383.428 428.696 378.777 427.662 375.676C428.903 376.813 430.453 378.776 431.487 382.084C432.83 386.115 432.107 386.839 432.004 386.942Z" fill="black"/>
<path d="M269.209 374.849L221.353 371.438L200.267 366.786L268.693 363.272C271.793 363.169 274.481 365.546 274.688 368.543V368.854C274.791 372.058 272.414 374.745 269.209 374.849Z" fill="#999999"/>
<path d="M285.437 246.06H421.978L411.331 349.835H274.791C283.059 349.835 281.199 347.974 281.199 345.701V250.298C281.199 247.92 283.059 246.06 285.437 246.06Z" fill="white"/>
<path d="M351.589 350.352H285.851C282.956 350.352 280.579 348.078 280.579 345.184V250.608C280.579 247.817 282.956 245.44 285.851 245.44V246.577C283.577 246.577 281.716 248.334 281.716 250.608V345.287C281.716 347.458 283.577 349.318 285.851 349.318H351.589V350.352Z" fill="black"/>
<path d="M304.352 390.767H292.982V398.209H304.352V390.767Z" fill="black"/>
<path d="M321.096 390.767H309.727V398.209H321.096V390.767Z" fill="black"/>
<path d="M337.841 390.767H326.471V398.209H337.841V390.767Z" fill="black"/>
<path d="M354.482 390.767H343.112V398.209H354.482V390.767Z" fill="black"/>
<path d="M371.227 390.767H359.857V398.209H371.227V390.767Z" fill="black"/>
<path d="M387.971 390.767H376.602V398.209H387.971V390.767Z" fill="black"/>
<path d="M404.613 390.767H393.243V398.209H404.613V390.767Z" fill="black"/>
<path d="M421.357 390.767H409.987V398.209H421.357V390.767Z" fill="black"/>
<path d="M437.998 390.767H426.628V398.209H437.998V390.767Z" fill="black"/>
<path d="M444.614 394.384H281.509V406.374H444.614V394.384Z" fill="black"/>
<path d="M407.197 274.381H336.808V326.268H407.197V274.381Z" fill="#AFB1B2"/>
<path d="M416.81 274.381H346.42V326.268H416.81V274.381Z" fill="black"/>
<path d="M407.094 282.96H362.545V407.614H407.094V282.96Z" fill="#AFB1B2"/>
<path d="M414.019 282.96H369.47V407.614H414.019V282.96Z" fill="#E1251B"/>
<path d="M363.475 245.543H429.213C432.107 245.543 434.484 247.817 434.484 250.711V345.287C434.484 348.078 432.107 350.455 429.213 350.455V349.318C431.487 349.318 433.347 347.561 433.347 345.287V250.608C433.347 248.437 431.487 246.577 429.213 246.577H363.475V245.543Z" fill="black"/>
<path d="M469.317 406.374H69.5142V414.23H469.317V406.374Z" fill="black"/>
<path d="M269.416 391.077L265.384 378.053L253.395 380.637L255.565 391.283C260.216 391.18 264.868 391.077 269.416 391.077Z" fill="#6B6B6B"/>
<path d="M275.1 373.401C269.622 371.541 257.632 373.608 257.529 373.608H257.425H257.322L226.727 372.574L229.104 392.73L258.252 384.358L258.562 384.668C258.976 385.081 269.312 393.35 281.302 384.048L281.612 383.841L290.708 385.288L290.915 385.701C291.638 387.562 294.326 392.73 296.703 392.006C297.013 391.903 297.116 391.8 297.116 391.593C297.737 389.733 294.326 383.841 292.775 381.774C291.948 381.05 283.059 376.916 275.1 373.401Z" fill="white"/>
<path d="M206.158 220.219L190.447 222.183L186.209 237.274L173.186 294.226C173.186 294.226 165.434 401.413 173.703 406.477C183.109 412.265 234.273 392.007 234.273 392.007L229.931 371.748L198.51 366.476L216.288 283.27L206.158 220.219Z" fill="#FBFBFB"/>
<path d="M177.217 407.097C175.77 407.201 174.53 407.201 173.599 407.097C171.945 406.891 166.984 406.271 169.672 336.398C170.188 323.478 172.359 294.123 172.359 294.123L173.496 294.226C173.496 294.226 171.325 325.338 170.808 336.398C168.328 400.276 172.359 405.65 173.703 405.857C183.832 407.097 228.071 393.35 233.446 391.593L229.311 372.368C224.247 372.265 199.853 367.51 198.406 366.476L199.44 365.443C199.336 366.27 219.802 371.024 229.828 371.128H230.345L234.893 392.42L234.376 392.627C232.515 393.247 192.514 405.96 177.217 407.097Z" fill="black" stroke="black" stroke-width="0.5" stroke-miterlimit="10"/>
<path d="M292.879 376.812C291.122 376.296 287.091 375.779 283.783 375.365C288.641 377.639 293.499 380.017 294.119 380.74C294.119 380.843 297.944 386.011 298.771 389.836H298.874C299.184 390.559 299.598 390.663 299.908 390.663C300.838 390.559 301.975 389.629 302.078 389.216C300.631 385.081 295.773 377.743 292.879 376.812Z" fill="white"/>
<path d="M282.025 373.505C285.54 373.815 291.121 374.435 293.395 375.159C297.116 376.399 302.388 384.771 303.731 388.699C304.145 389.733 305.282 389.629 305.695 389.629C306.522 389.526 307.142 389.009 307.246 388.699C307.246 387.252 301.147 377.949 298.253 375.469C296.703 374.125 289.054 373.608 282.025 373.505Z" fill="white"/>
<path d="M301.251 376.192C303.525 378.88 306.626 383.324 308.073 386.322C309.623 386.528 310.243 386.322 310.45 386.011C310.45 385.908 310.967 384.874 307.866 381.153C305.385 378.156 303.008 376.812 301.251 376.192Z" fill="white"/>
<path d="M298.977 373.918C297.84 373.298 292.982 371.438 275.617 371.748C269.829 369.887 258.562 371.644 257.322 371.851L224.763 370.817L227.657 395.004L257.942 386.322C260.01 387.872 270.449 394.487 282.129 385.598L289.571 386.735C290.398 388.492 292.982 393.97 296.496 393.764C296.703 393.764 297.013 393.764 297.22 393.66C298.047 393.454 298.563 392.937 298.77 392.213C299.184 392.317 299.494 392.42 299.907 392.42C300.217 392.42 300.527 392.317 300.941 392.213C301.664 392.007 302.491 391.386 303.111 390.663C303.732 391.18 304.558 391.386 305.592 391.386C305.695 391.386 305.799 391.386 305.902 391.386C307.453 391.18 308.796 390.146 308.9 388.906C308.9 388.699 308.9 388.389 308.796 387.975C309.003 387.975 309.21 387.975 309.416 387.975C310.657 387.872 311.484 387.459 311.897 386.735C312.621 385.288 311.794 383.221 309.106 380.017C304.765 374.642 300.114 373.918 298.977 373.918ZM297.116 391.593C297.013 391.8 297.013 391.903 296.703 392.007C294.326 392.627 291.638 387.562 290.915 385.701L290.708 385.288L281.612 383.841L281.302 384.048C269.312 393.454 258.976 385.081 258.562 384.668L258.252 384.358L229.104 392.73L226.727 372.575L257.322 373.608H257.426H257.529C257.632 373.608 269.622 371.541 275.1 373.401C283.059 376.916 291.948 381.05 292.672 381.774C294.326 383.841 297.737 389.733 297.116 391.593ZM299.804 390.663C299.494 390.663 299.08 390.559 298.77 389.836H298.667C297.84 386.115 294.119 380.843 294.016 380.74C293.499 380.017 288.537 377.639 283.679 375.365C286.987 375.675 291.018 376.192 292.775 376.812C295.669 377.743 300.527 385.185 301.974 389.216C301.871 389.629 300.837 390.56 299.804 390.663ZM305.695 389.629C305.385 389.629 304.145 389.733 303.732 388.699C302.388 384.771 297.116 376.296 293.395 375.159C291.121 374.435 285.54 373.815 282.026 373.505C289.054 373.608 296.6 374.125 298.15 375.469C301.148 378.053 307.246 387.252 307.142 388.699C307.142 389.009 306.522 389.526 305.695 389.629ZM310.45 385.908C310.347 386.115 309.623 386.425 308.073 386.218C306.626 383.221 303.525 378.88 301.251 376.089C303.008 376.709 305.385 378.053 307.866 381.05C310.864 384.771 310.45 385.805 310.45 385.908Z" fill="black"/>
<path d="M191.584 374.952L190.447 373.918L198.923 365.236L214.531 285.647L215.978 285.958L200.37 365.96L191.584 374.952Z" fill="black" stroke="black" stroke-width="0.5" stroke-miterlimit="10"/>
<path d="M225.9 393.763L238.821 389.939L234.893 372.884L221.353 372.161L225.9 393.763Z" fill="#FBFBFB"/>
<path d="M209.593 314.784L172 317L173.407 303L211 307.029L209.593 314.784Z" fill="black"/>
<path d="M178.251 221.977C180.732 218.049 183.936 214.845 187.657 212.261C188.484 213.501 189.207 214.845 189.827 216.085C191.378 219.186 195.202 215.361 196.443 218.669C198.613 224.664 203.988 214.224 206.055 220.219C208.846 228.282 213.29 243.372 215.978 251.538C217.528 256.189 220.526 274.381 221.249 279.239C221.663 281.926 220.733 292.986 221.249 295.674L212.05 311.488L169.982 307.25L178.251 221.977Z" fill="#E1251B"/>
<path d="M210.81 312.315L216.391 287.405L214.944 286.888L209.363 311.798L210.81 312.315Z" fill="black"/>
<path d="M434.485 148.28H327.505C322.957 148.28 319.34 144.662 319.34 140.114C319.34 135.566 322.957 131.948 327.505 131.948H434.381C438.929 131.948 442.547 135.566 442.547 140.114C442.547 144.662 438.929 148.28 434.485 148.28Z" fill="#E2E2E2"/>
<path d="M397.067 148.28H318.616C314.068 148.28 310.45 144.662 310.45 140.114C310.45 135.566 314.068 131.948 318.616 131.948H397.067C401.615 131.948 405.233 135.566 405.233 140.114C405.233 144.662 401.512 148.28 397.067 148.28Z" fill="#E1251B"/>
<path d="M361.169 120.831L365.03 111.043V110.994H361.585C361.518 110.994 361.485 111.027 361.485 111.093V112.508C361.485 112.619 361.429 112.675 361.318 112.675H360.32C360.209 112.675 360.153 112.619 360.153 112.508V109.862C360.153 109.751 360.209 109.695 360.32 109.695H366.362C366.473 109.695 366.528 109.751 366.528 109.862V110.894C366.528 110.938 366.517 110.994 366.495 111.06L362.6 120.864C362.556 120.964 362.483 121.014 362.384 121.014H361.268C361.146 121.014 361.113 120.953 361.169 120.831ZM368.858 118.8C368.847 118.7 368.892 118.634 368.992 118.6L370.007 118.351C370.107 118.317 370.173 118.356 370.207 118.467C370.517 119.422 371.189 119.899 372.221 119.899C372.82 119.899 373.292 119.716 373.636 119.349C373.991 118.972 374.168 118.489 374.168 117.901C374.168 117.269 373.98 116.764 373.602 116.387C373.225 115.998 372.72 115.804 372.088 115.804H371.588C371.477 115.804 371.422 115.748 371.422 115.638V114.672C371.422 114.561 371.477 114.506 371.588 114.506H372.071C372.637 114.506 373.092 114.334 373.436 113.99C373.78 113.646 373.952 113.185 373.952 112.608C373.952 112.075 373.785 111.643 373.453 111.31C373.131 110.977 372.692 110.81 372.138 110.81C371.183 110.81 370.584 111.271 370.34 112.192C370.307 112.292 370.24 112.336 370.14 112.325L369.141 112.075C369.03 112.053 368.986 111.987 369.008 111.876C369.13 111.21 369.474 110.65 370.04 110.195C370.606 109.74 371.322 109.512 372.188 109.512C373.175 109.512 373.952 109.795 374.518 110.361C375.095 110.927 375.383 111.665 375.383 112.575C375.383 113.618 374.917 114.428 373.985 115.005V115.038C374.396 115.216 374.768 115.554 375.1 116.054C375.433 116.542 375.6 117.141 375.6 117.851C375.6 118.839 375.284 119.643 374.651 120.265C374.018 120.886 373.208 121.197 372.221 121.197C371.333 121.197 370.59 120.975 369.99 120.531C369.402 120.087 369.025 119.51 368.858 118.8ZM379.378 121.031L385.953 109.679C386.02 109.568 386.108 109.512 386.219 109.512H387.018C387.14 109.512 387.168 109.568 387.101 109.679L380.527 121.031C380.46 121.142 380.377 121.197 380.277 121.197H379.478C379.423 121.197 379.384 121.18 379.361 121.147C379.35 121.114 379.356 121.075 379.378 121.031ZM381.259 115.188C380.926 115.41 380.527 115.521 380.061 115.521C379.595 115.521 379.189 115.41 378.845 115.188C378.513 114.955 378.28 114.639 378.146 114.239C378.058 113.962 378.013 113.396 378.013 112.542C378.013 111.687 378.058 111.121 378.146 110.844C378.28 110.444 378.513 110.134 378.845 109.912C379.189 109.679 379.595 109.562 380.061 109.562C380.527 109.562 380.926 109.679 381.259 109.912C381.603 110.134 381.842 110.444 381.975 110.844C382.064 111.121 382.108 111.687 382.108 112.542C382.108 113.396 382.064 113.962 381.975 114.239C381.842 114.639 381.603 114.955 381.259 115.188ZM379.162 113.973C379.295 114.361 379.595 114.556 380.061 114.556C380.527 114.556 380.826 114.361 380.959 113.973C381.015 113.784 381.043 113.307 381.043 112.542C381.043 111.776 381.015 111.299 380.959 111.11C380.826 110.722 380.527 110.527 380.061 110.527C379.595 110.527 379.295 110.722 379.162 111.11C379.106 111.299 379.078 111.776 379.078 112.542C379.078 113.307 379.106 113.784 379.162 113.973ZM384.505 119.882C384.416 119.605 384.372 119.039 384.372 118.184C384.372 117.33 384.416 116.764 384.505 116.486C384.638 116.087 384.871 115.776 385.204 115.554C385.548 115.321 385.953 115.205 386.419 115.205C386.885 115.205 387.285 115.321 387.617 115.554C387.961 115.776 388.2 116.087 388.333 116.486C388.422 116.764 388.466 117.33 388.466 118.184C388.466 119.039 388.422 119.605 388.333 119.882C388.2 120.282 387.961 120.598 387.617 120.831C387.285 121.053 386.885 121.164 386.419 121.164C385.953 121.164 385.548 121.053 385.204 120.831C384.871 120.598 384.638 120.282 384.505 119.882ZM385.52 119.616C385.653 120.004 385.953 120.198 386.419 120.198C386.885 120.198 387.185 120.004 387.318 119.616C387.373 119.427 387.401 118.95 387.401 118.184C387.401 117.419 387.373 116.941 387.318 116.753C387.185 116.364 386.885 116.17 386.419 116.17C385.953 116.17 385.653 116.364 385.52 116.753C385.465 116.941 385.437 117.419 385.437 118.184C385.437 118.95 385.465 119.427 385.52 119.616Z" fill="#E1251B"/>
<path d="M406.68 229.315L408.334 226.008V225.904C408.541 225.491 408.437 224.974 408.024 224.767L405.44 223.113L405.336 223.01C405.13 222.803 405.026 222.39 405.13 222.08C405.75 220.116 406.06 218.152 405.957 216.085C405.957 215.981 405.957 215.878 405.957 215.878C406.06 215.568 406.267 215.361 406.577 215.258L409.057 214.534C409.368 214.431 409.574 214.121 409.678 213.811C409.678 213.708 409.678 213.604 409.678 213.501L408.954 209.78C408.851 209.366 408.437 209.056 408.024 209.056L404.613 209.47C404.303 209.47 403.993 209.366 403.786 209.056C403.579 208.643 403.269 208.229 402.959 207.816C402.442 207.092 401.822 206.369 401.099 205.852C400.789 205.645 400.685 205.232 400.892 204.922L402.132 201.718L402.236 201.511C402.442 201.097 402.236 200.581 401.822 200.374L398.411 198.72C397.998 198.513 397.481 198.617 397.274 199.03L395.414 201.924C395.207 202.234 394.794 202.441 394.483 202.338C392.933 201.924 391.383 201.821 389.832 201.924C389.419 201.924 389.109 201.718 388.902 201.304L387.972 198.41C387.868 197.997 387.352 197.686 386.938 197.79L383.217 198.513C382.804 198.617 382.494 199.03 382.494 199.444L382.907 203.371C382.907 203.681 382.804 203.992 382.494 204.198C382.183 204.405 381.77 204.612 381.46 204.922C380.84 205.439 380.22 205.955 379.703 206.472C379.496 206.679 379.083 206.782 378.772 206.679L374.948 205.128C374.535 204.922 374.018 205.128 373.811 205.542L372.157 208.953C371.951 209.366 372.054 209.78 372.364 209.986L372.467 210.09L375.672 212.157C375.982 212.364 376.085 212.674 376.085 213.087V213.191C376.085 213.294 376.085 213.397 375.982 213.501C375.672 214.534 375.568 215.671 375.568 216.705C375.568 217.118 375.362 217.429 374.948 217.532L371.847 218.462C371.434 218.566 371.124 219.082 371.227 219.496L371.33 220.323L371.847 223.217C371.951 223.63 372.364 223.94 372.777 223.94L376.085 223.527C376.395 223.527 376.809 223.63 376.912 224.044C377.325 224.871 377.842 225.697 378.462 226.524C378.876 227.145 379.393 227.661 379.909 228.178L379.599 228.798L378.566 231.589C378.462 231.899 378.566 232.313 378.772 232.519C378.772 232.519 378.876 232.623 378.979 232.623L382.39 234.276C382.804 234.483 383.32 234.277 383.527 233.966L384.767 232.003C384.974 231.692 385.388 231.486 385.801 231.589C387.352 232.106 389.005 232.416 390.556 232.416C390.969 232.416 391.279 232.623 391.383 233.036L392.52 236.654C392.623 237.067 393.036 237.274 393.45 237.171L397.171 236.447C397.584 236.344 397.894 235.93 397.894 235.517L397.481 231.382C397.481 231.072 397.584 230.659 397.894 230.555C398.515 230.142 399.238 229.729 399.858 229.315C400.168 229.108 400.478 228.798 400.892 228.488C401.099 228.282 401.512 228.178 401.822 228.282L405.543 229.729C405.957 229.935 406.473 229.729 406.68 229.315ZM397.791 212.984C398.308 213.811 398.721 214.845 398.928 215.981C398.928 216.188 399.031 216.498 399.031 216.808C399.135 218.049 398.825 219.599 398.308 220.529C394.587 227.868 384.457 226.628 382.597 218.669C382.597 218.566 382.494 218.462 382.494 218.255C382.287 217.015 382.493 215.051 383.114 213.914C383.424 213.294 383.734 212.777 384.147 212.26C387.765 207.506 394.794 208.023 397.791 212.984Z" fill="#AFB1B2"/>
<path d="M435.001 212.364L436.655 210.297V210.193C436.862 209.987 436.862 209.573 436.655 209.366L435.105 207.816C435.105 207.816 435.105 207.713 435.001 207.713C434.898 207.506 434.898 207.299 435.001 207.092C435.725 205.852 436.242 204.508 436.449 203.061C436.449 202.958 436.449 202.958 436.449 202.855C436.552 202.648 436.759 202.544 436.965 202.441L438.826 202.338C439.033 202.338 439.239 202.131 439.343 201.924C439.343 201.821 439.343 201.821 439.343 201.718V199.03C439.343 198.72 439.136 198.41 438.723 198.41L436.345 198.203C436.138 198.203 435.932 197.997 435.828 197.79C435.725 197.48 435.622 197.17 435.415 196.86C435.105 196.239 434.795 195.723 434.485 195.206C434.381 194.999 434.381 194.689 434.485 194.482L435.828 192.415L435.932 192.312C436.138 192.105 436.035 191.691 435.828 191.485L433.761 189.831C433.554 189.624 433.141 189.624 432.934 189.934L431.177 191.692C430.97 191.898 430.66 191.898 430.454 191.795C429.42 191.278 428.386 190.968 427.249 190.761C426.939 190.761 426.733 190.451 426.733 190.141L426.526 187.97C426.526 187.66 426.216 187.35 425.906 187.35L423.218 187.247C422.908 187.247 422.598 187.454 422.598 187.764L422.288 190.658C422.288 190.865 422.081 191.071 421.875 191.175C421.564 191.278 421.358 191.381 421.048 191.485C420.531 191.691 420.014 192.002 419.601 192.312C419.394 192.415 419.084 192.415 418.877 192.312L416.396 190.658C416.086 190.451 415.776 190.555 415.57 190.761L413.916 192.828C413.709 193.035 413.709 193.345 413.916 193.552C413.916 193.552 413.916 193.655 414.019 193.655L415.983 195.619C416.19 195.826 416.19 196.033 416.086 196.239C416.086 196.239 416.086 196.239 416.086 196.343C416.086 196.446 415.983 196.446 415.983 196.55C415.673 197.273 415.363 197.997 415.156 198.72C415.053 198.927 414.846 199.134 414.639 199.134L412.365 199.34C412.055 199.34 411.848 199.65 411.745 199.96V200.581V202.648C411.745 202.958 411.952 203.268 412.262 203.268L414.639 203.475C414.846 203.475 415.156 203.681 415.156 203.888C415.363 204.508 415.569 205.232 415.88 205.852C416.086 206.266 416.396 206.782 416.603 207.196L416.293 207.609L415.156 209.366C415.053 209.573 415.053 209.883 415.156 210.09L415.259 210.193L417.327 211.847C417.533 212.054 417.947 212.054 418.154 211.744L419.291 210.607C419.497 210.4 419.807 210.4 420.014 210.503C421.048 211.124 422.081 211.537 423.218 211.744C423.528 211.847 423.735 212.054 423.735 212.26L423.942 214.948C423.942 215.258 424.252 215.465 424.562 215.465L427.249 215.568C427.559 215.568 427.87 215.361 427.87 215.051L428.18 212.054C428.18 211.847 428.386 211.64 428.593 211.537C429.11 211.434 429.627 211.227 430.143 210.917C430.454 210.813 430.66 210.607 430.97 210.503C431.177 210.4 431.384 210.4 431.591 210.503L433.968 212.054C434.381 212.674 434.795 212.674 435.001 212.364ZM431.28 199.65C431.487 200.374 431.591 201.097 431.591 201.924C431.591 202.131 431.591 202.338 431.591 202.544C431.487 203.475 431.074 204.405 430.557 205.025C426.836 209.573 419.911 207.196 419.807 201.304C419.807 201.201 419.807 201.097 419.807 200.994C419.807 200.064 420.324 198.72 420.841 197.997C421.151 197.583 421.461 197.273 421.771 197.066C425.079 194.276 429.937 195.723 431.28 199.65Z" fill="#E1251B"/>
<path d="M132.771 321.927C128.12 313.969 130.808 302.702 140.627 288.645C155.511 267.249 178.664 246.267 207.399 227.558C207.399 226.938 208.019 226.524 208.536 226.835C208.846 226.628 209.259 226.421 209.569 226.214C209.156 226.008 208.846 225.801 208.432 225.594C208.329 225.594 208.329 225.491 208.329 225.491C178.767 244.509 154.891 265.905 139.697 287.921C129.567 302.495 126.88 314.175 131.841 322.651C139.076 335.158 162.126 340.636 200.473 338.775C211.12 338.259 221.559 337.225 230.448 336.191C245.126 334.434 255.565 332.47 255.772 332.367L255.565 331.127C254.325 331.23 149.413 350.765 132.771 321.927Z" fill="#E1251B"/>
<path d="M133.288 326.165C128.637 318.206 131.324 306.94 141.35 292.883C156.028 272.107 178.664 251.745 206.572 233.553C206.675 233.036 206.675 232.416 206.778 231.899C178.354 250.401 155.408 271.073 140.42 292.159C130.084 306.733 127.397 318.413 132.358 326.889C139.697 339.395 163.16 344.77 202.127 342.91C212.98 342.393 223.626 341.359 232.619 340.222C247.606 338.362 258.149 336.398 258.356 336.398L258.149 335.158C256.909 335.261 150.24 355.003 133.288 326.165Z" fill="#E1251B"/>
<path d="M448.645 377.536C445.544 378.777 442.443 380.017 439.343 381.361C438.722 381.567 438.309 382.188 438.516 382.808C438.619 383.325 439.343 383.945 439.963 383.635C443.064 382.394 446.164 381.154 449.265 379.81C449.885 379.603 450.299 378.983 450.092 378.363C449.989 377.846 449.265 377.226 448.645 377.536Z" fill="black"/>
<path d="M433.038 364.203C432.934 367.51 432.831 370.921 432.728 374.229C432.728 374.849 433.038 375.469 433.761 375.572C434.381 375.676 435.105 375.262 435.105 374.539C435.208 371.231 435.312 367.82 435.415 364.513C435.415 363.892 435.105 363.272 434.381 363.169C433.761 363.169 433.038 363.582 433.038 364.203Z" fill="black"/>
<path d="M446.061 364.306C443.271 368.337 440.377 372.368 437.586 376.399C436.655 377.639 438.723 378.88 439.653 377.639C442.444 373.608 445.338 369.577 448.129 365.546C449.059 364.202 446.888 362.962 446.061 364.306Z" fill="black"/>
</svg>
