<svg width="47" height="36" viewBox="0 0 47 36" fill="none" xmlns="http://www.w3.org/2000/svg">
<path d="M7.57129 13.7762H16.1213C17.1413 13.7762 17.9713 14.6062 17.9713 15.6262V17.5463C17.9713 18.5663 17.1413 19.3962 16.1213 19.3962H14.8813H13.0613C11.2213 19.3962 9.72125 20.8862 9.72125 22.7362V30.9462C9.72125 32.7862 11.2113 34.2863 13.0613 34.2863H33.8213C35.6613 34.2863 37.1613 32.7962 37.1613 30.9462V22.7362C37.1613 20.8962 35.6713 19.3962 33.8213 19.3962H31.5813C30.5713 19.3962 29.7613 20.2162 29.7613 21.2162V24.1663C29.7613 25.1763 28.9413 25.9862 27.9413 25.9862H24.5713C23.5613 25.9862 22.7513 25.1663 22.7513 24.1663V6.97626" stroke="#E1251B" stroke-width="2" stroke-miterlimit="10" stroke-linecap="round"/>
<path d="M20.3615 7.76623L19.2915 7.77624C18.7915 7.77624 18.4815 7.2262 18.7515 6.8062L22.1615 2.13622C22.4015 1.75622 22.9615 1.7462 23.2115 2.1162L26.9215 6.78625C27.2115 7.19625 26.9215 7.76624 26.4215 7.77624L25.0615 7.78625" stroke="#E1251B" stroke-width="2" stroke-miterlimit="10" stroke-linecap="round"/>
<path d="M7.2314 16.1262L7.24141 17.1962C7.24141 17.6962 6.69144 18.0062 6.27144 17.7362L1.6014 14.3262C1.2214 14.0862 1.21144 13.5262 1.58144 13.2762L6.25142 9.56623C6.66142 9.27623 7.23141 9.56623 7.24141 10.0662L7.25142 11.4262" stroke="#E1251B" stroke-width="2" stroke-miterlimit="10" stroke-linecap="round"/>
<path d="M39.7415 16.2462L39.7314 17.3162C39.7314 17.8162 40.2815 18.1263 40.7015 17.8563L45.3715 14.4462C45.7515 14.2062 45.7615 13.6462 45.3915 13.3962L40.7214 9.68622C40.3114 9.39622 39.7414 9.68622 39.7314 10.1862L39.7214 11.5463" stroke="#E1251B" stroke-width="2" stroke-miterlimit="10" stroke-linecap="round"/>
<path d="M27.3315 13.9262H39.8615" stroke="#E1251B" stroke-width="2" stroke-miterlimit="10" stroke-linecap="round"/>
</svg>
