<svg width="44" height="40" viewBox="0 0 44 40" fill="none" xmlns="http://www.w3.org/2000/svg">
<path d="M37.95 31.3148H5.64C3.08 31.3148 1 29.2348 1 26.6748V6.4848C1 3.9248 3.08 1.84485 5.64 1.84485H37.95C40.51 1.84485 42.59 3.9248 42.59 6.4848V26.6748C42.59 29.2448 40.51 31.3148 37.95 31.3148Z" stroke="#E1251B" stroke-width="2" stroke-miterlimit="10" stroke-linecap="round"/>
<path d="M11.5701 38.0648H32.0201" stroke="#E1251B" stroke-width="2" stroke-miterlimit="10" stroke-linecap="round"/>
<path d="M18.6599 15.5248L18.3299 16.6348C18.2099 17.0448 17.8899 17.3449 17.4899 17.4749C16.6499 17.7349 15.8399 18.0648 15.0699 18.4648C14.6899 18.6648 14.2499 18.6648 13.8799 18.4648C13.5999 18.3048 13.2399 18.1048 12.8599 17.9048C11.5699 17.1848 9.94991 17.4048 8.89991 18.4548C7.84991 19.4948 7.6199 21.1048 8.3299 22.4048L8.88991 23.4248C9.08991 23.7948 9.0299 24.2148 8.8799 24.6148C8.5699 25.4348 7.99991 26.8349 7.75991 27.4149C7.68991 27.5849 7.5499 27.7048 7.3799 27.7548L5.9099 28.1748C5.8899 28.1848 5.8699 28.1848 5.8599 28.1948C4.1699 28.7148 4.59991 31.2448 6.36991 31.2448L37.2099 31.3448C38.9799 31.3548 39.4299 28.8148 37.7399 28.2948C37.7299 28.2948 37.7099 28.2849 37.6999 28.2849L36.5899 27.9548C36.1799 27.8348 35.8799 27.5148 35.7499 27.1148C35.4899 26.2748 35.1599 25.4648 34.7599 24.6948C34.5599 24.3148 34.5599 23.8748 34.7599 23.5048C34.9199 23.2248 35.1199 22.8648 35.3199 22.4848C36.0399 21.1948 35.8199 19.5748 34.7699 18.5248C33.7299 17.4748 32.1199 17.2448 30.8199 17.9548L29.7999 18.5148C29.4299 18.7148 28.9799 18.7048 28.6099 18.5048C27.8399 18.0948 27.0399 17.7548 26.1999 17.4948C25.7999 17.3648 25.4799 17.0648 25.3599 16.6548C25.2699 16.3448 25.1599 15.9449 25.0399 15.5349C24.6299 14.1149 23.3399 13.1248 21.8599 13.1248C20.3799 13.1348 19.0699 14.1048 18.6599 15.5248Z" stroke="#E1251B" stroke-width="2" stroke-miterlimit="10" stroke-linecap="round"/>
<path d="M15.8999 27.6848C15.8999 27.6848 16.6399 23.4748 20.1199 22.8448" stroke="#E1251B" stroke-width="2" stroke-miterlimit="10" stroke-linecap="round"/>
<path d="M24.7798 22.9248C24.7798 22.9248 28.8298 24.3048 28.9098 27.8448" stroke="#E1251B" stroke-width="2" stroke-miterlimit="10" stroke-linecap="round"/>
</svg>
