<svg width="36" height="44" viewBox="0 0 36 44" fill="none" xmlns="http://www.w3.org/2000/svg">
<path d="M9.99026 23.08H1.76025" stroke="#E1251B" stroke-width="2" stroke-miterlimit="10" stroke-linecap="round"/>
<path d="M9.99036 18.09H5.11035" stroke="#E1251B" stroke-width="2" stroke-miterlimit="10" stroke-linecap="round"/>
<path d="M16.9603 42.6H20.2303C20.7303 42.6 21.1303 42.2 21.1303 41.7V36.15C21.1303 35.65 21.5303 35.25 22.0303 35.25H26.4703C26.9703 35.25 27.3703 35.65 27.3703 36.15V41.7C27.3703 42.2 27.7803 42.6 28.2703 42.6L31.2503 42.58C33.0003 42.58 34.4103 41.16 34.4103 39.42V12.26C34.4103 10.51 32.9903 9.09998 31.2503 9.09998H16.9803C15.2303 9.09998 13.8203 10.52 13.8203 12.26V39.42C13.8203 41.17 12.4003 42.58 10.6603 42.58L8.1803 42.6C7.0003 42.61 6.04028 41.66 6.04028 40.48V32.55C6.04028 31.82 6.42028 31.14 7.04028 30.75L13.1903 26.91" stroke="#E1251B" stroke-width="2" stroke-miterlimit="10" stroke-linecap="round"/>
<path d="M24.1104 8.54997V1.84998" stroke="#E1251B" stroke-width="2" stroke-miterlimit="10" stroke-linecap="round"/>
<path d="M21.3802 17.13H19.4302C19.0002 17.13 18.6602 16.78 18.6602 16.36V14.41C18.6602 13.98 19.0102 13.64 19.4302 13.64H21.3802C21.8102 13.64 22.1502 13.99 22.1502 14.41V16.36C22.1502 16.79 21.8002 17.13 21.3802 17.13Z" fill="#E1251B"/>
<path d="M27.8203 17.13H25.8704C25.4404 17.13 25.1003 16.78 25.1003 16.36V14.41C25.1003 13.98 25.4504 13.64 25.8704 13.64H27.8203C28.2503 13.64 28.5904 13.99 28.5904 14.41V16.36C28.5904 16.79 28.2503 17.13 27.8203 17.13Z" fill="#E1251B"/>
<path d="M21.3802 23.55H19.4302C19.0002 23.55 18.6602 23.2 18.6602 22.78V20.83C18.6602 20.4 19.0102 20.06 19.4302 20.06H21.3802C21.8102 20.06 22.1502 20.41 22.1502 20.83V22.78C22.1502 23.21 21.8002 23.55 21.3802 23.55Z" fill="#E1251B"/>
<path d="M27.8203 23.55H25.8704C25.4404 23.55 25.1003 23.2 25.1003 22.78V20.83C25.1003 20.4 25.4504 20.06 25.8704 20.06H27.8203C28.2503 20.06 28.5904 20.41 28.5904 20.83V22.78C28.5904 23.21 28.2503 23.55 27.8203 23.55Z" fill="#E1251B"/>
<path d="M21.3802 29.99H19.4302C19.0002 29.99 18.6602 29.64 18.6602 29.22V27.27C18.6602 26.84 19.0102 26.5 19.4302 26.5H21.3802C21.8102 26.5 22.1502 26.85 22.1502 27.27V29.22C22.1502 29.65 21.8002 29.99 21.3802 29.99Z" fill="#E1251B"/>
<path d="M27.8203 29.99H25.8704C25.4404 29.99 25.1003 29.64 25.1003 29.22V27.27C25.1003 26.84 25.4504 26.5 25.8704 26.5H27.8203C28.2503 26.5 28.5904 26.85 28.5904 27.27V29.22C28.5904 29.65 28.2503 29.99 27.8203 29.99Z" fill="#E1251B"/>
</svg>
