<svg width="39" height="44" viewBox="0 0 39 44" fill="none" xmlns="http://www.w3.org/2000/svg">
<path d="M23.4217 37.24C28.0775 37.24 31.8517 33.4658 31.8517 28.81C31.8517 24.1542 28.0775 20.38 23.4217 20.38C18.7659 20.38 14.9917 24.1542 14.9917 28.81C14.9917 33.4658 18.7659 37.24 23.4217 37.24Z" stroke="#E1251B" stroke-width="2" stroke-miterlimit="10" stroke-linecap="round"/>
<path d="M30.9218 32.75L36.9617 38.79C37.6717 39.5 37.6717 40.64 36.9617 41.35L35.9617 42.35C35.2517 43.06 34.1117 43.06 33.4017 42.35L29.2917 38.24" stroke="#E1251B" stroke-width="2" stroke-miterlimit="10" stroke-linecap="round"/>
<path d="M19.2816 31.63C19.2816 31.63 17.2116 29.39 19.1116 25.93" stroke="#E1251B" stroke-width="2" stroke-miterlimit="10" stroke-linecap="round"/>
<path d="M10.4316 31.22H4.82159C3.20159 31.22 1.8916 29.91 1.8916 28.29V8.88998C1.8916 8.02998 2.26156 7.21997 2.91156 6.65997L8.68158 1.70999C9.21158 1.24999 9.89155 1 10.5916 1H20.1816C21.8016 1 23.1116 2.30999 23.1116 3.92999V15.64" stroke="#E1251B" stroke-width="2" stroke-miterlimit="10" stroke-linecap="round"/>
<path d="M7.09155 11.98H17.7416" stroke="#E1251B" stroke-width="2" stroke-miterlimit="10" stroke-linecap="round"/>
<path d="M7.09155 16.82H17.7416" stroke="#E1251B" stroke-width="2" stroke-miterlimit="10" stroke-linecap="round"/>
<path d="M7.09155 21.65H13.7616" stroke="#E1251B" stroke-width="2" stroke-miterlimit="10" stroke-linecap="round"/>
</svg>
