<svg width="29" height="43" viewBox="0 0 29 43" fill="none" xmlns="http://www.w3.org/2000/svg">
<path d="M23.9415 41.03H4.98151C2.80151 41.03 1.03149 39.26 1.03149 37.08V4.94998C1.03149 2.76998 2.80151 1 4.98151 1H23.9415C26.1215 1 27.8915 2.76998 27.8915 4.94998V37.08C27.8915 39.26 26.1215 41.03 23.9415 41.03Z" stroke="#E1251B" stroke-width="2" stroke-miterlimit="10" stroke-linecap="round"/>
<path d="M4.05151 31.36H24.8615" stroke="#E1251B" stroke-width="2" stroke-miterlimit="10" stroke-linecap="round"/>
<path d="M14.4615 38.42C13.2915 38.42 12.3315 37.46 12.3315 36.29C12.3315 35.12 13.2915 34.16 14.4615 34.16C15.6315 34.16 16.5915 35.12 16.5915 36.29C16.5915 37.46 15.6315 38.42 14.4615 38.42Z" fill="#E1251B"/>
<path d="M13.7316 24C13.5416 24 13.3716 23.89 13.2916 23.72L12.2116 21.51H11.3316V24H10.1116V18.25C10.1116 17.98 10.3316 17.76 10.6016 17.76H12.5516C13.8216 17.76 14.5716 18.63 14.5716 19.67C14.5716 20.35 14.2516 20.82 13.8316 21.11C13.6216 21.25 13.5416 21.52 13.6616 21.75L14.8316 24.01H13.7316V24ZM12.4716 18.85H11.3216V20.5H12.4716C13.0016 20.5 13.3616 20.16 13.3616 19.68C13.3616 19.19 13.0116 18.85 12.4716 18.85Z" fill="#E1251B"/>
<path d="M18.0316 23.97H16.8316V26.32H15.6116V20.78C15.6116 20.39 15.9216 20.08 16.3116 20.08H18.0316C19.3316 20.08 20.0916 20.97 20.0916 22.03C20.0916 23.09 19.3316 23.97 18.0316 23.97ZM17.9716 21.17H16.8316V22.88H17.9716C18.5216 22.88 18.8716 22.54 18.8716 22.03C18.8816 21.52 18.5216 21.17 17.9716 21.17Z" fill="#E1251B"/>
<path d="M9.32153 8.29001H20.8815" stroke="#E1251B" stroke-width="2" stroke-miterlimit="10" stroke-linecap="round"/>
<path d="M9.32153 12.98H20.8815" stroke="#E1251B" stroke-width="2" stroke-miterlimit="10" stroke-linecap="round"/>
</svg>
