<svg width="41" height="41" viewBox="0 0 41 41" fill="none" xmlns="http://www.w3.org/2000/svg">
<path d="M38.67 10.56C38 10.13 37.21 9.98997 36.43 10.16C35.65 10.33 34.99 10.79 34.56 11.46L33.92 12.46L30.18 18.27V3.31998C30.18 1.48998 28.69 0 26.86 0H3.33C1.5 0 0.0100098 1.48998 0.0100098 3.31998V29.05C0.0100098 29.48 0.360009 29.83 0.790009 29.83C1.22001 29.83 1.57001 29.48 1.57001 29.05V4.10999C1.57001 2.70999 2.71 1.56998 4.11 1.56998H26.08C27.48 1.56998 28.62 2.70999 28.62 4.10999V20.71L23.9 28.06C23.86 28.15 23.83 28.24 23.79 28.33L23.19 31.42C22.88 31.31 22.53 31.28 22.15 31.35C21.59 31.45 21.07 31.71 20.62 32.06C20.6 31.8 20.58 31.53 20.55 31.25C20.46 30.45 20.11 29.81 19.56 29.43C18.42 28.64 17.03 29.57 16.58 29.87C15.11 30.85 13.84 32.25 12.92 33.9C12.71 34.28 12.85 34.75 13.22 34.96C13.34 35.03 13.47 35.06 13.6 35.06C13.87 35.06 14.14 34.92 14.28 34.66C15.08 33.22 16.17 32.01 17.44 31.17C18.33 30.58 18.61 30.67 18.67 30.72C18.9 30.88 18.97 31.26 18.99 31.42C19.09 32.35 19.12 33 19 34.21C18.96 34.59 19.2 34.94 19.57 35.04C19.92 35.14 20.3 34.98 20.47 34.66C20.87 33.91 21.42 33.23 22.22 32.95C22.52 32.85 22.68 32.86 22.7 32.98C22.72 33.12 22.7 33.65 22.65 34.14C22.52 34.85 23.37 35.35 23.92 34.89L28.61 31.54V35.93C28.61 37.33 27.47 38.47 26.07 38.47H4.10001C2.70001 38.47 1.56 37.33 1.56 35.93C1.56 35.5 1.21 35.15 0.779999 35.15C0.349999 35.15 0 35.5 0 35.93V36.71C0 38.54 1.49001 40.03 3.32001 40.03H26.85C28.68 40.03 30.17 38.54 30.17 36.71V29.27L38.91 15.67L39.55 14.67C40.45 13.29 40.05 11.45 38.67 10.56ZM35.88 12.3C36.3 11.65 37.18 11.46 37.83 11.88C38.48 12.3 38.67 13.17 38.25 13.83L38.03 14.17L35.66 12.65L35.88 12.3ZM24.57 32.5L25.06 29.99L25.11 29.75L25.98 30.31L26.85 30.87L26.07 31.43L24.57 32.5ZM28.74 28.61L28 29.76L25.63 28.24L30.06 21.36L34.81 13.97L37.18 15.49L28.74 28.61Z" fill="#E1251B"/>
<path d="M6.41989 14.75H12.1599C12.5899 14.75 12.9399 14.4 12.9399 13.97C12.9399 13.54 12.5899 13.19 12.1599 13.19H6.41989C5.98989 13.19 5.63989 13.54 5.63989 13.97C5.63989 14.4 5.97989 14.75 6.41989 14.75Z" fill="#E1251B"/>
<path d="M6.4201 18.19H12.1601C12.5901 18.19 12.9401 17.84 12.9401 17.41C12.9401 16.98 12.5901 16.63 12.1601 16.63H6.4201C5.9901 16.63 5.6401 16.98 5.6401 17.41C5.6301 17.84 5.9801 18.19 6.4201 18.19Z" fill="#E1251B"/>
<path d="M17.9799 21.86C17.9799 21.43 17.6299 21.08 17.1999 21.08H6.41989C5.98989 21.08 5.63989 21.43 5.63989 21.86C5.63989 22.29 5.98989 22.64 6.41989 22.64H17.1999C17.6299 22.64 17.9799 22.29 17.9799 21.86Z" fill="#E1251B"/>
<path d="M5.36011 6V9.84998C5.36011 10.28 5.71011 10.63 6.14011 10.63H24.8901C25.3201 10.63 25.6701 10.28 25.6701 9.84998V6C25.6701 5.57 25.3201 5.21997 24.8901 5.21997H6.14011C5.71011 5.21997 5.36011 5.57 5.36011 6ZM6.9201 6.78H24.1101V9.06H6.9201V6.78Z" fill="#E1251B"/>
</svg>
