<svg width="53" height="43" viewBox="0 0 53 43" fill="none" xmlns="http://www.w3.org/2000/svg">
<path d="M48.82 19.081L47.57 18.741C47.12 18.621 46.77 18.261 46.62 17.821C46.31 16.891 45.92 15.991 45.46 15.151C45.23 14.741 45.22 14.241 45.44 13.831C45.61 13.511 45.82 13.111 46.05 12.691C46.82 11.231 46.54 9.44102 45.36 8.29102C44.18 7.14102 42.37 6.92103 40.94 7.74103L39.81 8.38104C39.4 8.61104 38.93 8.561 38.48 8.401C37.55 8.071 35.99 7.471 35.34 7.211C35.15 7.141 35.01 6.98102 34.95 6.79102L34.45 5.16101C34.44 5.14101 34.44 5.12101 34.43 5.10101C33.82 3.23101 31.01 3.77102 31.04 5.73102L31.58 40.111C31.61 42.081 34.45 42.531 34.99 40.631C34.99 40.611 35 40.601 35 40.581L35.34 39.331C35.46 38.881 35.82 38.531 36.26 38.381C37.19 38.071 38.08 37.681 38.93 37.221C39.34 36.991 39.84 36.981 40.25 37.201C40.57 37.371 40.97 37.581 41.4 37.811C42.86 38.581 44.65 38.301 45.8 37.121C46.95 35.941 47.17 34.131 46.36 32.701L45.72 31.571C45.49 31.161 45.49 30.671 45.7 30.241C46.14 29.381 46.5 28.471 46.78 27.531C46.91 27.081 47.25 26.721 47.7 26.581C48.05 26.471 48.48 26.341 48.94 26.201C50.52 25.721 51.59 24.251 51.56 22.601C51.52 20.951 50.41 19.511 48.82 19.081Z" stroke="#E1251B" stroke-width="2" stroke-miterlimit="10" stroke-linecap="round"/>
<path d="M35.21 16.261C35.21 16.261 39.92 17.001 40.7 20.861" stroke="#E1251B" stroke-width="2" stroke-miterlimit="10" stroke-linecap="round"/>
<path d="M40.7001 26.061C40.7001 26.061 39.2401 30.601 35.3101 30.771" stroke="#E1251B" stroke-width="2" stroke-miterlimit="10" stroke-linecap="round"/>
<path d="M30.8401 6.35099C30.8401 6.35099 20.5501 -2.93903 9.24014 5.27097C8.37014 5.90097 7.87012 6.93101 7.87012 8.00101V33.111C7.87012 35.371 10.0401 37.041 12.2101 36.391C16.6601 35.071 23.8801 34.071 30.8301 38.091" stroke="#E1251B" stroke-width="2" stroke-miterlimit="10" stroke-linecap="round"/>
<path d="M5.71008 9.64096C3.30008 9.64096 1.34009 11.601 1.34009 14.011V36.581C1.34009 38.991 3.30008 40.951 5.71008 40.951H31.0301" stroke="#E1251B" stroke-width="2" stroke-miterlimit="10" stroke-linecap="round"/>
<path d="M14.01 19.8909C17.24 18.7709 22.54 17.791 27.81 20.511" stroke="#E1251B" stroke-width="2" stroke-miterlimit="10" stroke-linecap="round"/>
<path d="M15.03 13.861C17.78 12.911 22.28 12.071 26.76 14.391" stroke="#E1251B" stroke-width="2" stroke-miterlimit="10" stroke-linecap="round"/>
<path d="M15.03 25.091C17.78 24.141 22.28 23.301 26.76 25.621" stroke="#E1251B" stroke-width="2" stroke-miterlimit="10" stroke-linecap="round"/>
</svg>
