<svg width="44" height="44" viewBox="0 0 44 44" fill="none" xmlns="http://www.w3.org/2000/svg">
<path d="M39.6108 18.7024L38.3708 18.3424C37.9208 18.2124 37.5808 17.8524 37.4408 17.4024C37.1508 16.4624 36.7708 15.5624 36.3208 14.7124C36.1008 14.2924 36.0908 13.8024 36.3208 13.3924C36.4908 13.0724 36.7208 12.6725 36.9508 12.2625C37.7508 10.8225 37.4908 9.02245 36.3308 7.85245C35.1608 6.68245 33.3708 6.43245 31.9208 7.23245L30.7908 7.86246C30.3808 8.09246 29.9108 8.02246 29.4608 7.86246C28.5408 7.52246 26.9808 6.89247 26.3408 6.62247C26.1508 6.54247 26.0208 6.39247 25.9608 6.19247L25.4808 4.55246C25.0208 2.97246 23.5708 1.88248 21.9308 1.88248H21.9208C20.2708 1.88248 18.8308 2.97246 18.3708 4.55246C18.3708 4.55246 18.0708 5.58245 17.9008 6.16245C17.8508 6.34245 17.7208 6.50243 17.5508 6.58243C16.4708 7.10243 14.9308 7.67244 14.0508 8.03244C13.8108 8.13244 13.5508 8.11246 13.3308 7.99246C13.0008 7.81246 12.4808 7.52244 11.9308 7.22244C10.4908 6.43244 8.69082 6.68245 7.53082 7.85245L7.52081 7.86246C6.36081 9.02246 6.10081 10.8225 6.89081 12.2625C6.89081 12.2625 7.42082 13.2225 7.71082 13.7425C7.82082 13.9425 7.83076 14.1825 7.72076 14.3825C7.16076 15.4525 6.53082 17.1624 6.28082 17.8424C6.21082 18.0324 6.06078 18.1725 5.86078 18.2325L4.23077 18.7124C2.65077 19.1724 1.56079 20.6225 1.56079 22.2625V22.2724C1.56079 23.9224 2.65077 25.3625 4.23077 25.8225C4.23077 25.8225 5.2508 26.1224 5.8208 26.2824C6.0508 26.3524 6.24079 26.5225 6.31079 26.7525C6.67079 27.8925 7.40076 29.4724 7.72076 30.1524C7.82076 30.3624 7.81081 30.6025 7.70081 30.8025L6.90082 32.2525C6.11082 33.6925 6.36082 35.4924 7.53082 36.6524L7.54077 36.6624C8.70077 37.8224 10.5008 38.0824 11.9408 37.2924C11.9408 37.2924 12.8408 36.8025 13.3708 36.5025C13.6108 36.3725 13.8908 36.3725 14.1308 36.5125C15.0708 37.0325 16.0608 37.4524 17.1008 37.7824C17.5508 37.9224 17.9108 38.2624 18.0408 38.7124C18.1408 39.0624 18.2708 39.4924 18.4008 39.9524C18.8608 41.5324 20.3108 42.6225 21.9608 42.6225C23.6108 42.6225 25.0608 41.5324 25.5208 39.9524L25.8808 38.7124C26.0108 38.2624 26.3708 37.9224 26.8208 37.7824C27.7608 37.4924 28.6608 37.1124 29.5108 36.6624C29.9308 36.4424 30.4208 36.4324 30.8308 36.6624C31.1508 36.8324 31.5508 37.0624 31.9608 37.2924C33.4008 38.0924 35.2008 37.8325 36.3708 36.6725C37.5408 35.5025 37.7908 33.7125 36.9908 32.2625L36.3608 31.1325C36.1308 30.7225 36.1408 30.2225 36.3608 29.8025C36.8108 28.9525 37.1808 28.0525 37.4808 27.1125C37.6208 26.6625 37.9608 26.3025 38.4108 26.1725C38.7608 26.0725 39.1908 25.9425 39.6508 25.8125C41.2308 25.3525 42.3208 23.9025 42.3208 22.2525C42.2908 20.6125 41.2008 19.1624 39.6108 18.7024Z" stroke="#E1251B" stroke-width="2" stroke-miterlimit="10" stroke-linecap="round"/>
<path d="M23.1908 17.2124L22.3608 16.3624C21.9708 15.9624 22.1807 15.2924 22.7207 15.1824L29.6108 13.7924C30.1008 13.6924 30.5308 14.1224 30.4408 14.6224L29.0208 21.6924C28.9108 22.2324 28.2408 22.4424 27.8408 22.0524L26.7907 20.9824" stroke="#E1251B" stroke-width="2" stroke-miterlimit="10" stroke-linecap="round"/>
<path d="M20.6307 27.3124L21.4607 28.1624C21.8507 28.5624 21.6406 29.2324 21.1006 29.3424L14.2107 30.7324C13.7207 30.8324 13.2907 30.4024 13.3807 29.9024L14.8006 22.8324C14.9106 22.2924 15.5806 22.0824 15.9806 22.4724L17.0307 23.5424" stroke="#E1251B" stroke-width="2" stroke-miterlimit="10" stroke-linecap="round"/>
<path d="M25.2405 18.9925L18.5806 25.5324" stroke="#E1251B" stroke-width="2" stroke-miterlimit="10" stroke-linecap="round"/>
</svg>
