<svg width="44" height="37" viewBox="0 0 44 37" fill="none" xmlns="http://www.w3.org/2000/svg">
<path d="M30 35.8925H6.12999C3.29999 35.8925 1 33.6025 1 30.7625V13.8224C1 10.9924 3.28999 8.69244 6.12999 8.69244H30C32.83 8.69244 35.13 10.9824 35.13 13.8224V30.7625C35.12 33.5925 32.83 35.8925 30 35.8925Z" stroke="#E1251B" stroke-width="2" stroke-miterlimit="10" stroke-linecap="round"/>
<path d="M6.98999 16.0424H17.91" stroke="#E1251B" stroke-width="2" stroke-miterlimit="10" stroke-linecap="round"/>
<path d="M6.98999 22.2025H17.91" stroke="#E1251B" stroke-width="2" stroke-miterlimit="10" stroke-linecap="round"/>
<path d="M6.98999 27.5225H24.08" stroke="#E1251B" stroke-width="2" stroke-miterlimit="10" stroke-linecap="round"/>
<path d="M9.30005 5.02246C9.30005 3.28246 10.71 1.88245 12.44 1.88245H37.46C40.16 1.88245 42.34 4.07245 42.34 6.76245V25.0724C42.34 26.8124 40.93 28.2125 39.2 28.2125" stroke="#E1251B" stroke-width="2" stroke-miterlimit="10" stroke-linecap="round"/>
</svg>
