<svg width="49" height="43" viewBox="0 0 49 43" fill="none" xmlns="http://www.w3.org/2000/svg">
<path d="M42.0203 33.62H7.57025C4.37025 33.62 1.78027 31.03 1.78027 27.83V6.78999C1.78027 3.58999 4.37025 1 7.57025 1H42.0203C45.2203 1 47.8102 3.58999 47.8102 6.78999V27.83C47.8102 31.03 45.2203 33.62 42.0203 33.62Z" stroke="#E1251B" stroke-width="2" stroke-miterlimit="10" stroke-linecap="round"/>
<path d="M13.4802 41.08H36.1202" stroke="#E1251B" stroke-width="2" stroke-miterlimit="10" stroke-linecap="round"/>
<path d="M8.90039 29.34V20.9C8.90039 19.14 10.3304 17.71 12.0904 17.71H17.4704" stroke="#E1251B" stroke-width="2" stroke-miterlimit="10" stroke-linecap="round"/>
<path d="M21.4502 29.34V12.94C21.4502 11.18 22.8802 9.75 24.6402 9.75H30.0202" stroke="#E1251B" stroke-width="2" stroke-miterlimit="10" stroke-linecap="round"/>
<path d="M33.3901 29.34V12.94C33.3901 11.18 34.8201 9.75 36.5801 9.75H41.9601" stroke="#E1251B" stroke-width="2" stroke-miterlimit="10" stroke-linecap="round"/>
</svg>
