<svg width="36" height="33" viewBox="0 0 36 33" fill="none" xmlns="http://www.w3.org/2000/svg">
<path d="M19.3601 16.5349V5.40485C19.3601 3.43485 20.9601 1.84485 22.9201 1.84485H30.7501C32.7201 1.84485 34.3101 3.44485 34.3101 5.40485V27.9248C34.3101 29.8948 32.7101 31.4848 30.7501 31.4848H5.15009C3.18009 31.4848 1.59009 29.8848 1.59009 27.9248V5.40485C1.59009 3.43485 3.19009 1.84485 5.15009 1.84485H8.39008" stroke="#E1251B" stroke-width="2" stroke-miterlimit="10" stroke-linecap="round"/>
<path d="M21.8998 16.6548L23.5998 16.6448C24.3898 16.6448 24.8798 17.5148 24.4498 18.1848L19.0498 25.5848C18.6598 26.1848 17.7898 26.2048 17.3798 25.6148L11.4998 18.2148C11.0498 17.5648 11.4998 16.6648 12.2898 16.6448L14.4398 16.6248" stroke="#E1251B" stroke-width="2" stroke-miterlimit="10" stroke-linecap="round"/>
</svg>
